<svg width="87" height="74" viewBox="0 0 87 74" fill="none" xmlns="http://www.w3.org/2000/svg">
<path d="M70.853 4.78662H32.2378V59.471H70.853V4.78662Z" stroke="white" stroke-width="1.71001" stroke-miterlimit="10"/>
<path d="M49.7417 13.3099H65.3913" stroke="white" stroke-width="1.53805" stroke-miterlimit="10"/>
<path d="M49.7417 20.8849H65.3913" stroke="white" stroke-width="1.53805" stroke-miterlimit="10"/>
<path d="M49.7417 28.4712H65.3913" stroke="white" stroke-width="1.53805" stroke-miterlimit="10"/>
<path d="M49.7417 36.0574H65.3913" stroke="white" stroke-width="1.53805" stroke-miterlimit="10"/>
<path d="M49.7417 43.6323H65.3913" stroke="white" stroke-width="1.53805" stroke-miterlimit="10"/>
<path d="M49.7417 51.2186H65.3913" stroke="white" stroke-width="1.53805" stroke-miterlimit="10"/>
<path d="M43.1312 14.2591H42.9389V14.4513H43.1312V14.2591ZM43.9109 14.2591V14.4513H44.1032V14.2591H43.9109ZM43.9109 11.0292H44.1032V10.8369H43.9109V11.0292ZM43.1681 11.0292V10.8369H43.115L43.0695 10.8641L43.1681 11.0292ZM42.2176 11.5967L42.119 11.4316L41.9425 11.537L42.0594 11.7061L42.2176 11.5967ZM42.6005 12.1504L42.4424 12.2598L42.5436 12.4061L42.6973 12.3165L42.6005 12.1504ZM43.1312 11.8412H43.3234V11.5067L43.0344 11.6751L43.1312 11.8412ZM43.1312 14.4513H43.9109V14.0668H43.1312V14.4513ZM44.1032 14.2591V11.0292H43.7187V14.2591H44.1032ZM43.9109 10.8369H43.1681V11.2214H43.9109V10.8369ZM43.0695 10.8641L42.119 11.4316L42.3161 11.7618L43.2666 11.1942L43.0695 10.8641ZM42.0594 11.7061L42.4424 12.2598L42.7586 12.041L42.3757 11.4873L42.0594 11.7061ZM42.6973 12.3165L43.2279 12.0074L43.0344 11.6751L42.5037 11.9843L42.6973 12.3165ZM42.9389 11.8412V14.2591H43.3234V11.8412H42.9389Z" fill="white"/>
<path d="M42.4575 21.9177H42.2652V22.11H42.4575V21.9177ZM44.7461 21.9177V22.11H44.9384V21.9177H44.7461ZM44.7461 21.2164H44.9384V21.0241H44.7461V21.2164ZM43.4172 21.2164L43.2861 21.0758L42.9293 21.4086H43.4172V21.2164ZM44.1047 20.575L43.9738 20.4342L43.9736 20.4344L44.1047 20.575ZM42.296 19.3661L42.1319 19.266L42.0323 19.4292L42.195 19.5297L42.296 19.3661ZM42.9235 19.7537L42.8225 19.9173L42.9878 20.0193L43.0881 19.853L42.9235 19.7537ZM43.5695 20.1505L43.4377 20.0105L43.4365 20.0117L43.5695 20.1505ZM42.4575 21.2164L42.3245 21.0776L42.2652 21.1343V21.2164H42.4575ZM42.4575 22.11H44.7461V21.7255H42.4575V22.11ZM44.9384 21.9177V21.2164H44.5539V21.9177H44.9384ZM44.7461 21.0241H43.4172V21.4086H44.7461V21.0241ZM43.5484 21.357L44.2359 20.7156L43.9736 20.4344L43.2861 21.0758L43.5484 21.357ZM44.2357 20.7158C44.5037 20.4665 44.8553 20.0711 44.8553 19.5414H44.4708C44.4708 19.8976 44.2318 20.1944 43.9738 20.4342L44.2357 20.7158ZM44.8553 19.5414C44.8553 18.8335 44.2764 18.4033 43.611 18.4033V18.7878C44.1177 18.7878 44.4708 19.0958 44.4708 19.5414H44.8553ZM43.611 18.4033C42.9225 18.4033 42.4412 18.7588 42.1319 19.266L42.4601 19.4662C42.7137 19.0506 43.0814 18.7878 43.611 18.7878V18.4033ZM42.195 19.5297L42.8225 19.9173L43.0245 19.5901L42.397 19.2025L42.195 19.5297ZM43.0881 19.853C43.2499 19.5849 43.3615 19.4799 43.5326 19.4799V19.0954C43.1315 19.0954 42.9201 19.3872 42.7589 19.6544L43.0881 19.853ZM43.5326 19.4799C43.5917 19.4799 43.6265 19.498 43.6451 19.5157C43.6624 19.5322 43.6818 19.5634 43.6818 19.6245H44.0663C44.0663 19.4734 44.0141 19.3362 43.9103 19.2373C43.8078 19.1396 43.6719 19.0954 43.5326 19.0954V19.4799ZM43.6818 19.6245C43.6818 19.7416 43.5966 19.861 43.4377 20.0105L43.7013 20.2905C43.8562 20.1447 44.0663 19.9227 44.0663 19.6245H43.6818ZM43.4365 20.0117L42.3245 21.0776L42.5905 21.3552L43.7025 20.2893L43.4365 20.0117ZM42.2652 21.2164V21.9177H42.6497V21.2164H42.2652Z" fill="white"/>
<path d="M44.3308 27.8369L44.2119 27.6858L43.9874 27.8626L44.2357 28.0039L44.3308 27.8369ZM42.4113 26.8679L42.2493 26.7644L42.1445 26.9286L42.31 27.0313L42.4113 26.8679ZM43.0435 27.2601L42.9421 27.4235L43.1068 27.5256L43.2076 27.3602L43.0435 27.2601ZM43.0066 27.5231V27.3308H42.8143V27.5231H43.0066ZM43.0066 28.2152H42.8143V28.4075H43.0066V28.2152ZM42.942 28.4598L43.1157 28.3775L43.0239 28.1837L42.8413 28.296L42.942 28.4598ZM42.2591 28.8797L42.1584 28.7159L42.0016 28.8123L42.0911 28.9732L42.2591 28.8797ZM44.9891 28.6259C44.9891 28.2128 44.7837 27.8734 44.4259 27.6698L44.2357 28.0039C44.4778 28.1418 44.6046 28.3561 44.6046 28.6259H44.9891ZM44.4498 27.9879C44.716 27.7784 44.8553 27.4765 44.8553 27.1263H44.4708C44.4708 27.3666 44.3794 27.5539 44.2119 27.6858L44.4498 27.9879ZM44.8553 27.1263C44.8553 26.7973 44.7152 26.523 44.4795 26.3351C44.2478 26.1505 43.9348 26.0573 43.5926 26.0573V26.4418C43.8686 26.4418 44.0909 26.5171 44.2399 26.6358C44.3849 26.7514 44.4708 26.9154 44.4708 27.1263H44.8553ZM43.5926 26.0573C42.9638 26.0573 42.5291 26.3263 42.2493 26.7644L42.5734 26.9714C42.7827 26.6435 43.0955 26.4418 43.5926 26.4418V26.0573ZM42.31 27.0313L42.9421 27.4235L43.1448 27.0967L42.5127 26.7045L42.31 27.0313ZM43.2076 27.3602C43.2587 27.2765 43.306 27.2212 43.3547 27.1865C43.3995 27.1545 43.4536 27.134 43.5326 27.134V26.7495C43.3762 26.7495 43.2435 26.7935 43.1314 26.8734C43.0232 26.9506 42.9437 27.0545 42.8793 27.16L43.2076 27.3602ZM43.5326 27.134C43.6013 27.134 43.6387 27.1517 43.6548 27.1647C43.6659 27.1736 43.6772 27.1874 43.6772 27.2232H44.0617C44.0617 27.079 44.0037 26.952 43.896 26.8653C43.7933 26.7825 43.6623 26.7495 43.5326 26.7495V27.134ZM43.6772 27.2232C43.6772 27.2631 43.6639 27.2808 43.6454 27.2944C43.62 27.313 43.5714 27.3308 43.5003 27.3308V27.7153C43.6276 27.7153 43.7636 27.6847 43.8731 27.6042C43.9896 27.5186 44.0617 27.3862 44.0617 27.2232H43.6772ZM43.5003 27.3308H43.0066V27.7153H43.5003V27.3308ZM42.8143 27.5231V28.2152H43.1988V27.5231H42.8143ZM43.0066 28.4075H43.5234V28.023H43.0066V28.4075ZM43.5234 28.4075C43.6379 28.4075 43.7144 28.4342 43.757 28.4656C43.7924 28.4918 43.8156 28.5282 43.8156 28.5936H44.2001C44.2001 28.4098 44.1218 28.257 43.9853 28.1563C43.856 28.0608 43.6902 28.023 43.5234 28.023V28.4075ZM43.8156 28.5936C43.8156 28.6521 43.7939 28.6934 43.7604 28.7226C43.7248 28.7536 43.6648 28.7797 43.5787 28.7797V29.1642C43.7418 29.1642 43.8963 29.1141 44.013 29.0125C44.1318 28.909 44.2001 28.7612 44.2001 28.5936H43.8156ZM43.5787 28.7797C43.4737 28.7797 43.4004 28.7522 43.336 28.699C43.2654 28.6408 43.1936 28.5418 43.1157 28.3775L42.7682 28.5421C42.8565 28.7284 42.9577 28.8855 43.0913 28.9957C43.231 29.1109 43.3931 29.1642 43.5787 29.1642V28.7797ZM42.8413 28.296L42.1584 28.7159L42.3598 29.0434L43.0427 28.6235L42.8413 28.296ZM42.0911 28.9732C42.239 29.2388 42.429 29.4622 42.6785 29.6183C42.9289 29.7749 43.2272 29.8563 43.5787 29.8563V29.4718C43.2889 29.4718 43.0634 29.4055 42.8825 29.2923C42.7005 29.1785 42.5514 29.0096 42.4271 28.7862L42.0911 28.9732ZM43.5787 29.8563C43.9632 29.8563 44.3137 29.7443 44.5719 29.5299C44.8331 29.3131 44.9891 28.9994 44.9891 28.6259H44.6046C44.6046 28.8845 44.4999 29.0899 44.3263 29.2341C44.1495 29.3808 43.891 29.4718 43.5787 29.4718V29.8563Z" fill="white"/>
<path d="M42.379 36.4228H42.1868V36.6151H42.379V36.4228ZM43.7771 36.4228H43.9694V36.2306H43.7771V36.4228ZM43.7771 37.2257H43.5849V37.418H43.7771V37.2257ZM44.5569 37.2257V37.418H44.7492V37.2257H44.5569ZM44.5569 36.4228V36.2306H44.3647V36.4228H44.5569ZM44.8522 36.4228V36.6151H45.0445V36.4228H44.8522ZM44.8522 35.7215H45.0445V35.5292H44.8522V35.7215ZM44.5569 35.7215H44.3647V35.9138H44.5569V35.7215ZM44.5569 33.9958H44.7492V33.8035H44.5569V33.9958ZM43.6618 33.9958V33.8035H43.5651L43.5075 33.8811L43.6618 33.9958ZM42.379 35.7215L42.2248 35.6068L42.1868 35.6579V35.7215H42.379ZM43.1588 35.7215L43.0056 35.6055L42.7722 35.9138H43.1588V35.7215ZM43.7771 34.9048H43.9694V34.3323L43.6239 34.7887L43.7771 34.9048ZM43.7771 35.7215V35.9138H43.9694V35.7215H43.7771ZM42.379 36.6151H43.7771V36.2306H42.379V36.6151ZM43.5849 36.4228V37.2257H43.9694V36.4228H43.5849ZM43.7771 37.418H44.5569V37.0335H43.7771V37.418ZM44.7492 37.2257V36.4228H44.3647V37.2257H44.7492ZM44.5569 36.6151H44.8522V36.2306H44.5569V36.6151ZM45.0445 36.4228V35.7215H44.66V36.4228H45.0445ZM44.8522 35.5292H44.5569V35.9138H44.8522V35.5292ZM44.7492 35.7215V33.9958H44.3647V35.7215H44.7492ZM44.5569 33.8035H43.6618V34.1881H44.5569V33.8035ZM43.5075 33.8811L42.2248 35.6068L42.5333 35.8362L43.8161 34.1105L43.5075 33.8811ZM42.1868 35.7215V36.4228H42.5713V35.7215H42.1868ZM43.3121 35.8375L43.9304 35.0208L43.6239 34.7887L43.0056 35.6055L43.3121 35.8375ZM43.5849 34.9048V35.7215H43.9694V34.9048H43.5849ZM43.7771 35.5292H43.1588V35.9138H43.7771V35.5292Z" fill="white"/>
<path d="M42.5959 43.5232L42.4039 43.5137L42.394 43.7155H42.5959V43.5232ZM42.9558 43.7678L43.1291 43.6845L43.0368 43.4923L42.8551 43.604L42.9558 43.7678ZM42.2729 44.1876L42.1722 44.0239L42.016 44.1199L42.1046 44.2805L42.2729 44.1876ZM43.408 42.8265L43.2161 42.8153L43.2042 43.0187H43.408V42.8265ZM43.4357 42.3512V42.159H43.2543L43.2438 42.34L43.4357 42.3512ZM44.7277 42.3512V42.5435H44.9199V42.3512H44.7277ZM44.7277 41.6499H44.9199V41.4576H44.7277V41.6499ZM42.6882 41.6499V41.4576H42.5052L42.4962 41.6404L42.6882 41.6499ZM42.5959 43.7155H43.4588V43.3309H42.5959V43.7155ZM43.4588 43.7155C43.6248 43.7155 43.7213 43.7448 43.7709 43.7776C43.8076 43.8018 43.8294 43.8334 43.8294 43.9016H44.2139C44.2139 43.7159 44.1366 43.5583 43.9829 43.4568C43.8422 43.3639 43.6573 43.3309 43.4588 43.3309V43.7155ZM43.8294 43.9016C43.8294 43.9633 43.8076 44.0044 43.7767 44.032C43.7438 44.0613 43.6861 44.0877 43.5972 44.0877V44.4722C43.762 44.4722 43.9166 44.4224 44.0325 44.319C44.1504 44.214 44.2139 44.0659 44.2139 43.9016H43.8294ZM43.5972 44.0877C43.4966 44.0877 43.4225 44.0612 43.3556 44.0073C43.2832 43.9491 43.2085 43.8497 43.1291 43.6845L42.7825 43.851C42.8739 44.0411 42.9791 44.1978 43.1144 44.3068C43.2551 44.4202 43.4163 44.4722 43.5972 44.4722V44.0877ZM42.8551 43.604L42.1722 44.0239L42.3736 44.3514L43.0565 43.9315L42.8551 43.604ZM42.1046 44.2805C42.2533 44.5502 42.4475 44.7735 42.6992 44.9286C42.9516 45.0842 43.2505 45.1643 43.5972 45.1643V44.7798C43.3117 44.7798 43.0847 44.7146 42.901 44.6013C42.7166 44.4877 42.5648 44.3188 42.4413 44.0948L42.1046 44.2805ZM43.5972 45.1643C43.9765 45.1643 44.3284 45.0489 44.5884 44.8231C44.8513 44.5948 45.0076 44.2642 45.0076 43.8646H44.6231C44.6231 44.1573 44.5117 44.3804 44.3363 44.5327C44.158 44.6876 43.9007 44.7798 43.5972 44.7798V45.1643ZM45.0076 43.8646C45.0076 43.4941 44.8979 43.172 44.6283 42.9484C44.3661 42.7309 43.9846 42.6342 43.5003 42.6342V43.0187C43.9435 43.0187 44.2195 43.1089 44.3829 43.2444C44.5389 43.3738 44.6231 43.5708 44.6231 43.8646H45.0076ZM43.5003 42.6342H43.408V43.0187H43.5003V42.6342ZM43.5999 42.8376L43.6276 42.3624L43.2438 42.34L43.2161 42.8153L43.5999 42.8376ZM43.4357 42.5435H44.7277V42.159H43.4357V42.5435ZM44.9199 42.3512V41.6499H44.5354V42.3512H44.9199ZM44.7277 41.4576H42.6882V41.8421H44.7277V41.4576ZM42.4962 41.6404L42.4039 43.5137L42.7879 43.5327L42.8802 41.6593L42.4962 41.6404Z" fill="white"/>
<path d="M43.1404 50.6419L42.9491 50.6224L42.9044 51.0613L43.2563 50.7952L43.1404 50.6419ZM44.317 50.222L44.1718 50.3481L44.2956 50.4906L44.4404 50.3694L44.317 50.222ZM44.9122 49.7237L45.0356 49.8711L45.1811 49.7493L45.0613 49.6022L44.9122 49.7237ZM43.1588 51.3571L43.0091 51.2365L42.9556 51.303L42.969 51.3873L43.1588 51.3571ZM43.7864 49.0192C43.2167 49.0192 42.7914 49.2174 42.5145 49.5733C42.2441 49.9211 42.136 50.3929 42.136 50.9049H42.5205C42.5205 50.4387 42.6202 50.0638 42.818 49.8094C43.0095 49.5632 43.3132 49.4038 43.7864 49.4038V49.0192ZM42.136 50.9049C42.136 51.4528 42.255 51.9297 42.5159 52.2743C42.7827 52.6266 43.1813 52.8182 43.6849 52.8182V52.4337C43.2886 52.4337 43.009 52.2885 42.8224 52.0422C42.63 51.788 42.5205 51.4044 42.5205 50.9049H42.136ZM43.6849 52.8182C44.1146 52.8182 44.4718 52.6732 44.7223 52.4268C44.9722 52.181 45.1045 51.8455 45.1045 51.4863H44.72C44.72 51.75 44.6238 51.9843 44.4527 52.1527C44.2822 52.3203 44.0257 52.4337 43.6849 52.4337V52.8182ZM45.1045 51.4863C45.1045 51.1414 44.9894 50.8249 44.7671 50.5935C44.5436 50.3608 44.2251 50.2282 43.8463 50.2282V50.6127C44.1321 50.6127 44.3465 50.7107 44.4898 50.8599C44.6343 51.0102 44.72 51.2267 44.72 51.4863H45.1045ZM43.8463 50.2282C43.5222 50.2282 43.2499 50.318 43.0244 50.4885L43.2563 50.7952C43.4092 50.6797 43.5983 50.6127 43.8463 50.6127V50.2282ZM43.3316 50.6614C43.3549 50.4328 43.4139 50.296 43.483 50.2183C43.5463 50.1472 43.636 50.1051 43.7771 50.1051V49.7206C43.5491 49.7206 43.3459 49.7939 43.1957 49.9627C43.0515 50.1249 42.9766 50.3527 42.9491 50.6224L43.3316 50.6614ZM43.7771 50.1051C43.9152 50.1051 44.0274 50.1818 44.1718 50.3481L44.4622 50.0959C44.302 49.9116 44.0913 49.7206 43.7771 49.7206V50.1051ZM44.4404 50.3694L45.0356 49.8711L44.7888 49.5763L44.1936 50.0746L44.4404 50.3694ZM45.0613 49.6022C44.8289 49.3171 44.4222 49.0192 43.7864 49.0192V49.4038C44.2856 49.4038 44.5895 49.6319 44.7632 49.8451L45.0613 49.6022ZM43.6895 51.3002C43.7783 51.3002 43.8336 51.3273 43.8654 51.3579C43.8965 51.3877 43.9217 51.4366 43.9217 51.514H44.3062C44.3062 51.3467 44.2484 51.1926 44.1318 51.0806C44.016 50.9693 43.859 50.9157 43.6895 50.9157V51.3002ZM43.9217 51.514C43.9217 51.5883 43.8963 51.6382 43.8617 51.6704C43.826 51.7037 43.765 51.7324 43.671 51.7324V52.1169C43.8446 52.1169 44.0051 52.0625 44.124 51.9516C44.244 51.8396 44.3062 51.6842 44.3062 51.514H43.9217ZM43.671 51.7324C43.5763 51.7324 43.5193 51.7062 43.4769 51.6612C43.4283 51.6097 43.378 51.5111 43.3487 51.3269L42.969 51.3873C43.0043 51.6091 43.0739 51.7943 43.1972 51.925C43.3267 52.0623 43.4934 52.1169 43.671 52.1169V51.7324ZM43.3086 51.4777C43.4039 51.3594 43.5321 51.3002 43.6895 51.3002V50.9157C43.4223 50.9157 43.1814 51.0226 43.0091 51.2365L43.3086 51.4777Z" fill="white"/>
<path d="M38.7035 1.16923L1.14746 10.1364L13.8876 63.3209L51.4437 54.3538L38.7035 1.16923Z" fill="#D6411E" stroke="white" stroke-width="1.71001" stroke-miterlimit="10"/>
<path d="M20.1729 14.3483L35.3928 10.7133" stroke="white" stroke-width="1.53805" stroke-miterlimit="10"/>
<path d="M21.9365 21.7315L37.1677 18.0964" stroke="white" stroke-width="1.53805" stroke-miterlimit="10"/>
<path d="M23.7119 29.1032L38.9318 25.4681" stroke="white" stroke-width="1.53805" stroke-miterlimit="10"/>
<path d="M25.4761 36.4751L40.696 32.84" stroke="white" stroke-width="1.53805" stroke-miterlimit="10"/>
<path d="M27.2397 43.8468L42.4597 40.2117" stroke="white" stroke-width="1.53805" stroke-miterlimit="10"/>
<path d="M29.0039 51.2298L44.2351 47.5947" stroke="white" stroke-width="1.53805" stroke-miterlimit="10"/>
<path d="M14.0527 16.853L13.8657 16.8977L13.9105 17.0846L14.0975 17.04L14.0527 16.853ZM14.8112 16.6719L14.856 16.8589L15.043 16.8142L14.9982 16.6273L14.8112 16.6719ZM14.0588 13.5309L14.2458 13.4862L14.201 13.2993L14.014 13.3439L14.0588 13.5309ZM13.3362 13.7034L13.2914 13.5164L13.2398 13.5288L13.2019 13.5658L13.3362 13.7034ZM12.5439 14.4761L12.4096 14.3384L12.2625 14.4819L12.4156 14.6192L12.5439 14.4761ZM13.0454 14.9256L12.9171 15.0687L13.0496 15.1875L13.1782 15.0647L13.0454 14.9256ZM13.4895 14.5017L13.6765 14.4571L13.5985 14.1318L13.3566 14.3627L13.4895 14.5017ZM14.0975 17.04L14.856 16.8589L14.7664 16.485L14.0079 16.6661L14.0975 17.04ZM14.9982 16.6273L14.2458 13.4862L13.8718 13.5755L14.6242 16.7166L14.9982 16.6273ZM14.014 13.3439L13.2914 13.5164L13.381 13.8904L14.1036 13.7179L14.014 13.3439ZM13.2019 13.5658L12.4096 14.3384L12.6782 14.6137L13.4705 13.841L13.2019 13.5658ZM12.4156 14.6192L12.9171 15.0687L13.1737 14.7825L12.6722 14.333L12.4156 14.6192ZM13.1782 15.0647L13.6223 14.6408L13.3566 14.3627L12.9125 14.7865L13.1782 15.0647ZM13.3025 14.5464L13.8657 16.8977L14.2397 16.8084L13.6765 14.4571L13.3025 14.5464Z" fill="white"/>
<path d="M15.1852 24.4534L14.9982 24.4981L15.043 24.685L15.23 24.6404L15.1852 24.4534ZM17.4112 23.9219L17.456 24.1089L17.643 24.0642L17.5982 23.8773L17.4112 23.9219ZM17.2478 23.2399L17.4348 23.1952L17.39 23.0082L17.203 23.0529L17.2478 23.2399ZM15.9553 23.5485L15.795 23.4422L15.5255 23.8488L16.0001 23.7354L15.9553 23.5485ZM16.4746 22.7651L16.3145 22.6586L16.3143 22.6588L16.4746 22.7651ZM14.4337 22.0095L14.2507 21.9503L14.1919 22.1321L14.3735 22.192L14.4337 22.0095ZM15.1343 22.2407L15.0742 22.4232L15.2587 22.4841L15.3176 22.2991L15.1343 22.2407ZM15.8551 22.4766L15.6943 22.371L15.6934 22.3725L15.8551 22.4766ZM15.0218 23.7714L14.8601 23.6673L14.8157 23.7362L14.8348 23.816L15.0218 23.7714ZM15.23 24.6404L17.456 24.1089L17.3664 23.7349L15.1404 24.2665L15.23 24.6404ZM17.5982 23.8773L17.4348 23.1952L17.0608 23.2845L17.2242 23.9666L17.5982 23.8773ZM17.203 23.0529L15.9105 23.3615L16.0001 23.7354L17.2926 23.4268L17.203 23.0529ZM16.1156 23.6547L16.6349 22.8713L16.3143 22.6588L15.795 23.4422L16.1156 23.6547ZM16.6347 22.8716C16.8374 22.5669 17.0873 22.1008 16.9639 21.5856L16.5899 21.6749C16.6728 22.0213 16.5095 22.3654 16.3145 22.6586L16.6347 22.8716ZM16.9639 21.5856C16.7989 20.8972 16.1356 20.6133 15.4885 20.7678L15.578 21.1417C16.0708 21.024 16.4861 21.2416 16.5899 21.6749L16.9639 21.5856ZM15.4885 20.7678C14.8188 20.9277 14.4335 21.3852 14.2507 21.9503L14.6166 22.0687C14.7664 21.6056 15.0629 21.2647 15.578 21.1417L15.4885 20.7678ZM14.3735 22.192L15.0742 22.4232L15.1945 22.0582L14.4938 21.827L14.3735 22.192ZM15.3176 22.2991C15.4125 22.0007 15.4966 21.8727 15.663 21.833L15.5734 21.4591C15.1833 21.5522 15.0456 21.8851 14.9511 22.1823L15.3176 22.2991ZM15.663 21.833C15.7205 21.8193 15.7585 21.8287 15.7808 21.8417C15.8014 21.8537 15.8275 21.8795 15.8418 21.9389L16.2158 21.8497C16.1806 21.7027 16.0979 21.5814 15.9738 21.5093C15.8514 21.4382 15.7089 21.4267 15.5734 21.4591L15.663 21.833ZM15.8418 21.9389C15.869 22.0528 15.814 22.1887 15.6943 22.371L16.0159 22.5821C16.1326 22.4044 16.2852 22.1397 16.2158 21.8497L15.8418 21.9389ZM15.6934 22.3725L14.8601 23.6673L15.1835 23.8754L16.0168 22.5806L15.6934 22.3725ZM14.8348 23.816L14.9982 24.4981L15.3722 24.4088L15.2088 23.7267L14.8348 23.816Z" fill="white"/>
<path d="M18.3898 29.7821L18.2389 29.6628L18.0617 29.8869L18.3362 29.9667L18.3898 29.7821ZM16.297 29.2856L16.1153 29.2226L16.0516 29.4065L16.2365 29.468L16.297 29.2856ZM17.0032 29.5202L16.9427 29.7026L17.1266 29.7637L17.1862 29.5794L17.0032 29.5202ZM17.0286 29.7845L16.9838 29.5975L16.7968 29.6422L16.8416 29.8292L17.0286 29.7845ZM17.1898 30.4576L17.0028 30.5022L17.0476 30.6892L17.2346 30.6446L17.1898 30.4576ZM17.184 30.7104L17.3338 30.59L17.1994 30.4229L17.0479 30.5745L17.184 30.7104ZM16.6176 31.2773L16.4815 31.1415L16.3514 31.2716L16.476 31.4073L16.6176 31.2773ZM19.2138 30.3965C19.1176 29.9948 18.8387 29.7125 18.4433 29.5975L18.3362 29.9667C18.6038 30.0445 18.777 30.2235 18.8399 30.4858L19.2138 30.3965ZM18.5406 29.9014C18.7507 29.6358 18.816 29.3099 18.7344 28.9693L18.3604 29.0586C18.4163 29.2923 18.3711 29.4956 18.2389 29.6628L18.5406 29.9014ZM18.7344 28.9693C18.6577 28.6493 18.4575 28.4151 18.1845 28.2872C17.9161 28.1614 17.59 28.1435 17.2571 28.223L17.3467 28.5969C17.6152 28.5328 17.8489 28.5544 18.0215 28.6352C18.1894 28.714 18.3112 28.8535 18.3604 29.0586L18.7344 28.9693ZM17.2571 28.223C16.6455 28.369 16.2854 28.7316 16.1153 29.2226L16.4787 29.3486C16.606 28.9811 16.8632 28.7124 17.3467 28.5969L17.2571 28.223ZM16.2365 29.468L16.9427 29.7026L17.0638 29.3378L16.3576 29.1031L16.2365 29.468ZM17.1862 29.5794C17.2164 29.4861 17.2495 29.4214 17.2888 29.3763C17.3249 29.3348 17.3728 29.3023 17.4496 29.2839L17.36 28.91C17.2079 28.9463 17.0891 29.02 16.9987 29.1237C16.9115 29.2239 16.8583 29.3434 16.8203 29.4609L17.1862 29.5794ZM17.4496 29.2839C17.5164 29.268 17.5569 29.2765 17.5756 29.2854C17.5885 29.2915 17.6027 29.3023 17.611 29.3371L17.985 29.2478C17.9514 29.1076 17.8655 28.9976 17.7405 28.9382C17.6213 28.8816 17.4862 28.8799 17.36 28.91L17.4496 29.2839ZM17.611 29.3371C17.6203 29.376 17.6115 29.3962 17.5967 29.4137C17.5763 29.4378 17.5332 29.4664 17.464 29.4829L17.5536 29.8568C17.6774 29.8273 17.8026 29.7659 17.8904 29.6621C17.9837 29.5518 18.023 29.4064 17.985 29.2478L17.611 29.3371ZM17.464 29.4829L16.9838 29.5975L17.0734 29.9715L17.5536 29.8568L17.464 29.4829ZM16.8416 29.8292L17.0028 30.5022L17.3768 30.4129L17.2156 29.7399L16.8416 29.8292ZM17.2346 30.6446L17.7373 30.5245L17.6477 30.1506L17.1451 30.2706L17.2346 30.6446ZM17.7373 30.5245C17.8487 30.4979 17.9293 30.5062 17.9781 30.5268C18.0186 30.544 18.0497 30.5741 18.0649 30.6377L18.4389 30.5484C18.3961 30.3696 18.2843 30.2393 18.1281 30.173C17.9801 30.1102 17.81 30.1118 17.6477 30.1506L17.7373 30.5245ZM18.0649 30.6377C18.0785 30.6945 18.067 30.7398 18.0413 30.7759C18.0139 30.8143 17.9616 30.8537 17.8778 30.8736L17.9674 31.2476C18.1261 31.2097 18.2647 31.1252 18.3545 30.9992C18.4459 30.871 18.4779 30.7114 18.4389 30.5484L18.0649 30.6377ZM17.8778 30.8736C17.7757 30.898 17.698 30.8883 17.6229 30.8516C17.5407 30.8114 17.4478 30.7318 17.3338 30.59L17.0342 30.8308C17.1634 30.9915 17.2985 31.1208 17.4541 31.1969C17.6168 31.2765 17.7869 31.2907 17.9674 31.2476L17.8778 30.8736ZM17.0479 30.5745L16.4815 31.1415L16.7537 31.4132L17.3201 30.8463L17.0479 30.5745ZM16.476 31.4073C16.6817 31.6313 16.9186 31.8044 17.1976 31.8982C17.4777 31.9924 17.7868 32.0023 18.1287 31.9207L18.0391 31.5467C17.7572 31.614 17.5224 31.6019 17.32 31.5339C17.1165 31.4654 16.9322 31.3358 16.7592 31.1474L16.476 31.4073ZM18.1287 31.9207C18.5026 31.8314 18.8175 31.641 19.0186 31.3726C19.2222 31.1011 19.3009 30.7598 19.2138 30.3965L18.8399 30.4858C18.9001 30.7373 18.8461 30.9614 18.7108 31.142C18.5731 31.3257 18.3428 31.4742 18.0391 31.5467L18.1287 31.9207Z" fill="white"/>
<path d="M18.4951 38.5812L18.3081 38.6259L18.3529 38.8129L18.5399 38.7682L18.4951 38.5812ZM19.8549 38.2566L20.0419 38.2119L19.9972 38.0249L19.8102 38.0696L19.8549 38.2566ZM20.042 39.0373L19.855 39.082L19.8998 39.2689L20.0868 39.2243L20.042 39.0373ZM20.8004 38.8562L20.8452 39.0432L21.0322 38.9985L20.9874 38.8116L20.8004 38.8562ZM20.6134 38.0755L20.5686 37.8885L20.3816 37.9331L20.4264 38.1201L20.6134 38.0755ZM20.9006 38.0069L20.9454 38.1938L21.1324 38.1492L21.0876 37.9622L20.9006 38.0069ZM20.7373 37.3248L20.9243 37.2802L20.8795 37.0932L20.6925 37.1379L20.7373 37.3248ZM20.45 37.3934L20.263 37.438L20.3078 37.625L20.4948 37.5804L20.45 37.3934ZM20.048 35.7152L20.235 35.6705L20.1902 35.4836L20.0032 35.5282L20.048 35.7152ZM19.1774 35.9231L19.1326 35.7361L19.0386 35.7586L19.0006 35.8474L19.1774 35.9231ZM18.3317 37.8992L18.1549 37.8235L18.1299 37.882L18.1447 37.9438L18.3317 37.8992ZM19.0902 37.7181L18.914 37.6408L18.7588 37.9949L19.135 37.9051L19.0902 37.7181ZM19.5013 36.7803L19.6883 36.7356L19.5549 36.1789L19.3252 36.703L19.5013 36.7803ZM19.6916 37.5745L19.7364 37.7615L19.9233 37.7168L19.8786 37.5298L19.6916 37.5745ZM18.5399 38.7682L19.8997 38.4435L19.8102 38.0696L18.4503 38.3943L18.5399 38.7682ZM19.6679 38.3012L19.855 39.082L20.229 38.9927L20.0419 38.2119L19.6679 38.3012ZM20.0868 39.2243L20.8452 39.0432L20.7557 38.6693L19.9972 38.8504L20.0868 39.2243ZM20.9874 38.8116L20.8004 38.0308L20.4264 38.1201L20.6135 38.9009L20.9874 38.8116ZM20.6582 38.2624L20.9454 38.1938L20.8559 37.8199L20.5686 37.8885L20.6582 38.2624ZM21.0876 37.9622L20.9243 37.2802L20.5503 37.3695L20.7137 38.0515L21.0876 37.9622ZM20.6925 37.1379L20.4052 37.2064L20.4948 37.5804L20.7821 37.5118L20.6925 37.1379ZM20.637 37.3487L20.235 35.6705L19.861 35.7598L20.263 37.438L20.637 37.3487ZM20.0032 35.5282L19.1326 35.7361L19.2221 36.11L20.0928 35.9022L20.0032 35.5282ZM19.0006 35.8474L18.1549 37.8235L18.5085 37.9749L19.3542 35.9988L19.0006 35.8474ZM18.1447 37.9438L18.3081 38.6259L18.6821 38.5366L18.5187 37.8545L18.1447 37.9438ZM19.2663 37.7953L19.6774 36.8575L19.3252 36.703L18.914 37.6408L19.2663 37.7953ZM19.3143 36.8249L19.5046 37.6191L19.8786 37.5298L19.6883 36.7356L19.3143 36.8249ZM19.6468 37.3875L19.0454 37.5311L19.135 37.9051L19.7364 37.7615L19.6468 37.3875Z" fill="white"/>
<path d="M20.3524 45.4319L20.1634 45.4673L20.2008 45.6657L20.3972 45.6188L20.3524 45.4319ZM20.7595 45.5861L20.9086 45.4649L20.774 45.2994L20.6234 45.4502L20.7595 45.5861ZM20.193 46.153L20.057 46.0172L19.9274 46.1468L20.0509 46.2824L20.193 46.153ZM20.98 44.5657L20.7907 44.5994L20.8266 44.8L21.0248 44.7527L20.98 44.5657ZM20.8962 44.0971L20.8514 43.9101L20.675 43.9522L20.7069 44.1308L20.8962 44.0971ZM22.1529 43.797L22.1976 43.984L22.3846 43.9394L22.3399 43.7524L22.1529 43.797ZM21.9895 43.115L22.1765 43.0703L22.1317 42.8834L21.9447 42.928L21.9895 43.115ZM20.0058 43.5886L19.961 43.4017L19.783 43.4442L19.8168 43.624L20.0058 43.5886ZM20.3972 45.6188L21.2365 45.4184L21.1469 45.0445L20.3076 45.2449L20.3972 45.6188ZM21.2365 45.4184C21.3979 45.3799 21.4987 45.386 21.5546 45.4064C21.5959 45.4214 21.6245 45.4471 21.6404 45.5133L22.0144 45.424C21.9711 45.2435 21.8592 45.1082 21.686 45.0452C21.5275 44.9875 21.34 44.9984 21.1469 45.0445L21.2365 45.4184ZM21.6404 45.5133C21.6547 45.5734 21.6431 45.6185 21.6194 45.6525C21.5943 45.6886 21.5443 45.7276 21.4578 45.7483L21.5474 46.1222C21.7077 46.0839 21.8465 45.9996 21.9352 45.8722C22.0253 45.7426 22.0526 45.5839 22.0144 45.424L21.6404 45.5133ZM21.4578 45.7483C21.36 45.7716 21.2817 45.7631 21.2041 45.7263C21.1202 45.6864 21.0243 45.6071 20.9086 45.4649L20.6103 45.7073C20.7435 45.871 20.8823 45.9989 21.0392 46.0735C21.2026 46.1511 21.3714 46.1642 21.5474 46.1222L21.4578 45.7483ZM20.6234 45.4502L20.057 46.0172L20.3291 46.2889L20.8956 45.722L20.6234 45.4502ZM20.0509 46.2824C20.2584 46.5102 20.4993 46.6822 20.7803 46.7747C21.062 46.8673 21.3714 46.8758 21.7086 46.7953L21.619 46.4213C21.3414 46.4876 21.1053 46.4769 20.9003 46.4095C20.6945 46.3418 20.5075 46.2128 20.3352 46.0237L20.0509 46.2824ZM21.7086 46.7953C22.0776 46.7072 22.3929 46.5132 22.5932 46.2332C22.7957 45.9502 22.8708 45.5924 22.7777 45.2038L22.4037 45.2931C22.4719 45.5777 22.4156 45.8205 22.2804 46.0094C22.143 46.2015 21.9143 46.3509 21.619 46.4213L21.7086 46.7953ZM22.7777 45.2038C22.6914 44.8435 22.5097 44.5557 22.1954 44.4009C21.8896 44.2503 21.496 44.2448 21.025 44.3573L21.1145 44.7312C21.5456 44.6283 21.8351 44.6519 22.0256 44.7457C22.2075 44.8353 22.3352 45.0074 22.4037 45.2931L22.7777 45.2038ZM21.025 44.3573L20.9352 44.3787L21.0248 44.7527L21.1145 44.7312L21.025 44.3573ZM21.1693 44.532L21.0855 44.0634L20.7069 44.1308L20.7907 44.5994L21.1693 44.532ZM20.941 44.2841L22.1976 43.984L22.1081 43.6101L20.8514 43.9101L20.941 44.2841ZM22.3399 43.7524L22.1765 43.0703L21.8025 43.1596L21.9659 43.8417L22.3399 43.7524ZM21.9447 42.928L19.961 43.4017L20.0506 43.7756L22.0343 43.302L21.9447 42.928ZM19.8168 43.624L20.1634 45.4673L20.5414 45.3965L20.1948 43.5532L19.8168 43.624Z" fill="white"/>
<path d="M22.5439 52.2357L22.3534 52.2612L22.4121 52.6984L22.6924 52.3579L22.5439 52.2357ZM23.5906 51.5541L23.4787 51.7104L23.6324 51.8203L23.7449 51.6688L23.5906 51.5541ZM24.0534 50.9313L24.2078 51.046L24.3209 50.8937L24.1701 50.7786L24.0534 50.9313ZM22.7285 52.9269L22.5548 52.8444L22.5182 52.9215L22.5509 53.0004L22.7285 52.9269ZM22.7943 50.5077C22.2402 50.64 21.8726 50.9314 21.6863 51.3419C21.5042 51.7429 21.5091 52.2268 21.6283 52.7247L22.0023 52.6354C21.8937 52.182 21.9033 51.7944 22.0365 51.501C22.1654 51.2171 22.4236 50.9915 22.8838 50.8816L22.7943 50.5077ZM21.6283 52.7247C21.756 53.2576 21.9828 53.6937 22.3168 53.9682C22.6584 54.2489 23.0907 54.3427 23.5805 54.2257L23.4909 53.8518C23.1056 53.9438 22.7997 53.8675 22.5609 53.6713C22.3145 53.4688 22.1187 53.1212 22.0023 52.6354L21.6283 52.7247ZM23.5805 54.2257C23.9985 54.1259 24.3121 53.902 24.4984 53.6041C24.6842 53.307 24.7347 52.95 24.651 52.6007L24.277 52.69C24.3385 52.9465 24.2995 53.1967 24.1723 53.4001C24.0455 53.6028 23.8225 53.7726 23.4909 53.8518L23.5805 54.2257ZM24.651 52.6007C24.5707 52.2653 24.3851 51.9843 24.1149 51.8108C23.8433 51.6365 23.5026 51.5815 23.1342 51.6694L23.2238 52.0433C23.5017 51.977 23.7331 52.0225 23.9072 52.1343C24.0828 52.247 24.2166 52.4376 24.277 52.69L24.651 52.6007ZM23.1342 51.6694C22.819 51.7447 22.575 51.8953 22.3954 52.1135L22.6924 52.3579C22.8142 52.21 22.9825 52.1009 23.2238 52.0433L23.1342 51.6694ZM22.7345 52.2102C22.7039 51.9825 22.7294 51.8359 22.7785 51.7442C22.8235 51.6603 22.901 51.5986 23.0382 51.5658L22.9487 51.1919C22.7269 51.2448 22.5463 51.3633 22.4395 51.5624C22.337 51.7536 22.3173 51.9925 22.3534 52.2612L22.7345 52.2102ZM23.0382 51.5658C23.1725 51.5338 23.2995 51.5822 23.4787 51.7104L23.7024 51.3978C23.5037 51.2557 23.2542 51.1189 22.9487 51.1919L23.0382 51.5658ZM23.7449 51.6688L24.2078 51.046L23.899 50.8166L23.4362 51.4394L23.7449 51.6688ZM24.1701 50.7786C23.8777 50.5552 23.4127 50.36 22.7943 50.5077L22.8838 50.8816C23.3694 50.7657 23.7181 50.917 23.9367 51.084L24.1701 50.7786ZM23.2314 52.7484C23.3178 52.7277 23.3779 52.7413 23.4159 52.7636C23.4531 52.7854 23.4891 52.8271 23.5071 52.9023L23.8811 52.813C23.8421 52.6504 23.7499 52.514 23.6105 52.4321C23.4719 52.3507 23.3067 52.3351 23.1418 52.3744L23.2314 52.7484ZM23.5071 52.9023C23.5244 52.9746 23.5113 53.029 23.4851 53.0684C23.4582 53.1091 23.4055 53.1511 23.3141 53.173L23.4037 53.5469C23.5725 53.5066 23.716 53.4164 23.8058 53.2809C23.8964 53.1442 23.9207 52.9786 23.8811 52.813L23.5071 52.9023ZM23.3141 53.173C23.222 53.1949 23.1605 53.1827 23.1087 53.1488C23.0495 53.11 22.9776 53.0258 22.9061 52.8535L22.5509 53.0004C22.6369 53.2079 22.7477 53.3718 22.8981 53.4703C23.056 53.5738 23.231 53.5881 23.4037 53.5469L23.3141 53.173ZM22.9022 53.0095C22.9674 52.8723 23.0783 52.7849 23.2314 52.7484L23.1418 52.3744C22.882 52.4365 22.6726 52.5964 22.5548 52.8444L22.9022 53.0095Z" fill="white"/>
<path d="M85.8758 18.8587L47.708 13.0073L39.3946 67.0581L77.5624 72.9095L85.8758 18.8587Z" fill="#D6411E" stroke="white" stroke-width="1.71001" stroke-miterlimit="10"/>
<path d="M63.7402 24.0684L79.2089 26.4391" stroke="white" stroke-width="1.53805" stroke-miterlimit="10"/>
<path d="M62.5869 31.5643L78.0556 33.935" stroke="white" stroke-width="1.53805" stroke-miterlimit="10"/>
<path d="M61.4336 39.0602L76.9023 41.4309" stroke="white" stroke-width="1.53805" stroke-miterlimit="10"/>
<path d="M60.2803 46.5562L75.7489 48.9269" stroke="white" stroke-width="1.53805" stroke-miterlimit="10"/>
<path d="M59.127 54.0521L74.5956 56.4228" stroke="white" stroke-width="1.53805" stroke-miterlimit="10"/>
<path d="M57.9736 61.5481L73.4423 63.9188" stroke="white" stroke-width="1.53805" stroke-miterlimit="10"/>
<path d="M57.0523 23.9977L56.8619 23.9689L56.833 24.1592L57.0234 24.188L57.0523 23.9977ZM57.8243 24.1145L57.7954 24.3048L57.9857 24.3336L58.0146 24.1433L57.8243 24.1145ZM58.3095 20.917L58.4999 20.9458L58.5288 20.7554L58.3384 20.7267L58.3095 20.917ZM57.5741 20.8057L57.6029 20.6154L57.5504 20.6075L57.5013 20.6276L57.5741 20.8057ZM56.5478 21.2252L56.475 21.047L56.2844 21.1249L56.3748 21.3098L56.5478 21.2252ZM56.8437 21.8307L56.6707 21.9153L56.749 22.0753L56.9146 22.0097L56.8437 21.8307ZM57.4155 21.6041L57.6058 21.6329L57.6561 21.3018L57.3446 21.4252L57.4155 21.6041ZM57.0234 24.188L57.7954 24.3048L57.8532 23.9241L57.0811 23.8074L57.0234 24.188ZM58.0146 24.1433L58.4999 20.9458L58.1192 20.8882L57.6339 24.0857L58.0146 24.1433ZM58.3384 20.7267L57.6029 20.6154L57.5452 20.9961L58.2807 21.1073L58.3384 20.7267ZM57.5013 20.6276L56.475 21.047L56.6205 21.4034L57.6468 20.9839L57.5013 20.6276ZM56.3748 21.3098L56.6707 21.9153L57.0167 21.7461L56.7207 21.1406L56.3748 21.3098ZM56.9146 22.0097L57.4864 21.7831L57.3446 21.4252L56.7729 21.6518L56.9146 22.0097ZM57.2252 21.5753L56.8619 23.9689L57.2426 24.0265L57.6058 21.6329L57.2252 21.5753Z" fill="white"/>
<path d="M55.2196 31.4763L55.0292 31.4475L55.0003 31.6379L55.1907 31.6666L55.2196 31.4763ZM57.4854 31.8191L57.4565 32.0094L57.6468 32.0382L57.6757 31.8479L57.4854 31.8191ZM57.5908 31.1248L57.7811 31.1535L57.81 30.9632L57.6196 30.9344L57.5908 31.1248ZM56.2751 30.9257L56.1664 30.7669L55.7632 31.043L56.2462 31.1161L56.2751 30.9257ZM57.0521 30.3938L56.9437 30.2348L56.9434 30.235L57.0521 30.3938ZM55.443 28.9261L55.2956 28.8024L55.1725 28.9491L55.3184 29.0729L55.443 28.9261ZM56.0061 29.4038L55.8815 29.5506L56.0298 29.6764L56.1541 29.5268L56.0061 29.4038ZM56.586 29.8934L56.4766 29.735L56.4752 29.736L56.586 29.8934ZM55.3249 30.782L55.2141 30.6247L55.1469 30.672L55.1346 30.7532L55.3249 30.782ZM55.1907 31.6666L57.4565 32.0094L57.5143 31.6287L55.2485 31.286L55.1907 31.6666ZM57.6757 31.8479L57.7811 31.1535L57.4004 31.096L57.295 31.7903L57.6757 31.8479ZM57.6196 30.9344L56.304 30.7354L56.2462 31.1161L57.5619 31.3151L57.6196 30.9344ZM56.3838 31.0845L57.1609 30.5526L56.9434 30.235L56.1664 30.7669L56.3838 31.0845ZM57.1606 30.5528C57.4635 30.3461 57.8709 30.0074 57.9505 29.483L57.5698 29.4254C57.5163 29.778 57.2351 30.036 56.9437 30.2348L57.1606 30.5528ZM57.9505 29.483C58.0569 28.7822 57.5483 28.2695 56.8896 28.1699L56.8319 28.5506C57.3335 28.6264 57.6368 28.9843 57.5698 29.4254L57.9505 29.483ZM56.8896 28.1699C56.208 28.0668 55.6781 28.3467 55.2956 28.8024L55.5905 29.0498C55.904 28.6763 56.3075 28.4712 56.8319 28.5506L56.8896 28.1699ZM55.3184 29.0729L55.8815 29.5506L56.1307 29.257L55.5676 28.7793L55.3184 29.0729ZM56.1541 29.5268C56.3546 29.2856 56.4808 29.1984 56.6502 29.224L56.708 28.8433C56.3109 28.7833 56.0577 29.0405 55.858 29.2808L56.1541 29.5268ZM56.6502 29.224C56.7087 29.2328 56.7405 29.2559 56.7563 29.2763C56.7709 29.2951 56.7854 29.3289 56.7762 29.3895L57.1569 29.447C57.1796 29.2974 57.1486 29.1538 57.0606 29.0403C56.9738 28.9283 56.8459 28.8642 56.708 28.8433L56.6502 29.224ZM56.7762 29.3895C56.7586 29.5053 56.6563 29.6108 56.4766 29.735L56.6954 30.0517C56.8707 29.9306 57.1121 29.7423 57.1569 29.447L56.7762 29.3895ZM56.4752 29.736L55.2141 30.6247L55.4358 30.9393L56.6969 30.0507L56.4752 29.736ZM55.1346 30.7532L55.0292 31.4475L55.4099 31.5051L55.5153 30.8108L55.1346 30.7532Z" fill="white"/>
<path d="M56.1704 37.6031L56.0753 37.4357L55.8264 37.5771L56.0511 37.7542L56.1704 37.6031ZM54.4156 36.3564L54.2707 36.2297L54.1423 36.3765L54.2907 36.5029L54.4156 36.3564ZM54.9825 36.8393L54.8576 36.9859L55.0052 37.1116L55.13 36.963L54.9825 36.8393ZM54.9064 37.0941L54.9353 36.9038L54.745 36.875L54.7161 37.0654L54.9064 37.0941ZM54.8024 37.7793L54.6121 37.7505L54.5832 37.9409L54.7736 37.9697L54.8024 37.7793ZM54.7017 38.0117L54.8861 37.9563L54.8244 37.7507L54.6267 37.8345L54.7017 38.0117ZM53.9626 38.3251L53.8875 38.1479L53.7177 38.2199L53.7822 38.3926L53.9626 38.3251ZM56.7035 38.4828C56.7656 38.0738 56.6132 37.7071 56.2896 37.4519L56.0511 37.7542C56.2701 37.9269 56.3634 38.1581 56.3229 38.4252L56.7035 38.4828ZM56.2654 37.7704C56.5604 37.6028 56.7437 37.3249 56.7964 36.9782L56.4157 36.9206C56.3796 37.1585 56.261 37.3303 56.0753 37.4357L56.2654 37.7704ZM56.7964 36.9782C56.8458 36.6525 56.7482 36.3599 56.5432 36.1387C56.3415 35.9212 56.0457 35.7821 55.7068 35.7309L55.649 36.1115C55.9223 36.1528 56.1311 36.2607 56.2607 36.4005C56.3869 36.5366 56.4474 36.7119 56.4157 36.9206L56.7964 36.9782ZM55.7068 35.7309C55.0843 35.6367 54.6135 35.8379 54.2707 36.2297L54.5604 36.4831C54.817 36.1899 55.1569 36.0371 55.649 36.1115L55.7068 35.7309ZM54.2907 36.5029L54.8576 36.9859L55.1074 36.6928L54.5405 36.2098L54.2907 36.5029ZM55.13 36.963C55.1931 36.8878 55.2482 36.8401 55.3016 36.813C55.3508 36.7881 55.4075 36.7759 55.4857 36.7877L55.5434 36.4071C55.3886 36.3836 55.2506 36.4074 55.1276 36.4697C55.0089 36.5299 54.9145 36.6208 54.835 36.7156L55.13 36.963ZM55.4857 36.7877C55.5537 36.798 55.588 36.8211 55.602 36.8364C55.6117 36.8469 55.6208 36.8623 55.6154 36.8977L55.9961 36.9553C56.0177 36.8125 55.9794 36.6782 55.8859 36.5761C55.7966 36.4788 55.6718 36.4265 55.5434 36.4071L55.4857 36.7877ZM55.6154 36.8977C55.6094 36.9372 55.5936 36.9527 55.5732 36.9634C55.5453 36.9781 55.4945 36.9884 55.4241 36.9778L55.3663 37.3584C55.4924 37.3775 55.6316 37.3675 55.7522 37.3042C55.8803 37.2369 55.9716 37.1167 55.9961 36.9553L55.6154 36.8977ZM55.4241 36.9778L54.9353 36.9038L54.8775 37.2845L55.3663 37.3584L55.4241 36.9778ZM54.7161 37.0654L54.6121 37.7505L54.9928 37.8081L55.0968 37.1229L54.7161 37.0654ZM54.7736 37.9697L55.2852 38.047L55.343 37.6664L54.8313 37.589L54.7736 37.9697ZM55.2852 38.047C55.3986 38.0642 55.4703 38.1021 55.5077 38.1396C55.5389 38.1708 55.5564 38.2103 55.5466 38.275L55.9272 38.3326C55.9548 38.1507 55.9003 37.9877 55.7803 37.8676C55.6666 37.7537 55.5082 37.6914 55.343 37.6664L55.2852 38.047ZM55.5466 38.275C55.5378 38.3329 55.5101 38.3707 55.4726 38.3945C55.4327 38.4199 55.3693 38.4367 55.2841 38.4238L55.2263 38.8045C55.3878 38.8289 55.5483 38.8025 55.6791 38.7193C55.8122 38.6347 55.9021 38.4986 55.9272 38.3326L55.5466 38.275ZM55.2841 38.4238C55.1801 38.4081 55.1117 38.3699 55.0559 38.3076C54.9947 38.2394 54.9385 38.1307 54.8861 37.9563L54.5174 38.0672C54.5767 38.2649 54.6534 38.4356 54.7691 38.5646C54.8901 38.6997 55.0425 38.7767 55.2263 38.8045L55.2841 38.4238ZM54.6267 37.8345L53.8875 38.1479L54.0377 38.5024L54.7768 38.189L54.6267 37.8345ZM53.7822 38.3926C53.8887 38.6777 54.0433 38.9273 54.2669 39.1191C54.4913 39.3118 54.7743 39.437 55.1223 39.4896L55.1801 39.109C54.8931 39.0656 54.6799 38.9662 54.5177 38.827C54.3547 38.6871 54.2325 38.4975 54.1429 38.2577L53.7822 38.3926ZM55.1223 39.4896C55.503 39.5472 55.8668 39.4888 56.1546 39.3153C56.4458 39.1397 56.6474 38.8526 56.7035 38.4828L56.3229 38.4252C56.284 38.6812 56.1495 38.8689 55.9559 38.9856C55.7589 39.1044 55.4893 39.1558 55.1801 39.109L55.1223 39.4896Z" fill="white"/>
<path d="M52.9334 45.7972L52.7431 45.7684L52.7142 45.9587L52.9045 45.9875L52.9334 45.7972ZM54.3176 46.0066L54.5079 46.0354L54.5368 45.8451L54.3465 45.8163L54.3176 46.0066ZM54.197 46.8014L54.0066 46.7726L53.9777 46.9629L54.1681 46.9917L54.197 46.8014ZM54.969 46.9182L54.9401 47.1085L55.1304 47.1373L55.1593 46.947L54.969 46.9182ZM55.0896 46.1234L55.1185 45.933L54.9282 45.9043L54.8993 46.0946L55.0896 46.1234ZM55.382 46.1676L55.3531 46.3579L55.5434 46.3867L55.5723 46.1964L55.382 46.1676ZM55.4873 45.4733L55.6777 45.5021L55.7066 45.3118L55.5162 45.283L55.4873 45.4733ZM55.195 45.4291L55.0046 45.4003L54.9758 45.5906L55.1661 45.6194L55.195 45.4291ZM55.4542 43.7207L55.6446 43.7495L55.6735 43.5592L55.4831 43.5304L55.4542 43.7207ZM54.568 43.5866L54.5969 43.3963L54.5012 43.3818L54.4325 43.45L54.568 43.5866ZM53.0388 45.1029L52.9033 44.9662L52.858 45.0111L52.8485 45.0741L53.0388 45.1029ZM53.8108 45.2197L53.6765 45.0818L53.3991 45.3521L53.7819 45.41L53.8108 45.2197ZM54.5457 44.5038L54.736 44.5326L54.822 43.9658L54.4113 44.3659L54.5457 44.5038ZM54.423 45.3123L54.3941 45.5026L54.5844 45.5314L54.6133 45.3411L54.423 45.3123ZM52.9045 45.9875L54.2887 46.1969L54.3465 45.8163L52.9623 45.6069L52.9045 45.9875ZM54.1273 45.9778L54.0066 46.7726L54.3873 46.8302L54.5079 46.0354L54.1273 45.9778ZM54.1681 46.9917L54.9401 47.1085L54.9979 46.7278L54.2259 46.6111L54.1681 46.9917ZM55.1593 46.947L55.28 46.1522L54.8993 46.0946L54.7787 46.8894L55.1593 46.947ZM55.0607 46.3137L55.3531 46.3579L55.4109 45.9773L55.1185 45.933L55.0607 46.3137ZM55.5723 46.1964L55.6777 45.5021L55.297 45.4445L55.1916 46.1388L55.5723 46.1964ZM55.5162 45.283L55.2239 45.2387L55.1661 45.6194L55.4585 45.6636L55.5162 45.283ZM55.3853 45.4579L55.6446 43.7495L55.2639 43.6919L55.0046 45.4003L55.3853 45.4579ZM55.4831 43.5304L54.5969 43.3963L54.5391 43.777L55.4254 43.911L55.4831 43.5304ZM54.4325 43.45L52.9033 44.9662L53.1743 45.2395L54.7036 43.7233L54.4325 43.45ZM52.8485 45.0741L52.7431 45.7684L53.1238 45.826L53.2291 45.1317L52.8485 45.0741ZM53.9451 45.3575L54.68 44.6416L54.4113 44.3659L53.6765 45.0818L53.9451 45.3575ZM54.3553 44.475L54.2326 45.2835L54.6133 45.3411L54.736 44.5326L54.3553 44.475ZM54.4518 45.122L53.8397 45.0294L53.7819 45.41L54.3941 45.5026L54.4518 45.122Z" fill="white"/>
<path d="M52.0668 52.8453L51.8781 52.8071L51.8379 53.0053L52.0379 53.0356L52.0668 52.8453ZM52.3863 53.1413L52.5704 53.0848L52.5079 52.8807L52.3113 52.9641L52.3863 53.1413ZM51.6472 53.4547L51.5721 53.2775L51.403 53.3491L51.4665 53.5214L51.6472 53.4547ZM52.9754 52.2771L52.7871 52.2373L52.7448 52.4369L52.9466 52.4675L52.9754 52.2771ZM53.0743 51.8108L53.1031 51.6205L52.9236 51.5933L52.8859 51.771L53.0743 51.8108ZM54.3533 52.0043L54.3245 52.1946L54.5148 52.2234L54.5437 52.0331L54.3533 52.0043ZM54.4587 51.31L54.6491 51.3388L54.6779 51.1484L54.4876 51.1196L54.4587 51.31ZM52.4396 51.0045L52.4685 50.8142L52.2873 50.7868L52.2509 50.9664L52.4396 51.0045ZM52.0379 53.0356L52.8921 53.1648L52.9499 52.7842L52.0957 52.6549L52.0379 53.0356ZM52.8921 53.1648C53.0565 53.1897 53.1476 53.2332 53.1919 53.2731C53.2245 53.3026 53.2414 53.3371 53.2312 53.4046L53.6118 53.4621C53.6397 53.2783 53.5868 53.1108 53.4499 52.9872C53.3246 52.8742 53.1464 52.8139 52.9499 52.7842L52.8921 53.1648ZM53.2312 53.4046C53.2219 53.4657 53.1941 53.5031 53.1593 53.5258C53.1224 53.5499 53.0613 53.5673 52.9733 53.554L52.9155 53.9347C53.0787 53.9594 53.2392 53.9332 53.3695 53.8483C53.502 53.7619 53.5871 53.6249 53.6118 53.4621L53.2312 53.4046ZM52.9733 53.554C52.8737 53.539 52.8042 53.5017 52.7461 53.4383C52.6833 53.3698 52.6242 53.2602 52.5704 53.0848L52.2023 53.1977C52.2642 53.3996 52.3448 53.5705 52.4623 53.6986C52.5847 53.832 52.7364 53.9076 52.9155 53.9347L52.9733 53.554ZM52.3113 52.9641L51.5721 53.2775L51.7223 53.6319L52.4614 53.3185L52.3113 52.9641ZM51.4665 53.5214C51.5733 53.8106 51.732 54.0608 51.9579 54.2521C52.1843 54.4438 52.4683 54.5679 52.8115 54.6198L52.8693 54.2392C52.5867 54.1964 52.3717 54.0979 52.2068 53.9583C52.0414 53.8182 51.9164 53.6282 51.8278 53.388L51.4665 53.5214ZM52.8115 54.6198C53.1871 54.6767 53.5528 54.6151 53.8441 54.4305C54.1387 54.2438 54.3431 53.94 54.4031 53.5445L54.0224 53.4869C53.9785 53.7765 53.8347 53.9807 53.6381 54.1053C53.4383 54.2319 53.1698 54.2847 52.8693 54.2392L52.8115 54.6198ZM54.4031 53.5445C54.4588 53.1776 54.3986 52.8423 54.1653 52.5806C53.9383 52.326 53.5751 52.1732 53.0957 52.1006L53.0379 52.4813C53.4767 52.5477 53.7364 52.6783 53.8778 52.8369C54.0129 52.9884 54.0666 53.196 54.0224 53.4869L54.4031 53.5445ZM53.0957 52.1006L53.0043 52.0868L52.9466 52.4675L53.0379 52.4813L53.0957 52.1006ZM53.1638 52.317L53.2626 51.8506L52.8859 51.771L52.7871 52.2373L53.1638 52.317ZM53.0454 52.0011L54.3245 52.1946L54.3822 51.814L53.1031 51.6205L53.0454 52.0011ZM54.5437 52.0331L54.6491 51.3388L54.2684 51.2812L54.163 51.9755L54.5437 52.0331ZM54.4876 51.1196L52.4685 50.8142L52.4107 51.1949L54.4298 51.5003L54.4876 51.1196ZM52.2509 50.9664L51.8781 52.8071L52.2555 52.8834L52.6283 51.0427L52.2509 50.9664Z" fill="white"/>
<path d="M51.5212 59.9605L51.3348 59.9126L51.2246 60.3404L51.6129 60.1297L51.5212 59.9605ZM52.7492 59.7211L52.5865 59.8241L52.6877 59.9838L52.8492 59.8855L52.7492 59.7211ZM53.4133 59.3169L53.5134 59.4813L53.6757 59.3825L53.5791 59.219L53.4133 59.3169ZM51.432 60.6713L51.3019 60.5295L51.2389 60.5873L51.2395 60.6728L51.432 60.6713ZM52.4045 58.4509C51.8405 58.3656 51.3897 58.498 51.0621 58.809C50.7421 59.1127 50.5643 59.5637 50.4873 60.0705L50.868 60.1281C50.9381 59.6665 51.093 59.3104 51.3271 59.0881C51.5537 58.8731 51.8783 58.7607 52.3468 58.8316L52.4045 58.4509ZM50.4873 60.0705C50.405 60.6129 50.4511 61.1029 50.6577 61.483C50.8689 61.8718 51.2347 62.1212 51.7333 62.1966L51.791 61.8159C51.3988 61.7566 51.1437 61.571 50.996 61.2991C50.8437 61.0187 50.793 60.6226 50.868 60.1281L50.4873 60.0705ZM51.7333 62.1966C52.1587 62.2609 52.5341 62.1709 52.8192 61.9644C53.1035 61.7585 53.2849 61.4462 53.3389 61.0906L52.9582 61.033C52.9186 61.2941 52.7882 61.5117 52.5934 61.6527C52.3995 61.7931 52.1285 61.867 51.791 61.8159L51.7333 62.1966ZM53.3389 61.0906C53.3907 60.7491 53.3243 60.4187 53.139 60.1562C52.9526 59.8924 52.6572 59.7134 52.2823 59.6567L52.2245 60.0373C52.5074 60.0801 52.7049 60.2093 52.8244 60.3784C52.9449 60.5489 52.9972 60.7761 52.9582 61.033L53.3389 61.0906ZM52.2823 59.6567C51.9614 59.6081 51.6783 59.6563 51.4294 59.7914L51.6129 60.1297C51.7817 60.0382 51.979 60.0002 52.2245 60.0373L52.2823 59.6567ZM51.7076 60.0085C51.765 59.7856 51.8439 59.6591 51.9241 59.5925C51.9974 59.5316 52.0925 59.5034 52.2322 59.5245L52.29 59.1439C52.0643 59.1097 51.852 59.1518 51.678 59.2965C51.5108 59.4354 51.4025 59.6497 51.3348 59.9126L51.7076 60.0085ZM52.2322 59.5245C52.3689 59.5452 52.4685 59.6379 52.5865 59.8241L52.9118 59.618C52.781 59.4115 52.6011 59.1909 52.29 59.1439L52.2322 59.5245ZM52.8492 59.8855L53.5134 59.4813L53.3133 59.1525L52.6491 59.5567L52.8492 59.8855ZM53.5791 59.219C53.392 58.9019 53.034 58.5461 52.4045 58.4509L52.3468 58.8316C52.841 58.9063 53.1076 59.1777 53.2475 59.4148L53.5791 59.219ZM51.9659 60.6944C52.0539 60.7078 52.1045 60.7429 52.1314 60.7779C52.1577 60.8121 52.1753 60.8643 52.1637 60.9409L52.5444 60.9985C52.5695 60.8329 52.5354 60.6717 52.4368 60.5433C52.3389 60.4158 52.1915 60.3392 52.0237 60.3138L51.9659 60.6944ZM52.1637 60.9409C52.1526 61.0144 52.1199 61.06 52.0808 61.0868C52.0405 61.1144 51.9758 61.1336 51.8827 61.1195L51.8249 61.5002C51.9968 61.5262 52.1639 61.4964 52.2982 61.4044C52.4339 61.3115 52.5188 61.167 52.5444 60.9985L52.1637 60.9409ZM51.8827 61.1195C51.789 61.1054 51.7365 61.0709 51.7012 61.02C51.6609 60.9617 51.6259 60.8566 51.6245 60.6698L51.2395 60.6728C51.2411 60.8977 51.2822 61.0914 51.3847 61.2393C51.4922 61.3946 51.6491 61.4736 51.8249 61.5002L51.8827 61.1195ZM51.5621 60.8131C51.6742 60.7103 51.8101 60.6709 51.9659 60.6944L52.0237 60.3138C51.7592 60.2738 51.5047 60.3435 51.3019 60.5295L51.5621 60.8131Z" fill="white"/>
</svg>
