<svg width="87" height="74" viewBox="0 0 87 74" fill="none" xmlns="http://www.w3.org/2000/svg">
<path d="M70.853 4.78656H32.2378V59.4709H70.853V4.78656Z" stroke="#D6411E" stroke-width="1.71001" stroke-miterlimit="10"/>
<path d="M49.7417 13.3098H65.3913" stroke="#D6411E" stroke-width="1.53805" stroke-miterlimit="10"/>
<path d="M49.7417 20.8848H65.3913" stroke="#D6411E" stroke-width="1.53805" stroke-miterlimit="10"/>
<path d="M49.7417 28.4711H65.3913" stroke="#D6411E" stroke-width="1.53805" stroke-miterlimit="10"/>
<path d="M49.7417 36.0573H65.3913" stroke="#D6411E" stroke-width="1.53805" stroke-miterlimit="10"/>
<path d="M49.7417 43.6323H65.3913" stroke="#D6411E" stroke-width="1.53805" stroke-miterlimit="10"/>
<path d="M49.7417 51.2186H65.3913" stroke="#D6411E" stroke-width="1.53805" stroke-miterlimit="10"/>
<path d="M43.1314 14.259H42.9391V14.4513H43.1314V14.259ZM43.9112 14.259V14.4513H44.1034V14.259H43.9112ZM43.9112 11.0291H44.1034V10.8368H43.9112V11.0291ZM43.1683 11.0291V10.8368H43.1153L43.0698 10.864L43.1683 11.0291ZM42.2178 11.5966L42.1192 11.4316L41.9427 11.5369L42.0597 11.706L42.2178 11.5966ZM42.6008 12.1503L42.4427 12.2597L42.5438 12.406L42.6976 12.3164L42.6008 12.1503ZM43.1314 11.8412H43.3237V11.5067L43.0346 11.6751L43.1314 11.8412ZM43.1314 14.4513H43.9112V14.0667H43.1314V14.4513ZM44.1034 14.259V11.0291H43.7189V14.259H44.1034ZM43.9112 10.8368H43.1683V11.2213H43.9112V10.8368ZM43.0698 10.864L42.1192 11.4316L42.3164 11.7617L43.2669 11.1942L43.0698 10.864ZM42.0597 11.706L42.4427 12.2597L42.7589 12.041L42.3759 11.4873L42.0597 11.706ZM42.6976 12.3164L43.2282 12.0073L43.0346 11.6751L42.504 11.9842L42.6976 12.3164ZM42.9391 11.8412V14.259H43.3237V11.8412H42.9391Z" fill="#D6411E"/>
<path d="M42.4577 21.9177H42.2655V22.1099H42.4577V21.9177ZM44.7464 21.9177V22.1099H44.9386V21.9177H44.7464ZM44.7464 21.2163H44.9386V21.0241H44.7464V21.2163ZM43.4175 21.2163L43.2863 21.0757L42.9296 21.4086H43.4175V21.2163ZM44.105 20.5749L43.9741 20.4342L43.9738 20.4344L44.105 20.5749ZM42.2962 19.366L42.1321 19.2659L42.0325 19.4291L42.1952 19.5296L42.2962 19.366ZM42.9238 19.7536L42.8227 19.9172L42.988 20.0193L43.0884 19.853L42.9238 19.7536ZM43.5697 20.1504L43.438 20.0104L43.4367 20.0117L43.5697 20.1504ZM42.4577 21.2163L42.3247 21.0775L42.2655 21.1343V21.2163H42.4577ZM42.4577 22.1099H44.7464V21.7254H42.4577V22.1099ZM44.9386 21.9177V21.2163H44.5541V21.9177H44.9386ZM44.7464 21.0241H43.4175V21.4086H44.7464V21.0241ZM43.5486 21.3569L44.2361 20.7155L43.9738 20.4344L43.2863 21.0757L43.5486 21.3569ZM44.2359 20.7157C44.504 20.4665 44.8556 20.0711 44.8556 19.5414H44.471C44.471 19.8976 44.232 20.1943 43.9741 20.4342L44.2359 20.7157ZM44.8556 19.5414C44.8556 18.8334 44.2766 18.4032 43.6113 18.4032V18.7877C44.1179 18.7877 44.471 19.0958 44.471 19.5414H44.8556ZM43.6113 18.4032C42.9228 18.4032 42.4415 18.7587 42.1321 19.2659L42.4604 19.4662C42.7139 19.0505 43.0816 18.7877 43.6113 18.7877V18.4032ZM42.1952 19.5296L42.8227 19.9172L43.0248 19.5901L42.3973 19.2025L42.1952 19.5296ZM43.0884 19.853C43.2502 19.5848 43.3618 19.4799 43.5328 19.4799V19.0953C43.1317 19.0953 42.9203 19.3872 42.7592 19.6543L43.0884 19.853ZM43.5328 19.4799C43.5919 19.4799 43.6268 19.4979 43.6454 19.5156C43.6626 19.5321 43.682 19.5633 43.682 19.6244H44.0665C44.0665 19.4733 44.0144 19.3361 43.9105 19.2372C43.808 19.1396 43.6721 19.0953 43.5328 19.0953V19.4799ZM43.682 19.6244C43.682 19.7415 43.5968 19.8609 43.438 20.0104L43.7015 20.2904C43.8564 20.1447 44.0665 19.9226 44.0665 19.6244H43.682ZM43.4367 20.0117L42.3247 21.0775L42.5908 21.3551L43.7028 20.2892L43.4367 20.0117ZM42.2655 21.2163V21.9177H42.65V21.2163H42.2655Z" fill="#D6411E"/>
<path d="M44.3311 27.8367L44.2122 27.6857L43.9876 27.8624L44.236 28.0038L44.3311 27.8367ZM42.4116 26.8678L42.2496 26.7643L42.1447 26.9284L42.3102 27.0311L42.4116 26.8678ZM43.0437 27.26L42.9424 27.4233L43.107 27.5255L43.2079 27.3601L43.0437 27.26ZM43.0068 27.523V27.3307H42.8146V27.523H43.0068ZM43.0068 28.2151H42.8146V28.4074H43.0068V28.2151ZM42.9422 28.4596L43.116 28.3773L43.0242 28.1836L42.8415 28.2959L42.9422 28.4596ZM42.2593 28.8795L42.1586 28.7158L42.0018 28.8122L42.0913 28.973L42.2593 28.8795ZM44.9894 28.6258C44.9894 28.2127 44.7839 27.8733 44.4262 27.6697L44.236 28.0038C44.4781 28.1416 44.6049 28.356 44.6049 28.6258H44.9894ZM44.45 27.9878C44.7162 27.7782 44.8556 27.4764 44.8556 27.1262H44.471C44.471 27.3665 44.3797 27.5538 44.2122 27.6857L44.45 27.9878ZM44.8556 27.1262C44.8556 26.7971 44.7154 26.5228 44.4797 26.335C44.248 26.1504 43.9351 26.0572 43.5928 26.0572V26.4417C43.8688 26.4417 44.0911 26.517 44.2401 26.6357C44.3851 26.7513 44.471 26.9153 44.471 27.1262H44.8556ZM43.5928 26.0572C42.964 26.0572 42.5293 26.3262 42.2496 26.7643L42.5736 26.9712C42.783 26.6434 43.0957 26.4417 43.5928 26.4417V26.0572ZM42.3102 27.0311L42.9424 27.4233L43.1451 27.0966L42.513 26.7044L42.3102 27.0311ZM43.2079 27.3601C43.2589 27.2764 43.3062 27.2211 43.3549 27.1864C43.3997 27.1544 43.4539 27.1338 43.5328 27.1338V26.7493C43.3765 26.7493 43.2437 26.7934 43.1317 26.8733C43.0235 26.9505 42.9439 27.0544 42.8796 27.1599L43.2079 27.3601ZM43.5328 27.1338C43.6015 27.1338 43.6389 27.1516 43.655 27.1645C43.6661 27.1735 43.6774 27.1873 43.6774 27.2231H44.0619C44.0619 27.0789 44.004 26.9519 43.8963 26.8651C43.7936 26.7824 43.6625 26.7493 43.5328 26.7493V27.1338ZM43.6774 27.2231C43.6774 27.263 43.6641 27.2806 43.6456 27.2942C43.6202 27.3129 43.5717 27.3307 43.5005 27.3307V27.7152C43.6278 27.7152 43.7638 27.6846 43.8734 27.6041C43.9898 27.5184 44.0619 27.3861 44.0619 27.2231H43.6774ZM43.5005 27.3307H43.0068V27.7152H43.5005V27.3307ZM42.8146 27.523V28.2151H43.1991V27.523H42.8146ZM43.0068 28.4074H43.5236V28.0228H43.0068V28.4074ZM43.5236 28.4074C43.6382 28.4074 43.7146 28.4341 43.7572 28.4655C43.7926 28.4917 43.8158 28.5281 43.8158 28.5935H44.2003C44.2003 28.4096 44.122 28.2569 43.9856 28.1562C43.8563 28.0607 43.6905 28.0228 43.5236 28.0228V28.4074ZM43.8158 28.5935C43.8158 28.6519 43.7941 28.6933 43.7607 28.7225C43.7251 28.7535 43.665 28.7796 43.579 28.7796V29.1641C43.7421 29.1641 43.8966 29.114 44.0133 29.0124C44.1321 28.9089 44.2003 28.7611 44.2003 28.5935H43.8158ZM43.579 28.7796C43.4739 28.7796 43.4007 28.7521 43.3362 28.6989C43.2656 28.6407 43.1938 28.5417 43.116 28.3773L42.7685 28.5419C42.8567 28.7283 42.958 28.8854 43.0915 28.9955C43.2313 29.1108 43.3933 29.1641 43.579 29.1641V28.7796ZM42.8415 28.2959L42.1586 28.7158L42.36 29.0433L43.0429 28.6234L42.8415 28.2959ZM42.0913 28.973C42.2392 29.2387 42.4293 29.462 42.6788 29.6181C42.9292 29.7748 43.2275 29.8562 43.579 29.8562V29.4717C43.2891 29.4717 43.0637 29.4054 42.8827 29.2922C42.7008 29.1783 42.5517 29.0094 42.4273 28.786L42.0913 28.973ZM43.579 29.8562C43.9634 29.8562 44.314 29.7441 44.5721 29.5298C44.8333 29.313 44.9894 28.9993 44.9894 28.6258H44.6049C44.6049 28.8844 44.5002 29.0898 44.3265 29.234C44.1498 29.3807 43.8913 29.4717 43.579 29.4717V29.8562Z" fill="#D6411E"/>
<path d="M42.3793 36.4228H42.187V36.615H42.3793V36.4228ZM43.7774 36.4228H43.9696V36.2305H43.7774V36.4228ZM43.7774 37.2256H43.5851V37.4179H43.7774V37.2256ZM44.5572 37.2256V37.4179H44.7494V37.2256H44.5572ZM44.5572 36.4228V36.2305H44.3649V36.4228H44.5572ZM44.8525 36.4228V36.615H45.0447V36.4228H44.8525ZM44.8525 35.7214H45.0447V35.5292H44.8525V35.7214ZM44.5572 35.7214H44.3649V35.9137H44.5572V35.7214ZM44.5572 33.9957H44.7494V33.8035H44.5572V33.9957ZM43.662 33.9957V33.8035H43.5654L43.5077 33.881L43.662 33.9957ZM42.3793 35.7214L42.225 35.6067L42.187 35.6578V35.7214H42.3793ZM43.1591 35.7214L43.0058 35.6054L42.7724 35.9137H43.1591V35.7214ZM43.7774 34.9047H43.9696V34.3323L43.6241 34.7887L43.7774 34.9047ZM43.7774 35.7214V35.9137H43.9696V35.7214H43.7774ZM42.3793 36.615H43.7774V36.2305H42.3793V36.615ZM43.5851 36.4228V37.2256H43.9696V36.4228H43.5851ZM43.7774 37.4179H44.5572V37.0334H43.7774V37.4179ZM44.7494 37.2256V36.4228H44.3649V37.2256H44.7494ZM44.5572 36.615H44.8525V36.2305H44.5572V36.615ZM45.0447 36.4228V35.7214H44.6602V36.4228H45.0447ZM44.8525 35.5292H44.5572V35.9137H44.8525V35.5292ZM44.7494 35.7214V33.9957H44.3649V35.7214H44.7494ZM44.5572 33.8035H43.662V34.188H44.5572V33.8035ZM43.5077 33.881L42.225 35.6067L42.5336 35.8361L43.8163 34.1104L43.5077 33.881ZM42.187 35.7214V36.4228H42.5715V35.7214H42.187ZM43.3124 35.8375L43.9307 35.0208L43.6241 34.7887L43.0058 35.6054L43.3124 35.8375ZM43.5851 34.9047V35.7214H43.9696V34.9047H43.5851ZM43.7774 35.5292H43.1591V35.9137H43.7774V35.5292Z" fill="#D6411E"/>
<path d="M42.5962 43.5231L42.4041 43.5137L42.3942 43.7154H42.5962V43.5231ZM42.9561 43.7677L43.1293 43.6844L43.037 43.4922L42.8554 43.6039L42.9561 43.7677ZM42.2732 44.1876L42.1725 44.0238L42.0163 44.1198L42.1048 44.2804L42.2732 44.1876ZM43.4082 42.8264L43.2163 42.8152L43.2045 43.0187H43.4082V42.8264ZM43.4359 42.3511V42.1589H43.2546L43.244 42.34L43.4359 42.3511ZM44.7279 42.3511V42.5434H44.9202V42.3511H44.7279ZM44.7279 41.6498H44.9202V41.4575H44.7279V41.6498ZM42.6884 41.6498V41.4575H42.5054L42.4964 41.6403L42.6884 41.6498ZM42.5962 43.7154H43.459V43.3309H42.5962V43.7154ZM43.459 43.7154C43.625 43.7154 43.7215 43.7448 43.7712 43.7776C43.8078 43.8018 43.8297 43.8334 43.8297 43.9015H44.2142C44.2142 43.7158 44.1368 43.5583 43.9831 43.4567C43.8425 43.3638 43.6575 43.3309 43.459 43.3309V43.7154ZM43.8297 43.9015C43.8297 43.9632 43.8078 44.0044 43.7769 44.032C43.7441 44.0612 43.6864 44.0876 43.5974 44.0876V44.4721C43.7623 44.4721 43.9168 44.4223 44.0328 44.319C44.1507 44.2139 44.2142 44.0659 44.2142 43.9015H43.8297ZM43.5974 44.0876C43.4969 44.0876 43.4227 44.0612 43.3558 44.0073C43.2835 43.949 43.2087 43.8496 43.1293 43.6844L42.7828 43.851C42.8741 44.0411 42.9793 44.1977 43.1146 44.3067C43.2554 44.4201 43.4165 44.4721 43.5974 44.4721V44.0876ZM42.8554 43.6039L42.1725 44.0238L42.3739 44.3514L43.0568 43.9315L42.8554 43.6039ZM42.1048 44.2804C42.2535 44.5501 42.4478 44.7734 42.6995 44.9286C42.9518 45.0841 43.2507 45.1642 43.5974 45.1642V44.7797C43.312 44.7797 43.0849 44.7145 42.9012 44.6013C42.7169 44.4876 42.565 44.3188 42.4415 44.0947L42.1048 44.2804ZM43.5974 45.1642C43.9768 45.1642 44.3286 45.0488 44.5886 44.823C44.8515 44.5947 45.0078 44.2641 45.0078 43.8646H44.6233C44.6233 44.1572 44.512 44.3803 44.3365 44.5327C44.1582 44.6875 43.901 44.7797 43.5974 44.7797V45.1642ZM45.0078 43.8646C45.0078 43.494 44.8981 43.1719 44.6286 42.9483C44.3663 42.7308 43.9848 42.6341 43.5005 42.6341V43.0187C43.9437 43.0187 44.2197 43.1088 44.3831 43.2443C44.5392 43.3737 44.6233 43.5707 44.6233 43.8646H45.0078ZM43.5005 42.6341H43.4082V43.0187H43.5005V42.6341ZM43.6002 42.8376L43.6279 42.3623L43.244 42.34L43.2163 42.8152L43.6002 42.8376ZM43.4359 42.5434H44.7279V42.1589H43.4359V42.5434ZM44.9202 42.3511V41.6498H44.5356V42.3511H44.9202ZM44.7279 41.4575H42.6884V41.842H44.7279V41.4575ZM42.4964 41.6403L42.4041 43.5137L42.7882 43.5326L42.8805 41.6593L42.4964 41.6403Z" fill="#D6411E"/>
<path d="M43.1406 50.6419L42.9494 50.6224L42.9047 51.0613L43.2566 50.7952L43.1406 50.6419ZM44.3172 50.222L44.1721 50.3481L44.2959 50.4906L44.4407 50.3694L44.3172 50.222ZM44.9125 49.7237L45.0359 49.8711L45.1813 49.7493L45.0615 49.6022L44.9125 49.7237ZM43.1591 51.3571L43.0094 51.2365L42.9558 51.303L42.9692 51.3873L43.1591 51.3571ZM43.7866 49.0192C43.2169 49.0192 42.7916 49.2174 42.5148 49.5733C42.2443 49.9211 42.1363 50.3929 42.1363 50.9049H42.5208C42.5208 50.4387 42.6204 50.0638 42.8183 49.8094C43.0097 49.5632 43.3135 49.4038 43.7866 49.4038V49.0192ZM42.1363 50.9049C42.1363 51.4528 42.2552 51.9297 42.5161 52.2743C42.7829 52.6266 43.1816 52.8182 43.6851 52.8182V52.4337C43.2889 52.4337 43.0092 52.2885 42.8227 52.0422C42.6302 51.788 42.5208 51.4044 42.5208 50.9049H42.1363ZM43.6851 52.8182C44.1148 52.8182 44.472 52.6732 44.7226 52.4268C44.9725 52.181 45.1047 51.8455 45.1047 51.4863H44.7202C44.7202 51.75 44.6241 51.9843 44.4529 52.1527C44.2824 52.3203 44.026 52.4337 43.6851 52.4337V52.8182ZM45.1047 51.4863C45.1047 51.1414 44.9897 50.8249 44.7673 50.5935C44.5438 50.3608 44.2253 50.2282 43.8466 50.2282V50.6127C44.1323 50.6127 44.3467 50.7107 44.4901 50.8599C44.6345 51.0102 44.7202 51.2267 44.7202 51.4863H45.1047ZM43.8466 50.2282C43.5225 50.2282 43.2502 50.318 43.0247 50.4885L43.2566 50.7952C43.4095 50.6797 43.5986 50.6127 43.8466 50.6127V50.2282ZM43.3319 50.6614C43.3552 50.4328 43.4141 50.296 43.4833 50.2183C43.5465 50.1472 43.6363 50.1051 43.7774 50.1051V49.7206C43.5494 49.7206 43.3461 49.7939 43.196 49.9627C43.0517 50.1249 42.9768 50.3527 42.9494 50.6224L43.3319 50.6614ZM43.7774 50.1051C43.9154 50.1051 44.0277 50.1818 44.1721 50.3481L44.4624 50.0959C44.3023 49.9116 44.0916 49.7206 43.7774 49.7206V50.1051ZM44.4407 50.3694L45.0359 49.8711L44.789 49.5763L44.1938 50.0746L44.4407 50.3694ZM45.0615 49.6022C44.8292 49.3171 44.4225 49.0192 43.7866 49.0192V49.4038C44.2858 49.4038 44.5897 49.6319 44.7634 49.8451L45.0615 49.6022ZM43.6897 51.3002C43.7786 51.3002 43.8339 51.3273 43.8656 51.3579C43.8968 51.3877 43.922 51.4366 43.922 51.514H44.3065C44.3065 51.3467 44.2486 51.1926 44.1321 51.0806C44.0162 50.9693 43.8592 50.9157 43.6897 50.9157V51.3002ZM43.922 51.514C43.922 51.5883 43.8965 51.6382 43.862 51.6704C43.8263 51.7037 43.7652 51.7324 43.6713 51.7324V52.1169C43.8449 52.1169 44.0054 52.0625 44.1242 51.9516C44.2442 51.8396 44.3065 51.6842 44.3065 51.514H43.922ZM43.6713 51.7324C43.5766 51.7324 43.5196 51.7062 43.4772 51.6612C43.4286 51.6097 43.3783 51.5111 43.349 51.3269L42.9692 51.3873C43.0045 51.6091 43.0742 51.7943 43.1974 51.925C43.3269 52.0623 43.4937 52.1169 43.6713 52.1169V51.7324ZM43.3088 51.4777C43.4041 51.3594 43.5323 51.3002 43.6897 51.3002V50.9157C43.4226 50.9157 43.1817 51.0226 43.0094 51.2365L43.3088 51.4777Z" fill="#D6411E"/>
<path d="M38.7035 1.16923L1.14746 10.1364L13.8876 63.3209L51.4437 54.3538L38.7035 1.16923Z" fill="white" stroke="#D6411E" stroke-width="1.71001" stroke-miterlimit="10"/>
<path d="M20.1726 14.3485L35.3925 10.7134" stroke="#D6411E" stroke-width="1.53805" stroke-miterlimit="10"/>
<path d="M21.9365 21.7315L37.1677 18.0964" stroke="#D6411E" stroke-width="1.53805" stroke-miterlimit="10"/>
<path d="M23.7119 29.1033L38.9318 25.4682" stroke="#D6411E" stroke-width="1.53805" stroke-miterlimit="10"/>
<path d="M25.4758 36.4751L40.6957 32.84" stroke="#D6411E" stroke-width="1.53805" stroke-miterlimit="10"/>
<path d="M27.2397 43.8468L42.4597 40.2117" stroke="#D6411E" stroke-width="1.53805" stroke-miterlimit="10"/>
<path d="M29.0039 51.2299L44.2351 47.5948" stroke="#D6411E" stroke-width="1.53805" stroke-miterlimit="10"/>
<path d="M14.0527 16.8531L13.8657 16.8977L13.9105 17.0847L14.0975 17.0401L14.0527 16.8531ZM14.8112 16.672L14.856 16.859L15.043 16.8143L14.9982 16.6273L14.8112 16.672ZM14.0588 13.5309L14.2458 13.4863L14.201 13.2993L14.014 13.344L14.0588 13.5309ZM13.3362 13.7035L13.2914 13.5165L13.2398 13.5288L13.2019 13.5658L13.3362 13.7035ZM12.5439 14.4761L12.4096 14.3385L12.2625 14.482L12.4156 14.6192L12.5439 14.4761ZM13.0454 14.9257L12.9171 15.0687L13.0496 15.1875L13.1782 15.0647L13.0454 14.9257ZM13.4895 14.5018L13.6765 14.4571L13.5985 14.1318L13.3566 14.3627L13.4895 14.5018ZM14.0975 17.0401L14.856 16.859L14.7664 16.485L14.0079 16.6661L14.0975 17.0401ZM14.9982 16.6273L14.2458 13.4863L13.8718 13.5756L14.6242 16.7166L14.9982 16.6273ZM14.014 13.344L13.2914 13.5165L13.381 13.8904L14.1036 13.7179L14.014 13.344ZM13.2019 13.5658L12.4096 14.3385L12.6782 14.6138L13.4705 13.8411L13.2019 13.5658ZM12.4156 14.6192L12.9171 15.0687L13.1737 14.7826L12.6722 14.3331L12.4156 14.6192ZM13.1782 15.0647L13.6223 14.6409L13.3566 14.3627L12.9125 14.7866L13.1782 15.0647ZM13.3025 14.5464L13.8657 16.8977L14.2397 16.8084L13.6765 14.4571L13.3025 14.5464Z" fill="#D6411E"/>
<path d="M15.1852 24.4535L14.9982 24.4982L15.043 24.6852L15.23 24.6405L15.1852 24.4535ZM17.4112 23.922L17.456 24.109L17.643 24.0644L17.5982 23.8774L17.4112 23.922ZM17.2478 23.24L17.4348 23.1953L17.39 23.0084L17.203 23.053L17.2478 23.24ZM15.9553 23.5486L15.795 23.4423L15.5255 23.8489L16.0001 23.7356L15.9553 23.5486ZM16.4746 22.7652L16.3145 22.6587L16.3143 22.659L16.4746 22.7652ZM14.4337 22.0096L14.2507 21.9504L14.1919 22.1322L14.3735 22.1922L14.4337 22.0096ZM15.1343 22.2408L15.0742 22.4233L15.2587 22.4842L15.3176 22.2992L15.1343 22.2408ZM15.8551 22.4767L15.6943 22.3711L15.6934 22.3726L15.8551 22.4767ZM15.0218 23.7715L14.8601 23.6674L14.8157 23.7364L14.8348 23.8161L15.0218 23.7715ZM15.23 24.6405L17.456 24.109L17.3664 23.7351L15.1404 24.2666L15.23 24.6405ZM17.5982 23.8774L17.4348 23.1953L17.0608 23.2846L17.2242 23.9667L17.5982 23.8774ZM17.203 23.053L15.9105 23.3616L16.0001 23.7356L17.2926 23.4269L17.203 23.053ZM16.1156 23.6548L16.6349 22.8715L16.3143 22.659L15.795 23.4423L16.1156 23.6548ZM16.6347 22.8717C16.8374 22.567 17.0873 22.1009 16.9639 21.5858L16.5899 21.6751C16.6728 22.0215 16.5095 22.3656 16.3145 22.6587L16.6347 22.8717ZM16.9639 21.5858C16.7989 20.8973 16.1356 20.6134 15.4885 20.7679L15.578 21.1418C16.0708 21.0242 16.4861 21.2417 16.5899 21.6751L16.9639 21.5858ZM15.4885 20.7679C14.8188 20.9278 14.4335 21.3853 14.2507 21.9504L14.6166 22.0689C14.7664 21.6058 15.0629 21.2648 15.578 21.1418L15.4885 20.7679ZM14.3735 22.1922L15.0742 22.4233L15.1945 22.0583L14.4938 21.8271L14.3735 22.1922ZM15.3176 22.2992C15.4125 22.0008 15.4966 21.8728 15.663 21.8331L15.5734 21.4592C15.1833 21.5523 15.0456 21.8852 14.9511 22.1824L15.3176 22.2992ZM15.663 21.8331C15.7205 21.8194 15.7585 21.8289 15.7808 21.8418C15.8014 21.8538 15.8275 21.8796 15.8418 21.9391L16.2158 21.8498C16.1806 21.7028 16.0979 21.5815 15.9738 21.5094C15.8514 21.4383 15.7089 21.4268 15.5734 21.4592L15.663 21.8331ZM15.8418 21.9391C15.869 22.0529 15.814 22.1888 15.6943 22.3711L16.0159 22.5822C16.1326 22.4045 16.2852 22.1398 16.2158 21.8498L15.8418 21.9391ZM15.6934 22.3726L14.8601 23.6674L15.1835 23.8756L16.0168 22.5808L15.6934 22.3726ZM14.8348 23.8161L14.9982 24.4982L15.3722 24.4089L15.2088 23.7268L14.8348 23.8161Z" fill="#D6411E"/>
<path d="M18.3898 29.7821L18.2389 29.6628L18.0617 29.8869L18.3362 29.9667L18.3898 29.7821ZM16.297 29.2856L16.1153 29.2226L16.0516 29.4065L16.2365 29.468L16.297 29.2856ZM17.0032 29.5202L16.9427 29.7026L17.1266 29.7637L17.1862 29.5794L17.0032 29.5202ZM17.0286 29.7845L16.9838 29.5975L16.7968 29.6422L16.8416 29.8292L17.0286 29.7845ZM17.1898 30.4576L17.0028 30.5022L17.0476 30.6892L17.2346 30.6446L17.1898 30.4576ZM17.184 30.7104L17.3338 30.59L17.1994 30.4229L17.0479 30.5745L17.184 30.7104ZM16.6176 31.2773L16.4815 31.1415L16.3514 31.2716L16.476 31.4073L16.6176 31.2773ZM19.2138 30.3965C19.1176 29.9948 18.8387 29.7125 18.4433 29.5975L18.3362 29.9667C18.6038 30.0445 18.777 30.2235 18.8399 30.4858L19.2138 30.3965ZM18.5406 29.9014C18.7507 29.6358 18.816 29.3099 18.7344 28.9693L18.3604 29.0586C18.4163 29.2923 18.3711 29.4956 18.2389 29.6628L18.5406 29.9014ZM18.7344 28.9693C18.6577 28.6493 18.4575 28.4151 18.1845 28.2872C17.9161 28.1614 17.59 28.1435 17.2571 28.223L17.3467 28.5969C17.6152 28.5328 17.8489 28.5544 18.0215 28.6352C18.1894 28.714 18.3112 28.8535 18.3604 29.0586L18.7344 28.9693ZM17.2571 28.223C16.6455 28.369 16.2854 28.7316 16.1153 29.2226L16.4787 29.3486C16.606 28.9811 16.8632 28.7124 17.3467 28.5969L17.2571 28.223ZM16.2365 29.468L16.9427 29.7026L17.0638 29.3378L16.3576 29.1031L16.2365 29.468ZM17.1862 29.5794C17.2164 29.4861 17.2495 29.4214 17.2888 29.3763C17.3249 29.3348 17.3728 29.3023 17.4496 29.2839L17.36 28.91C17.2079 28.9463 17.0891 29.02 16.9987 29.1237C16.9115 29.2239 16.8583 29.3434 16.8203 29.4609L17.1862 29.5794ZM17.4496 29.2839C17.5164 29.268 17.5569 29.2765 17.5756 29.2854C17.5885 29.2915 17.6027 29.3023 17.611 29.3371L17.985 29.2478C17.9514 29.1076 17.8655 28.9976 17.7405 28.9382C17.6213 28.8816 17.4862 28.8799 17.36 28.91L17.4496 29.2839ZM17.611 29.3371C17.6203 29.376 17.6115 29.3962 17.5967 29.4137C17.5763 29.4378 17.5332 29.4664 17.464 29.4829L17.5536 29.8568C17.6774 29.8273 17.8026 29.7659 17.8904 29.6621C17.9837 29.5518 18.023 29.4064 17.985 29.2478L17.611 29.3371ZM17.464 29.4829L16.9838 29.5975L17.0734 29.9715L17.5536 29.8568L17.464 29.4829ZM16.8416 29.8292L17.0028 30.5022L17.3768 30.4129L17.2156 29.7399L16.8416 29.8292ZM17.2346 30.6446L17.7373 30.5245L17.6477 30.1506L17.1451 30.2706L17.2346 30.6446ZM17.7373 30.5245C17.8487 30.4979 17.9293 30.5062 17.9781 30.5268C18.0186 30.544 18.0497 30.5741 18.0649 30.6377L18.4389 30.5484C18.3961 30.3696 18.2843 30.2393 18.1281 30.173C17.9801 30.1102 17.81 30.1118 17.6477 30.1506L17.7373 30.5245ZM18.0649 30.6377C18.0785 30.6945 18.067 30.7398 18.0413 30.7759C18.0139 30.8143 17.9616 30.8537 17.8778 30.8736L17.9674 31.2476C18.1261 31.2097 18.2647 31.1252 18.3545 30.9992C18.4459 30.871 18.4779 30.7114 18.4389 30.5484L18.0649 30.6377ZM17.8778 30.8736C17.7757 30.898 17.698 30.8883 17.6229 30.8516C17.5407 30.8114 17.4478 30.7318 17.3338 30.59L17.0342 30.8308C17.1634 30.9915 17.2985 31.1208 17.4541 31.1969C17.6168 31.2765 17.7869 31.2907 17.9674 31.2476L17.8778 30.8736ZM17.0479 30.5745L16.4815 31.1415L16.7537 31.4132L17.3201 30.8463L17.0479 30.5745ZM16.476 31.4073C16.6817 31.6313 16.9186 31.8044 17.1976 31.8982C17.4777 31.9924 17.7868 32.0023 18.1287 31.9207L18.0391 31.5467C17.7572 31.614 17.5224 31.6019 17.32 31.5339C17.1165 31.4654 16.9322 31.3358 16.7592 31.1474L16.476 31.4073ZM18.1287 31.9207C18.5026 31.8314 18.8175 31.641 19.0186 31.3726C19.2222 31.1011 19.3009 30.7598 19.2138 30.3965L18.8399 30.4858C18.9001 30.7373 18.8461 30.9614 18.7108 31.142C18.5731 31.3257 18.3428 31.4742 18.0391 31.5467L18.1287 31.9207Z" fill="#D6411E"/>
<path d="M18.4951 38.5813L18.3081 38.626L18.3529 38.8129L18.5399 38.7683L18.4951 38.5813ZM19.8549 38.2566L20.0419 38.212L19.9972 38.025L19.8102 38.0696L19.8549 38.2566ZM20.042 39.0374L19.855 39.082L19.8998 39.269L20.0868 39.2244L20.042 39.0374ZM20.8004 38.8563L20.8452 39.0433L21.0322 38.9986L20.9874 38.8116L20.8004 38.8563ZM20.6134 38.0755L20.5686 37.8885L20.3816 37.9332L20.4264 38.1202L20.6134 38.0755ZM20.9006 38.0069L20.9454 38.1939L21.1324 38.1492L21.0876 37.9623L20.9006 38.0069ZM20.7373 37.3249L20.9243 37.2802L20.8795 37.0933L20.6925 37.1379L20.7373 37.3249ZM20.45 37.3935L20.263 37.4381L20.3078 37.6251L20.4948 37.5804L20.45 37.3935ZM20.048 35.7152L20.235 35.6706L20.1902 35.4836L20.0032 35.5283L20.048 35.7152ZM19.1774 35.9231L19.1326 35.7362L19.0386 35.7586L19.0006 35.8474L19.1774 35.9231ZM18.3317 37.8992L18.1549 37.8235L18.1299 37.882L18.1447 37.9439L18.3317 37.8992ZM19.0902 37.7181L18.914 37.6409L18.7588 37.9949L19.135 37.9051L19.0902 37.7181ZM19.5013 36.7803L19.6883 36.7357L19.5549 36.179L19.3252 36.7031L19.5013 36.7803ZM19.6916 37.5746L19.7364 37.7615L19.9233 37.7169L19.8786 37.5299L19.6916 37.5746ZM18.5399 38.7683L19.8997 38.4436L19.8102 38.0696L18.4503 38.3943L18.5399 38.7683ZM19.6679 38.3013L19.855 39.082L20.229 38.9927L20.0419 38.212L19.6679 38.3013ZM20.0868 39.2244L20.8452 39.0433L20.7557 38.6693L19.9972 38.8504L20.0868 39.2244ZM20.9874 38.8116L20.8004 38.0309L20.4264 38.1202L20.6135 38.9009L20.9874 38.8116ZM20.6582 38.2625L20.9454 38.1939L20.8559 37.82L20.5686 37.8885L20.6582 38.2625ZM21.0876 37.9623L20.9243 37.2802L20.5503 37.3695L20.7137 38.0516L21.0876 37.9623ZM20.6925 37.1379L20.4052 37.2065L20.4948 37.5804L20.7821 37.5118L20.6925 37.1379ZM20.637 37.3488L20.235 35.6706L19.861 35.7599L20.263 37.4381L20.637 37.3488ZM20.0032 35.5283L19.1326 35.7362L19.2221 36.1101L20.0928 35.9022L20.0032 35.5283ZM19.0006 35.8474L18.1549 37.8235L18.5085 37.9749L19.3542 35.9988L19.0006 35.8474ZM18.1447 37.9439L18.3081 38.626L18.6821 38.5367L18.5187 37.8546L18.1447 37.9439ZM19.2663 37.7954L19.6774 36.8576L19.3252 36.7031L18.914 37.6409L19.2663 37.7954ZM19.3143 36.825L19.5046 37.6192L19.8786 37.5299L19.6883 36.7357L19.3143 36.825ZM19.6468 37.3876L19.0454 37.5312L19.135 37.9051L19.7364 37.7615L19.6468 37.3876Z" fill="#D6411E"/>
<path d="M20.3522 45.432L20.1632 45.4674L20.2005 45.6659L20.397 45.619L20.3522 45.432ZM20.7592 45.5862L20.9084 45.465L20.7738 45.2996L20.6231 45.4503L20.7592 45.5862ZM20.1928 46.1532L20.0567 46.0173L19.9272 46.1469L20.0507 46.2825L20.1928 46.1532ZM20.9798 44.5658L20.7905 44.5995L20.8263 44.8001L21.0245 44.7528L20.9798 44.5658ZM20.896 44.0972L20.8512 43.9102L20.6748 43.9524L20.7067 44.1309L20.896 44.0972ZM22.1526 43.7972L22.1974 43.9841L22.3844 43.9395L22.3396 43.7525L22.1526 43.7972ZM21.9892 43.1151L22.1762 43.0705L22.1314 42.8835L21.9444 42.9281L21.9892 43.1151ZM20.0055 43.5888L19.9607 43.4018L19.7827 43.4443L19.8166 43.6241L20.0055 43.5888ZM20.397 45.619L21.2362 45.4186L21.1466 45.0446L20.3074 45.245L20.397 45.619ZM21.2362 45.4186C21.3977 45.38 21.4984 45.3862 21.5544 45.4065C21.5956 45.4216 21.6242 45.4472 21.6401 45.5135L22.0141 45.4242C21.9709 45.2436 21.8589 45.1084 21.6858 45.0453C21.5273 44.9876 21.3397 44.9985 21.1466 45.0446L21.2362 45.4186ZM21.6401 45.5135C21.6545 45.5735 21.6428 45.6186 21.6192 45.6526C21.594 45.6887 21.5441 45.7277 21.4576 45.7484L21.5471 46.1223C21.7075 46.084 21.8462 45.9997 21.9349 45.8723C22.0251 45.7427 22.0524 45.584 22.0141 45.4242L21.6401 45.5135ZM21.4576 45.7484C21.3598 45.7717 21.2815 45.7633 21.2039 45.7264C21.1199 45.6865 21.024 45.6072 20.9084 45.465L20.6101 45.7074C20.7432 45.8711 20.882 45.999 21.039 46.0736C21.2023 46.1512 21.3712 46.1643 21.5471 46.1223L21.4576 45.7484ZM20.6231 45.4503L20.0567 46.0173L20.3289 46.289L20.8953 45.7221L20.6231 45.4503ZM20.0507 46.2825C20.2582 46.5103 20.4991 46.6823 20.7801 46.7748C21.0617 46.8674 21.3712 46.8759 21.7084 46.7954L21.6188 46.4215C21.3412 46.4878 21.1051 46.4771 20.9001 46.4096C20.6943 46.3419 20.5073 46.2129 20.3349 46.0238L20.0507 46.2825ZM21.7084 46.7954C22.0774 46.7073 22.3927 46.5133 22.593 46.2333C22.7955 45.9503 22.8705 45.5925 22.7774 45.204L22.4034 45.2933C22.4716 45.5778 22.4153 45.8206 22.2801 46.0096C22.1428 46.2016 21.914 46.351 21.6188 46.4215L21.7084 46.7954ZM22.7774 45.204C22.6911 44.8436 22.5094 44.5558 22.1951 44.401C21.8894 44.2504 21.4958 44.245 21.0247 44.3574L21.1143 44.7314C21.5454 44.6284 21.8348 44.652 22.0253 44.7458C22.2073 44.8355 22.335 45.0075 22.4034 45.2933L22.7774 45.204ZM21.0247 44.3574L20.935 44.3789L21.0245 44.7528L21.1143 44.7314L21.0247 44.3574ZM21.169 44.5321L21.0853 44.0635L20.7067 44.1309L20.7905 44.5995L21.169 44.5321ZM20.9408 44.2842L22.1974 43.9841L22.1078 43.6102L20.8512 43.9102L20.9408 44.2842ZM22.3396 43.7525L22.1762 43.0705L21.8022 43.1598L21.9656 43.8418L22.3396 43.7525ZM21.9444 42.9281L19.9607 43.4018L20.0503 43.7757L22.034 43.3021L21.9444 42.9281ZM19.8166 43.6241L20.1632 45.4674L20.5412 45.3966L20.1945 43.5534L19.8166 43.6241Z" fill="#D6411E"/>
<path d="M22.5437 52.2358L22.3531 52.2612L22.4119 52.6985L22.6922 52.358L22.5437 52.2358ZM23.5903 51.5542L23.4785 51.7105L23.6321 51.8204L23.7447 51.6689L23.5903 51.5542ZM24.0532 50.9313L24.2076 51.046L24.3207 50.8938L24.1699 50.7786L24.0532 50.9313ZM22.7283 52.927L22.5545 52.8445L22.5179 52.9216L22.5506 53.0005L22.7283 52.927ZM22.794 50.5077C22.2399 50.6401 21.8724 50.9315 21.686 51.342C21.504 51.7429 21.5088 52.2269 21.6281 52.7248L22.0021 52.6355C21.8935 52.1821 21.903 51.7944 22.0362 51.5011C22.1651 51.2172 22.4234 50.9916 22.8836 50.8817L22.794 50.5077ZM21.6281 52.7248C21.7557 53.2576 21.9825 53.6938 22.3166 53.9683C22.6581 54.2489 23.0905 54.3427 23.5803 54.2258L23.4907 53.8519C23.1053 53.9439 22.7995 53.8676 22.5606 53.6713C22.3142 53.4689 22.1184 53.1212 22.0021 52.6355L21.6281 52.7248ZM23.5803 54.2258C23.9982 54.126 24.3119 53.902 24.4982 53.6042C24.684 53.3071 24.7345 52.9501 24.6508 52.6008L24.2768 52.6901C24.3382 52.9466 24.2993 53.1968 24.1721 53.4002C24.0453 53.6029 23.8222 53.7727 23.4907 53.8519L23.5803 54.2258ZM24.6508 52.6008C24.5704 52.2654 24.3848 51.9843 24.1146 51.8109C23.8431 51.6366 23.5023 51.5815 23.134 51.6695L23.2236 52.0434C23.5015 51.977 23.7329 52.0226 23.907 52.1344C24.0826 52.2471 24.2163 52.4377 24.2768 52.6901L24.6508 52.6008ZM23.134 51.6695C22.8187 51.7447 22.5748 51.8954 22.3952 52.1136L22.6922 52.358C22.814 52.2101 22.9823 52.101 23.2236 52.0434L23.134 51.6695ZM22.7343 52.2103C22.7037 51.9826 22.7291 51.8359 22.7783 51.7442C22.8232 51.6604 22.9007 51.5987 23.038 51.5659L22.9484 51.1919C22.7266 51.2449 22.546 51.3634 22.4393 51.5624C22.3368 51.7536 22.317 51.9926 22.3531 52.2612L22.7343 52.2103ZM23.038 51.5659C23.1722 51.5338 23.2993 51.5823 23.4785 51.7105L23.7021 51.3979C23.5034 51.2558 23.254 51.119 22.9484 51.1919L23.038 51.5659ZM23.7447 51.6689L24.2076 51.046L23.8988 50.8166L23.4359 51.4395L23.7447 51.6689ZM24.1699 50.7786C23.8775 50.5553 23.4125 50.3601 22.794 50.5077L22.8836 50.8817C23.3692 50.7657 23.7179 50.9171 23.9365 51.084L24.1699 50.7786ZM23.2311 52.7484C23.3176 52.7278 23.3776 52.7413 23.4157 52.7637C23.4529 52.7855 23.4888 52.8272 23.5068 52.9024L23.8808 52.8131C23.8419 52.6505 23.7497 52.514 23.6102 52.4322C23.4716 52.3508 23.3064 52.3351 23.1415 52.3745L23.2311 52.7484ZM23.5068 52.9024C23.5241 52.9746 23.511 53.0291 23.4849 53.0685C23.4579 53.1092 23.4053 53.1512 23.3138 53.173L23.4034 53.5469C23.5723 53.5066 23.7157 53.4164 23.8055 53.281C23.8962 53.1443 23.9205 52.9787 23.8808 52.8131L23.5068 52.9024ZM23.3138 53.173C23.2218 53.195 23.1602 53.1828 23.1085 53.1489C23.0492 53.1101 22.9773 53.0259 22.9059 52.8535L22.5506 53.0005C22.6366 53.208 22.7475 53.3719 22.8979 53.4704C23.0558 53.5738 23.2307 53.5882 23.4034 53.5469L23.3138 53.173ZM22.902 53.0095C22.9671 52.8723 23.078 52.785 23.2311 52.7484L23.1415 52.3745C22.8817 52.4365 22.6723 52.5964 22.5545 52.8445L22.902 53.0095Z" fill="#D6411E"/>
<path d="M85.8758 18.8587L47.708 13.0073L39.3946 67.0581L77.5624 72.9095L85.8758 18.8587Z" fill="white" stroke="#D6411E" stroke-width="1.71001" stroke-miterlimit="10"/>
<path d="M63.7405 24.0683L79.2092 26.439" stroke="#D6411E" stroke-width="1.53805" stroke-miterlimit="10"/>
<path d="M62.5869 31.5643L78.0556 33.935" stroke="#D6411E" stroke-width="1.53805" stroke-miterlimit="10"/>
<path d="M61.4336 39.0602L76.9023 41.431" stroke="#D6411E" stroke-width="1.53805" stroke-miterlimit="10"/>
<path d="M60.2803 46.5562L75.7489 48.9269" stroke="#D6411E" stroke-width="1.53805" stroke-miterlimit="10"/>
<path d="M59.127 54.0521L74.5956 56.4228" stroke="#D6411E" stroke-width="1.53805" stroke-miterlimit="10"/>
<path d="M57.9736 61.5481L73.4423 63.9188" stroke="#D6411E" stroke-width="1.53805" stroke-miterlimit="10"/>
<path d="M57.052 23.9977L56.8617 23.9689L56.8328 24.1592L57.0231 24.188L57.052 23.9977ZM57.824 24.1145L57.7952 24.3048L57.9855 24.3336L58.0144 24.1433L57.824 24.1145ZM58.3093 20.917L58.4996 20.9458L58.5285 20.7554L58.3382 20.7267L58.3093 20.917ZM57.5738 20.8057L57.6027 20.6154L57.5502 20.6075L57.501 20.6276L57.5738 20.8057ZM56.5475 21.2252L56.4747 21.047L56.2842 21.1249L56.3745 21.3098L56.5475 21.2252ZM56.8435 21.8307L56.6705 21.9153L56.7487 22.0753L56.9143 22.0097L56.8435 21.8307ZM57.4153 21.6041L57.6056 21.6329L57.6559 21.3018L57.3444 21.4252L57.4153 21.6041ZM57.0231 24.188L57.7952 24.3048L57.8529 23.9241L57.0809 23.8074L57.0231 24.188ZM58.0144 24.1433L58.4996 20.9458L58.119 20.8882L57.6337 24.0857L58.0144 24.1433ZM58.3382 20.7267L57.6027 20.6154L57.5449 20.9961L58.2804 21.1073L58.3382 20.7267ZM57.501 20.6276L56.4747 21.047L56.6203 21.4034L57.6466 20.9839L57.501 20.6276ZM56.3745 21.3098L56.6705 21.9153L57.0165 21.7461L56.7205 21.1406L56.3745 21.3098ZM56.9143 22.0097L57.4861 21.7831L57.3444 21.4252L56.7726 21.6518L56.9143 22.0097ZM57.2249 21.5753L56.8617 23.9689L57.2424 24.0265L57.6056 21.6329L57.2249 21.5753Z" fill="#D6411E"/>
<path d="M55.2198 31.4764L55.0295 31.4476L55.0006 31.6379L55.1909 31.6667L55.2198 31.4764ZM57.4856 31.8191L57.4567 32.0095L57.6471 32.0382L57.676 31.8479L57.4856 31.8191ZM57.591 31.1248L57.7813 31.1536L57.8102 30.9633L57.6199 30.9345L57.591 31.1248ZM56.2754 30.9258L56.1666 30.767L55.7634 31.0431L56.2465 31.1161L56.2754 30.9258ZM57.0524 30.3938L56.9439 30.2348L56.9437 30.235L57.0524 30.3938ZM55.4433 28.9262L55.2958 28.8025L55.1727 28.9492L55.3187 29.073L55.4433 28.9262ZM56.0063 29.4039L55.8817 29.5507L56.03 29.6765L56.1544 29.5268L56.0063 29.4039ZM56.5863 29.8934L56.4768 29.7351L56.4754 29.7361L56.5863 29.8934ZM55.3252 30.7821L55.2143 30.6247L55.1472 30.6721L55.1348 30.7533L55.3252 30.7821ZM55.1909 31.6667L57.4567 32.0095L57.5145 31.6288L55.2487 31.2861L55.1909 31.6667ZM57.676 31.8479L57.7813 31.1536L57.4007 31.096L57.2953 31.7903L57.676 31.8479ZM57.6199 30.9345L56.3043 30.7355L56.2465 31.1161L57.5621 31.3151L57.6199 30.9345ZM56.3841 31.0846L57.1611 30.5526L56.9437 30.235L56.1666 30.767L56.3841 31.0846ZM57.1608 30.5528C57.4637 30.3462 57.8712 30.0074 57.9508 29.483L57.5701 29.4255C57.5166 29.7781 57.2353 30.0361 56.9439 30.2348L57.1608 30.5528ZM57.9508 29.483C58.0571 28.7822 57.5486 28.2696 56.8899 28.17L56.8321 28.5506C57.3337 28.6265 57.637 28.9843 57.5701 29.4255L57.9508 29.483ZM56.8899 28.17C56.2082 28.0669 55.6783 28.3467 55.2958 28.8025L55.5907 29.0499C55.9042 28.6764 56.3078 28.4713 56.8321 28.5506L56.8899 28.17ZM55.3187 29.073L55.8817 29.5507L56.1309 29.2571L55.5679 28.7794L55.3187 29.073ZM56.1544 29.5268C56.3548 29.2856 56.4811 29.1984 56.6505 29.224L56.7082 28.8434C56.3111 28.7833 56.058 29.0406 55.8583 29.2809L56.1544 29.5268ZM56.6505 29.224C56.709 29.2329 56.7407 29.256 56.7565 29.2763C56.7711 29.2952 56.7856 29.329 56.7764 29.3895L57.1571 29.4471C57.1798 29.2975 57.1488 29.1539 57.0609 29.0404C56.974 28.9284 56.8461 28.8643 56.7082 28.8434L56.6505 29.224ZM56.7764 29.3895C56.7589 29.5054 56.6566 29.6109 56.4768 29.7351L56.6957 30.0518C56.8709 29.9306 57.1123 29.7423 57.1571 29.4471L56.7764 29.3895ZM56.4754 29.7361L55.2143 30.6247L55.436 30.9394L56.6971 30.0508L56.4754 29.7361ZM55.1348 30.7533L55.0295 31.4476L55.4102 31.5052L55.5155 30.8109L55.1348 30.7533Z" fill="#D6411E"/>
<path d="M56.1704 37.6031L56.0753 37.4357L55.8264 37.5771L56.0511 37.7542L56.1704 37.6031ZM54.4156 36.3564L54.2707 36.2297L54.1423 36.3765L54.2907 36.5029L54.4156 36.3564ZM54.9825 36.8393L54.8576 36.9859L55.0052 37.1116L55.13 36.963L54.9825 36.8393ZM54.9064 37.0941L54.9353 36.9038L54.745 36.875L54.7161 37.0654L54.9064 37.0941ZM54.8024 37.7793L54.6121 37.7505L54.5832 37.9409L54.7736 37.9697L54.8024 37.7793ZM54.7017 38.0117L54.8861 37.9563L54.8244 37.7507L54.6267 37.8345L54.7017 38.0117ZM53.9626 38.3251L53.8875 38.1479L53.7177 38.2199L53.7822 38.3926L53.9626 38.3251ZM56.7035 38.4828C56.7656 38.0738 56.6132 37.7071 56.2896 37.4519L56.0511 37.7542C56.2701 37.9269 56.3634 38.1581 56.3229 38.4252L56.7035 38.4828ZM56.2654 37.7704C56.5604 37.6028 56.7437 37.3249 56.7964 36.9782L56.4157 36.9206C56.3796 37.1585 56.261 37.3303 56.0753 37.4357L56.2654 37.7704ZM56.7964 36.9782C56.8458 36.6525 56.7482 36.3599 56.5432 36.1387C56.3415 35.9212 56.0457 35.7821 55.7068 35.7309L55.649 36.1115C55.9223 36.1528 56.1311 36.2607 56.2607 36.4005C56.3869 36.5366 56.4474 36.7119 56.4157 36.9206L56.7964 36.9782ZM55.7068 35.7309C55.0843 35.6367 54.6135 35.8379 54.2707 36.2297L54.5604 36.4831C54.817 36.1899 55.1569 36.0371 55.649 36.1115L55.7068 35.7309ZM54.2907 36.5029L54.8576 36.9859L55.1074 36.6928L54.5405 36.2098L54.2907 36.5029ZM55.13 36.963C55.1931 36.8878 55.2482 36.8401 55.3016 36.813C55.3508 36.7881 55.4075 36.7759 55.4857 36.7877L55.5434 36.4071C55.3886 36.3836 55.2506 36.4074 55.1276 36.4697C55.0089 36.5299 54.9145 36.6208 54.835 36.7156L55.13 36.963ZM55.4857 36.7877C55.5537 36.798 55.588 36.8211 55.602 36.8364C55.6117 36.8469 55.6208 36.8623 55.6154 36.8977L55.9961 36.9553C56.0177 36.8125 55.9794 36.6782 55.8859 36.5761C55.7966 36.4788 55.6718 36.4265 55.5434 36.4071L55.4857 36.7877ZM55.6154 36.8977C55.6094 36.9372 55.5936 36.9527 55.5732 36.9634C55.5453 36.9781 55.4945 36.9884 55.4241 36.9778L55.3663 37.3584C55.4924 37.3775 55.6316 37.3675 55.7522 37.3042C55.8803 37.2369 55.9716 37.1167 55.9961 36.9553L55.6154 36.8977ZM55.4241 36.9778L54.9353 36.9038L54.8775 37.2845L55.3663 37.3584L55.4241 36.9778ZM54.7161 37.0654L54.6121 37.7505L54.9928 37.8081L55.0968 37.1229L54.7161 37.0654ZM54.7736 37.9697L55.2852 38.047L55.343 37.6664L54.8313 37.589L54.7736 37.9697ZM55.2852 38.047C55.3986 38.0642 55.4703 38.1021 55.5077 38.1396C55.5389 38.1708 55.5564 38.2103 55.5466 38.275L55.9272 38.3326C55.9548 38.1507 55.9003 37.9877 55.7803 37.8676C55.6666 37.7537 55.5082 37.6914 55.343 37.6664L55.2852 38.047ZM55.5466 38.275C55.5378 38.3329 55.5101 38.3707 55.4726 38.3945C55.4327 38.4199 55.3693 38.4367 55.2841 38.4238L55.2263 38.8045C55.3878 38.8289 55.5483 38.8025 55.6791 38.7193C55.8122 38.6347 55.9021 38.4986 55.9272 38.3326L55.5466 38.275ZM55.2841 38.4238C55.1801 38.4081 55.1117 38.3699 55.0559 38.3076C54.9947 38.2394 54.9385 38.1307 54.8861 37.9563L54.5174 38.0672C54.5767 38.2649 54.6534 38.4356 54.7691 38.5646C54.8901 38.6997 55.0425 38.7767 55.2263 38.8045L55.2841 38.4238ZM54.6267 37.8345L53.8875 38.1479L54.0377 38.5024L54.7768 38.189L54.6267 37.8345ZM53.7822 38.3926C53.8887 38.6777 54.0433 38.9273 54.2669 39.1191C54.4913 39.3118 54.7743 39.437 55.1223 39.4896L55.1801 39.109C54.8931 39.0656 54.6799 38.9662 54.5177 38.827C54.3547 38.6871 54.2325 38.4975 54.1429 38.2577L53.7822 38.3926ZM55.1223 39.4896C55.503 39.5472 55.8668 39.4888 56.1546 39.3153C56.4458 39.1397 56.6474 38.8526 56.7035 38.4828L56.3229 38.4252C56.284 38.6812 56.1495 38.8689 55.9559 38.9856C55.7589 39.1044 55.4893 39.1558 55.1801 39.109L55.1223 39.4896Z" fill="#D6411E"/>
<path d="M52.9334 45.7972L52.7431 45.7684L52.7142 45.9587L52.9045 45.9875L52.9334 45.7972ZM54.3176 46.0066L54.5079 46.0354L54.5368 45.8451L54.3465 45.8163L54.3176 46.0066ZM54.197 46.8014L54.0066 46.7726L53.9777 46.9629L54.1681 46.9917L54.197 46.8014ZM54.969 46.9182L54.9401 47.1085L55.1304 47.1373L55.1593 46.947L54.969 46.9182ZM55.0896 46.1234L55.1185 45.933L54.9282 45.9043L54.8993 46.0946L55.0896 46.1234ZM55.382 46.1676L55.3531 46.3579L55.5434 46.3867L55.5723 46.1964L55.382 46.1676ZM55.4873 45.4733L55.6777 45.5021L55.7066 45.3118L55.5162 45.283L55.4873 45.4733ZM55.195 45.4291L55.0046 45.4003L54.9758 45.5906L55.1661 45.6194L55.195 45.4291ZM55.4542 43.7207L55.6446 43.7495L55.6735 43.5592L55.4831 43.5304L55.4542 43.7207ZM54.568 43.5866L54.5969 43.3963L54.5012 43.3818L54.4325 43.45L54.568 43.5866ZM53.0388 45.1029L52.9033 44.9662L52.858 45.0111L52.8485 45.0741L53.0388 45.1029ZM53.8108 45.2197L53.6765 45.0818L53.3991 45.3521L53.7819 45.41L53.8108 45.2197ZM54.5457 44.5038L54.736 44.5326L54.822 43.9658L54.4113 44.3659L54.5457 44.5038ZM54.423 45.3123L54.3941 45.5026L54.5844 45.5314L54.6133 45.3411L54.423 45.3123ZM52.9045 45.9875L54.2887 46.1969L54.3465 45.8163L52.9623 45.6069L52.9045 45.9875ZM54.1273 45.9778L54.0066 46.7726L54.3873 46.8302L54.5079 46.0354L54.1273 45.9778ZM54.1681 46.9917L54.9401 47.1085L54.9979 46.7278L54.2259 46.6111L54.1681 46.9917ZM55.1593 46.947L55.28 46.1522L54.8993 46.0946L54.7787 46.8894L55.1593 46.947ZM55.0607 46.3137L55.3531 46.3579L55.4109 45.9773L55.1185 45.933L55.0607 46.3137ZM55.5723 46.1964L55.6777 45.5021L55.297 45.4445L55.1916 46.1388L55.5723 46.1964ZM55.5162 45.283L55.2239 45.2387L55.1661 45.6194L55.4585 45.6636L55.5162 45.283ZM55.3853 45.4579L55.6446 43.7495L55.2639 43.6919L55.0046 45.4003L55.3853 45.4579ZM55.4831 43.5304L54.5969 43.3963L54.5391 43.777L55.4254 43.911L55.4831 43.5304ZM54.4325 43.45L52.9033 44.9662L53.1743 45.2395L54.7036 43.7233L54.4325 43.45ZM52.8485 45.0741L52.7431 45.7684L53.1238 45.826L53.2291 45.1317L52.8485 45.0741ZM53.9451 45.3575L54.68 44.6416L54.4113 44.3659L53.6765 45.0818L53.9451 45.3575ZM54.3553 44.475L54.2326 45.2835L54.6133 45.3411L54.736 44.5326L54.3553 44.475ZM54.4518 45.122L53.8397 45.0294L53.7819 45.41L54.3941 45.5026L54.4518 45.122Z" fill="#D6411E"/>
<path d="M52.0665 52.8453L51.8778 52.8071L51.8377 53.0053L52.0376 53.0356L52.0665 52.8453ZM52.3861 53.1413L52.5702 53.0848L52.5076 52.8807L52.311 52.9641L52.3861 53.1413ZM51.6469 53.4547L51.5718 53.2775L51.4028 53.3491L51.4663 53.5214L51.6469 53.4547ZM52.9752 52.2771L52.7869 52.2373L52.7446 52.4369L52.9463 52.4675L52.9752 52.2771ZM53.074 51.8108L53.1029 51.6205L52.9233 51.5933L52.8857 51.771L53.074 51.8108ZM54.3531 52.0043L54.3242 52.1946L54.5146 52.2234L54.5434 52.0331L54.3531 52.0043ZM54.4585 51.31L54.6488 51.3388L54.6777 51.1484L54.4874 51.1196L54.4585 51.31ZM52.4393 51.0045L52.4682 50.8142L52.287 50.7868L52.2507 50.9664L52.4393 51.0045ZM52.0376 53.0356L52.8919 53.1648L52.9497 52.7842L52.0954 52.6549L52.0376 53.0356ZM52.8919 53.1648C53.0562 53.1897 53.1474 53.2332 53.1916 53.2731C53.2243 53.3026 53.2411 53.3371 53.2309 53.4046L53.6116 53.4621C53.6395 53.2783 53.5866 53.1108 53.4497 52.9872C53.3243 52.8742 53.1462 52.8139 52.9497 52.7842L52.8919 53.1648ZM53.2309 53.4046C53.2216 53.4657 53.1938 53.5031 53.1591 53.5258C53.1221 53.5499 53.0611 53.5673 52.973 53.554L52.9152 53.9347C53.0784 53.9594 53.2389 53.9332 53.3693 53.8483C53.5018 53.7619 53.5869 53.6249 53.6116 53.4621L53.2309 53.4046ZM52.973 53.554C52.8735 53.539 52.804 53.5017 52.7459 53.4383C52.683 53.3698 52.6239 53.2602 52.5702 53.0848L52.202 53.1977C52.2639 53.3996 52.3445 53.5705 52.4621 53.6986C52.5844 53.832 52.7361 53.9076 52.9152 53.9347L52.973 53.554ZM52.311 52.9641L51.5718 53.2775L51.722 53.6319L52.4612 53.3185L52.311 52.9641ZM51.4663 53.5214C51.573 53.8106 51.7318 54.0608 51.9576 54.2521C52.1841 54.4438 52.468 54.5679 52.8113 54.6198L52.869 54.2392C52.5864 54.1964 52.3714 54.0979 52.2066 53.9583C52.0411 53.8182 51.9162 53.6282 51.8276 53.388L51.4663 53.5214ZM52.8113 54.6198C53.1868 54.6767 53.5525 54.6151 53.8439 54.4305C54.1384 54.2438 54.3428 53.94 54.4029 53.5445L54.0222 53.4869C53.9782 53.7765 53.8345 53.9807 53.6379 54.1053C53.4381 54.2319 53.1696 54.2847 52.869 54.2392L52.8113 54.6198ZM54.4029 53.5445C54.4585 53.1776 54.3984 52.8423 54.165 52.5806C53.9381 52.326 53.5749 52.1732 53.0955 52.1006L53.0377 52.4813C53.4764 52.5477 53.7362 52.6783 53.8776 52.8369C54.0126 52.9884 54.0663 53.196 54.0222 53.4869L54.4029 53.5445ZM53.0955 52.1006L53.0041 52.0868L52.9463 52.4675L53.0377 52.4813L53.0955 52.1006ZM53.1635 52.317L53.2624 51.8506L52.8857 51.771L52.7869 52.2373L53.1635 52.317ZM53.0451 52.0011L54.3242 52.1946L54.382 51.814L53.1029 51.6205L53.0451 52.0011ZM54.5434 52.0331L54.6488 51.3388L54.2681 51.2812L54.1628 51.9755L54.5434 52.0331ZM54.4874 51.1196L52.4682 50.8142L52.4105 51.1949L54.4296 51.5003L54.4874 51.1196ZM52.2507 50.9664L51.8778 52.8071L52.2552 52.8834L52.628 51.0427L52.2507 50.9664Z" fill="#D6411E"/>
<path d="M51.5214 59.9606L51.335 59.9127L51.2248 60.3405L51.6132 60.1298L51.5214 59.9606ZM52.7494 59.7211L52.5868 59.8242L52.6879 59.9839L52.8494 59.8855L52.7494 59.7211ZM53.4136 59.3169L53.5136 59.4814L53.6759 59.3826L53.5794 59.219L53.4136 59.3169ZM51.4323 60.6714L51.3022 60.5296L51.2391 60.5874L51.2397 60.6728L51.4323 60.6714ZM52.4048 58.451C51.8408 58.3657 51.39 58.4981 51.0624 58.809C50.7423 59.1128 50.5645 59.5637 50.4876 60.0706L50.8683 60.1281C50.9383 59.6666 51.0932 59.3104 51.3274 59.0882C51.5539 58.8732 51.8786 58.7608 52.347 58.8316L52.4048 58.451ZM50.4876 60.0706C50.4053 60.613 50.4514 61.1029 50.6579 61.4831C50.8691 61.8718 51.235 62.1212 51.7335 62.1966L51.7913 61.816C51.399 61.7566 51.144 61.571 50.9963 61.2992C50.8439 61.0188 50.7932 60.6226 50.8683 60.1281L50.4876 60.0706ZM51.7335 62.1966C52.1589 62.261 52.5344 62.1709 52.8194 61.9645C53.1038 61.7586 53.2851 61.4462 53.3391 61.0907L52.9584 61.0331C52.9188 61.2942 52.7884 61.5117 52.5937 61.6527C52.3997 61.7932 52.1287 61.867 51.7913 61.816L51.7335 62.1966ZM53.3391 61.0907C53.3909 60.7492 53.3246 60.4187 53.1392 60.1563C52.9529 59.8925 52.6575 59.7135 52.2825 59.6567L52.2248 60.0374C52.5076 60.0802 52.7052 60.2093 52.8247 60.3785C52.9451 60.549 52.9974 60.7761 52.9584 61.0331L53.3391 61.0907ZM52.2825 59.6567C51.9616 59.6082 51.6785 59.6564 51.4297 59.7914L51.6132 60.1298C51.7819 60.0382 51.9792 60.0002 52.2248 60.0374L52.2825 59.6567ZM51.7079 60.0085C51.7653 59.7857 51.8441 59.6592 51.9243 59.5925C51.9976 59.5316 52.0928 59.5034 52.2325 59.5246L52.2903 59.1439C52.0645 59.1098 51.8523 59.1519 51.6783 59.2965C51.5111 59.4355 51.4027 59.6498 51.335 59.9127L51.7079 60.0085ZM52.2325 59.5246C52.3691 59.5452 52.4688 59.6379 52.5868 59.8242L52.9121 59.6181C52.7812 59.4116 52.6013 59.191 52.2903 59.1439L52.2325 59.5246ZM52.8494 59.8855L53.5136 59.4814L53.3135 59.1525L52.6494 59.5567L52.8494 59.8855ZM53.5794 59.219C53.3922 58.902 53.0343 58.5462 52.4048 58.451L52.347 58.8316C52.8413 58.9064 53.1078 59.1778 53.2478 59.4149L53.5794 59.219ZM51.9662 60.6945C52.0541 60.7078 52.1048 60.7429 52.1317 60.778C52.158 60.8122 52.1756 60.8644 52.164 60.9409L52.5446 60.9985C52.5698 60.833 52.5357 60.6717 52.4371 60.5434C52.3391 60.4158 52.1917 60.3392 52.0239 60.3139L51.9662 60.6945ZM52.164 60.9409C52.1528 61.0145 52.1201 61.0601 52.081 61.0868C52.0407 61.1144 51.976 61.1337 51.8829 61.1196L51.8252 61.5002C51.9971 61.5263 52.1641 61.4964 52.2985 61.4045C52.4341 61.3116 52.5191 61.1671 52.5446 60.9985L52.164 60.9409ZM51.8829 61.1196C51.7892 61.1054 51.7367 61.071 51.7015 61.0201C51.6611 60.9618 51.6261 60.8567 51.6248 60.6699L51.2397 60.6728C51.2414 60.8977 51.2825 61.0915 51.3849 61.2394C51.4925 61.3947 51.6494 61.4737 51.8252 61.5002L51.8829 61.1196ZM51.5624 60.8132C51.6745 60.7104 51.8103 60.6709 51.9662 60.6945L52.0239 60.3139C51.7595 60.2738 51.5049 60.3436 51.3022 60.5296L51.5624 60.8132Z" fill="#D6411E"/>
</svg>
