<svg width="200" height="160" viewBox="0 0 200 160" fill="none" xmlns="http://www.w3.org/2000/svg">
<rect width="200" height="160" fill="white"/>
<g clip-path="url(#clip0)">
<path d="M84.83 25.4001C83.51 25.6101 81.5 24.6401 80.27 24.2901C72.7784 22.0521 64.8085 21.9655 57.27 24.0401C50.51 26.2601 44.72 30.9801 39.73 35.8801C30.35 45.1101 23.62 57.8001 22.99 71.1401C22.7643 75.6318 23.6902 80.1067 25.68 84.1401C27.7424 88.6013 30.4 92.7625 33.58 96.5101C35.85 99.0901 39.43 100.31 42.58 101.35C46.43 102.61 49.14 103.56 52.2 106.28C58.8 112.15 60.54 121.91 62.94 130.03C65.01 137.03 71.18 143.4 78.4 145.2C86.86 147.3 97.72 145.94 105.51 142.2C109.35 140.35 112.04 137.79 115.27 135.11C119.241 131.704 123.89 129.182 128.91 127.71C136.56 125.59 144.5 129.31 151.91 125.93C160.73 121.93 168.35 115.67 172.68 106.88C175.16 101.88 176.97 95.7601 176.45 90.1101C175.88 83.7301 173.1 78.3001 169.35 73.2301C167.248 70.2292 164.606 67.6454 161.56 65.6101C159.07 64.0901 156.44 64.07 153.62 64.09C146.13 64.15 138.99 65.9701 131.48 65.2001C127.03 64.7401 123.48 63.9801 119.77 61.3201C117.578 59.6339 115.745 57.5257 114.38 55.12C113.321 53.105 112.48 50.9831 111.87 48.7901C111.1 46.6401 110.87 44.23 109.7 42.28C107.37 38.46 105.7 34.3801 102.22 31.4101C99.5098 29.0993 96.3246 27.4128 92.89 26.4701C90.34 25.7301 87.64 25.9301 85.07 25.3801C81.88 24.6201 79.25 23.2201 84.83 25.4001Z" fill="#FFF1ED"/>
<path d="M93.0545 84.7132L93.0448 84.7155C88.7857 85.7357 86.1599 90.0155 87.1801 94.2746L90.8768 109.708C91.897 113.967 96.1768 116.593 100.436 115.573L100.446 115.57C104.705 114.55 107.33 110.27 106.31 106.011L102.614 90.5779C101.593 86.3188 97.3136 83.6931 93.0545 84.7132Z" fill="white" stroke="#D6411E" stroke-width="3" stroke-miterlimit="10"/>
<path d="M92.25 94.69C92.25 94.69 73.97 86.41 69.91 68.88" stroke="#D6411E" stroke-width="3" stroke-miterlimit="10"/>
<path d="M47.29 46.51C47.3251 45.9372 47.3251 45.3628 47.29 44.79C47.2015 44.1669 46.8925 43.5962 46.4191 43.1815C45.9457 42.7669 45.3393 42.5357 44.71 42.53C43.78 42.53 42.84 42.53 41.91 42.53C41.8403 42.5401 41.7692 42.527 41.7078 42.4927C41.6463 42.4583 41.5979 42.4047 41.57 42.34C41.0594 41.383 40.644 40.3782 40.33 39.34C40.3112 39.2853 40.3097 39.2262 40.3259 39.1707C40.342 39.1152 40.3749 39.066 40.42 39.03C41.09 38.36 41.76 37.7 42.42 37.03C42.9189 36.5295 43.1991 35.8517 43.1991 35.145C43.1991 34.4383 42.9189 33.7605 42.42 33.26C41.77 32.61 41.14 31.96 40.49 31.33C40.4332 31.2825 40.3928 31.2181 40.3749 31.1463C40.3569 31.0744 40.3622 30.9987 40.39 30.93C40.6944 29.9106 41.1032 28.9254 41.61 27.99C41.6369 27.9289 41.6822 27.8777 41.7396 27.8437C41.7969 27.8096 41.8635 27.7943 41.93 27.8C42.81 27.8 43.7 27.8 44.58 27.8C44.9519 27.8155 45.3229 27.7537 45.6697 27.6185C46.0164 27.4833 46.3313 27.2776 46.5945 27.0144C46.8576 26.7513 47.0633 26.4364 47.1985 26.0896C47.3337 25.7429 47.3955 25.3718 47.38 25C47.38 24.12 47.38 23.25 47.38 22.37C47.3753 22.2998 47.3919 22.2298 47.4275 22.1691C47.4632 22.1085 47.5164 22.06 47.58 22.03C48.5336 21.5148 49.5392 21.1025 50.58 20.8C50.6335 20.7785 50.6924 20.7747 50.7482 20.7891C50.8039 20.8035 50.8536 20.8353 50.89 20.88L52.84 22.83C53.0899 23.0879 53.389 23.293 53.7197 23.4331C54.0504 23.5732 54.4059 23.6454 54.765 23.6454C55.1241 23.6454 55.4796 23.5732 55.8103 23.4331C56.141 23.293 56.4401 23.0879 56.69 22.83C57.33 22.18 57.98 21.54 58.62 20.9C58.657 20.8502 58.7091 20.8136 58.7685 20.7956C58.8279 20.7776 58.8915 20.7791 58.95 20.8C59.9879 21.1106 60.9928 21.5225 61.95 22.03C62.0102 22.058 62.0605 22.1035 62.0944 22.1606C62.1283 22.2177 62.1442 22.2837 62.14 22.35C62.14 23.24 62.14 24.14 62.14 25.03C62.1289 25.3976 62.1932 25.7636 62.3291 26.1054C62.465 26.4472 62.6696 26.7575 62.9301 27.0171C63.1906 27.2767 63.5017 27.4801 63.8439 27.6148C64.1862 27.7494 64.5524 27.8125 64.92 27.8C65.81 27.8 66.7 27.8 67.6 27.8C67.6616 27.7925 67.724 27.8049 67.778 27.8355C67.832 27.8661 67.8748 27.9133 67.9 27.97C68.4184 28.9233 68.834 29.9289 69.14 30.97C69.1651 31.0302 69.1699 31.0969 69.1536 31.1601C69.1374 31.2232 69.101 31.2794 69.05 31.32L67.14 33.23C66.882 33.4799 66.6769 33.779 66.5369 34.1097C66.3968 34.4404 66.3246 34.7958 66.3246 35.155C66.3246 35.5141 66.3968 35.8696 66.5369 36.2003C66.6769 36.531 66.882 36.8301 67.14 37.08C67.78 37.74 68.44 38.38 69.14 39.03C69.1894 39.0673 69.225 39.1199 69.2413 39.1796C69.2575 39.2393 69.2536 39.3028 69.23 39.36C68.9275 40.4007 68.5152 41.4064 68 42.36C67.9744 42.422 67.9294 42.4741 67.8717 42.5083C67.814 42.5426 67.7467 42.5572 67.68 42.55C66.7866 42.55 65.8967 42.55 65.01 42.55C64.6424 42.5375 64.2761 42.6005 63.9339 42.7352C63.5916 42.8699 63.2806 43.0733 63.0201 43.3329C62.7595 43.5925 62.555 43.9028 62.4191 44.2446C62.2832 44.5863 62.2189 44.9524 62.23 45.32C62.23 46.21 62.23 47.09 62.23 47.98C62.2378 48.0506 62.2224 48.1219 62.1864 48.1832C62.1504 48.2444 62.0955 48.2924 62.03 48.32C61.0953 48.8208 60.114 49.2294 59.1 49.54C59.0356 49.569 58.9634 49.5759 58.8947 49.5597C58.826 49.5434 58.7645 49.5048 58.72 49.45C58.1 48.82 57.47 48.2 56.84 47.58C56.5895 47.2967 56.2816 47.0699 55.9368 46.9145C55.592 46.7592 55.2182 46.6789 54.84 46.6789C54.4618 46.6789 54.088 46.7592 53.7432 46.9145C53.3984 47.0699 53.0906 47.2967 52.84 47.58L50.98 49.44C50.9385 49.4957 50.8794 49.5359 50.8123 49.554C50.7452 49.5721 50.674 49.5672 50.61 49.54C49.5647 49.2418 48.5578 48.8223 47.61 48.29C47.5657 48.259 47.5284 48.2188 47.5008 48.1723C47.4732 48.1257 47.4559 48.0738 47.45 48.02C47.45 47.52 47.45 47.02 47.45 46.53L47.29 46.51ZM60.05 35.16C60.0481 34.1003 59.732 33.065 59.1418 32.1849C58.5517 31.3047 57.7139 30.6193 56.7343 30.2151C55.7547 29.811 54.6773 29.7062 53.6382 29.9142C52.5992 30.1221 51.645 30.6334 50.8964 31.3834C50.1478 32.1334 49.6383 33.0885 49.4323 34.128C49.2263 35.1674 49.333 36.2446 49.739 37.2235C50.145 38.2023 50.832 39.0388 51.7132 39.6273C52.5944 40.2159 53.6303 40.53 54.69 40.53C55.3951 40.5313 56.0935 40.3932 56.745 40.1237C57.3966 39.8542 57.9885 39.4585 58.4866 38.9595C58.9847 38.4604 59.3793 37.8679 59.6476 37.2158C59.9159 36.5637 60.0527 35.8651 60.05 35.16Z" fill="white" stroke="#0C866F" stroke-width="3" stroke-miterlimit="10"/>
<path d="M73.47 62.9999C73.9925 62.429 74.4769 61.8244 74.92 61.1899C75.3586 60.4627 75.5211 59.602 75.3779 58.7649C75.2347 57.9278 74.7954 57.1701 74.14 56.6299C73.14 55.8199 72.14 55.0299 71.2 54.2399C71.116 54.1934 71.0509 54.1189 71.0162 54.0294C70.9815 53.9398 70.9793 53.8409 71.01 53.7499C71.2767 52.3172 71.6923 50.9163 72.25 49.5699C72.2769 49.4962 72.3259 49.4326 72.3903 49.3878C72.4548 49.343 72.5316 49.3193 72.6101 49.3199C73.8801 49.1899 75.14 49.0599 76.41 48.8999C76.8813 48.8466 77.3373 48.7006 77.752 48.4705C78.1667 48.2403 78.5318 47.9305 78.8264 47.5588C79.1209 47.1871 79.3392 46.7608 79.4685 46.3046C79.5978 45.8483 79.6357 45.3709 79.58 44.8999C79.45 43.6799 79.33 42.4599 79.19 41.2399C79.1702 41.1418 79.1829 41.0399 79.2262 40.9497C79.2695 40.8595 79.341 40.7858 79.43 40.7399C80.617 39.9436 81.8839 39.2733 83.21 38.7399C83.2882 38.6966 83.3784 38.68 83.4668 38.6926C83.5553 38.7053 83.6371 38.7465 83.7 38.8099C84.62 39.5699 85.55 40.3099 86.48 41.0599C86.8563 41.3943 87.2982 41.6466 87.7775 41.8005C88.2568 41.9545 88.763 42.0068 89.2636 41.9541C89.7643 41.9014 90.2485 41.7449 90.6852 41.4945C91.1219 41.2441 91.5016 40.9054 91.8001 40.4999C92.5501 39.5899 93.29 38.6699 94.03 37.7499C94.079 37.6679 94.1532 37.6041 94.2416 37.568C94.33 37.532 94.4277 37.5256 94.52 37.5499C95.9519 37.8247 97.3524 38.2435 98.7 38.7999C98.7767 38.8214 98.8444 38.8671 98.893 38.9302C98.9417 38.9932 98.9687 39.0703 98.97 39.1499C99.09 40.3899 99.22 41.6199 99.35 42.8499C99.3924 43.3295 99.5301 43.7957 99.7553 44.2212C99.9805 44.6467 100.288 45.0228 100.661 45.3275C101.034 45.6322 101.464 45.8593 101.926 45.9954C102.387 46.1315 102.872 46.1738 103.35 46.1199L107.01 45.7399C107.091 45.7179 107.178 45.7237 107.256 45.7563C107.334 45.7889 107.399 45.8464 107.44 45.9199C108.268 47.1203 108.969 48.4039 109.53 49.7499C109.574 49.8296 109.591 49.9215 109.579 50.0116C109.566 50.1018 109.524 50.1854 109.46 50.2499C108.69 51.1799 107.94 52.1099 107.18 53.0499C106.855 53.4253 106.61 53.8633 106.461 54.3371C106.312 54.8108 106.261 55.3102 106.313 55.8042C106.364 56.2982 106.517 56.7763 106.761 57.209C107.004 57.6418 107.334 58.0199 107.73 58.3199L110.54 60.5999C110.611 60.6438 110.667 60.7089 110.699 60.786C110.731 60.8631 110.739 60.9484 110.72 61.0299C110.452 62.4655 110.036 63.8697 109.48 65.2199C109.454 65.3062 109.402 65.3819 109.33 65.4359C109.258 65.49 109.17 65.5194 109.08 65.52C107.87 65.63 106.66 65.7699 105.45 65.8999C104.967 65.9357 104.496 66.069 104.066 66.2916C103.635 66.5143 103.255 66.8218 102.946 67.1955C102.638 67.5692 102.408 68.0015 102.271 68.4663C102.135 68.9311 102.093 69.4187 102.15 69.8999C102.26 71.1399 102.39 72.3699 102.53 73.5999C102.549 73.6814 102.541 73.7667 102.509 73.8439C102.477 73.921 102.421 73.9861 102.35 74.0299C101.145 74.8565 99.8583 75.5569 98.51 76.1199C98.4319 76.1632 98.3418 76.1799 98.2533 76.1672C98.1649 76.1546 98.0829 76.1134 98.02 76.0499C97.09 75.2799 96.15 74.52 95.21 73.77C94.8347 73.4447 94.3966 73.1999 93.9229 73.0507C93.4491 72.9015 92.9498 72.8511 92.4558 72.9027C91.9618 72.9542 91.4836 73.1066 91.0509 73.3504C90.6182 73.5942 90.2401 73.9242 89.94 74.3199C89.19 75.2499 88.43 76.1699 87.69 77.0999C87.6411 77.1819 87.5669 77.2458 87.4785 77.2819C87.3901 77.3179 87.2923 77.3243 87.2 77.2999C85.7897 77.0307 84.4096 76.622 83.08 76.0799C82.9867 76.0571 82.904 76.0029 82.8458 75.9265C82.7875 75.8501 82.7573 75.756 82.76 75.6599C82.64 74.4799 82.51 73.2899 82.38 72.1099C82.3525 71.6063 82.2197 71.114 81.9902 70.6648C81.7608 70.2155 81.4397 69.8194 81.0478 69.5019C80.6558 69.1844 80.2017 68.9525 79.7147 68.8213C79.2276 68.69 78.7185 68.6623 78.22 68.7399L74.69 69.1099C74.598 69.1327 74.5012 69.1245 74.4144 69.0865C74.3276 69.0485 74.2557 68.9829 74.21 68.8999C73.3817 67.7011 72.6907 66.4131 72.15 65.0599C72.1272 64.99 72.1207 64.9158 72.1311 64.8429C72.1415 64.7701 72.1685 64.7007 72.21 64.6399C72.62 64.0999 73.05 63.5899 73.47 63.0699V62.9999ZM96.47 61.9499C97.3716 60.8372 97.9229 59.4821 98.0542 58.0561C98.1855 56.63 97.891 55.197 97.2078 53.9383C96.5247 52.6797 95.4835 51.6519 94.2162 50.985C92.9488 50.3181 91.5122 50.0421 90.0879 50.1918C88.6636 50.3415 87.3158 50.9102 86.2148 51.826C85.1138 52.7419 84.3091 53.9637 83.9026 55.3368C83.496 56.71 83.5059 58.1729 83.9309 59.5406C84.3558 60.9082 85.1768 62.119 86.29 63.02C87.0274 63.6276 87.8784 64.0824 88.7933 64.3578C89.7083 64.6332 90.6689 64.7238 91.6192 64.6242C92.5695 64.5246 93.4905 64.2368 94.3284 63.7777C95.1664 63.3186 95.9046 62.6973 96.5 61.9499H96.47Z" fill="white" stroke="#5770BB" stroke-width="3" stroke-miterlimit="10"/>
<path d="M121.71 67.14C122.008 66.8248 122.285 66.4908 122.54 66.14C122.797 65.7261 122.895 65.2324 122.814 64.7518C122.732 64.2712 122.479 63.8367 122.1 63.53C121.54 63.07 120.98 62.61 120.41 62.16C120.365 62.1305 120.33 62.0877 120.31 62.0375C120.291 61.9874 120.287 61.9323 120.3 61.88C120.454 61.06 120.696 60.2588 121.02 59.49C121.032 59.4469 121.058 59.4092 121.095 59.3836C121.131 59.358 121.176 59.3461 121.22 59.35C121.95 59.27 122.67 59.2 123.39 59.11C123.933 59.0472 124.429 58.7722 124.77 58.3451C125.111 57.918 125.269 57.3733 125.21 56.83C125.13 56.13 125.07 55.43 124.98 54.73C124.971 54.6731 124.979 54.6148 125.004 54.5629C125.029 54.511 125.07 54.4681 125.12 54.44C125.799 53.9816 126.523 53.5929 127.28 53.28C127.322 53.2484 127.373 53.2312 127.425 53.2312C127.477 53.2312 127.528 53.2484 127.57 53.28L129.16 54.57C129.375 54.7529 129.625 54.8902 129.895 54.9735C130.164 55.0567 130.448 55.0842 130.729 55.0543C131.009 55.0244 131.281 54.9376 131.527 54.7993C131.773 54.6611 131.988 54.4742 132.16 54.25L133.43 52.67C133.459 52.6217 133.503 52.5846 133.556 52.5646C133.609 52.5446 133.666 52.543 133.72 52.56C134.538 52.7171 135.339 52.955 136.11 53.27C136.152 53.2842 136.189 53.3109 136.216 53.3466C136.243 53.3824 136.258 53.4254 136.26 53.47C136.33 54.18 136.41 54.88 136.48 55.59C136.505 55.8661 136.585 56.1344 136.715 56.379C136.846 56.6236 137.024 56.8394 137.239 57.0139C137.455 57.1883 137.703 57.3176 137.969 57.3943C138.236 57.4709 138.515 57.4932 138.79 57.46L140.88 57.24C140.927 57.2283 140.976 57.2317 141.021 57.2496C141.066 57.2676 141.104 57.2992 141.13 57.34C141.604 58.0287 142.003 58.7663 142.32 59.54C142.351 59.5802 142.368 59.6294 142.368 59.68C142.368 59.7306 142.351 59.7798 142.32 59.82L141.02 61.43C140.836 61.6443 140.697 61.8941 140.613 62.164C140.529 62.4339 140.501 62.7181 140.531 62.9992C140.561 63.2803 140.648 63.5522 140.788 63.7983C140.927 64.0444 141.115 64.2594 141.34 64.43L142.94 65.73C142.982 65.7547 143.015 65.7927 143.033 65.8379C143.051 65.8832 143.053 65.9332 143.04 65.98C142.889 66.8029 142.651 67.6074 142.33 68.38C142.316 68.4277 142.287 68.4696 142.247 68.5001C142.208 68.5306 142.16 68.548 142.11 68.55L140.03 68.76C139.753 68.7823 139.484 68.8602 139.237 68.9889C138.991 69.1176 138.773 69.2945 138.597 69.5091C138.421 69.7237 138.289 69.9716 138.211 70.2381C138.132 70.5045 138.108 70.784 138.14 71.06C138.2 71.76 138.28 72.47 138.36 73.17C138.371 73.218 138.366 73.2681 138.346 73.3131C138.326 73.3581 138.293 73.3956 138.25 73.42C137.564 73.8924 136.83 74.2912 136.06 74.61C136.019 74.6393 135.97 74.6551 135.92 74.6551C135.87 74.6551 135.821 74.6393 135.78 74.61C135.25 74.17 134.71 73.74 134.17 73.31C133.956 73.1252 133.707 72.986 133.438 72.9012C133.168 72.8163 132.884 72.7875 132.603 72.8165C132.322 72.8455 132.05 72.9318 131.803 73.07C131.557 73.2082 131.341 73.3954 131.17 73.62L129.88 75.21C129.853 75.2575 129.81 75.2943 129.759 75.3143C129.708 75.3343 129.652 75.3363 129.6 75.32C128.792 75.1697 128.002 74.9385 127.24 74.63C127.188 74.6149 127.142 74.5833 127.11 74.54C127.078 74.4967 127.06 74.4441 127.06 74.39C126.99 73.71 126.92 73.03 126.84 72.39C126.824 72.1023 126.748 71.8211 126.616 71.5646C126.485 71.3082 126.301 71.0821 126.077 70.9012C125.852 70.7202 125.593 70.5883 125.314 70.5141C125.036 70.4398 124.745 70.4248 124.46 70.47L122.46 70.68C122.407 70.6955 122.35 70.692 122.298 70.6701C122.247 70.6483 122.206 70.6093 122.18 70.56C121.703 69.8746 121.307 69.1363 121 68.36C120.983 68.3223 120.974 68.2814 120.974 68.24C120.974 68.1986 120.983 68.1577 121 68.12L121.73 67.22L121.71 67.14ZM134.89 66.54C135.405 65.903 135.719 65.1277 135.793 64.3121C135.867 63.4966 135.697 62.6773 135.306 61.9581C134.914 61.2389 134.318 60.652 133.593 60.2717C132.867 59.8914 132.046 59.7347 131.231 59.8214C130.417 59.9082 129.647 60.2344 129.018 60.759C128.389 61.2836 127.93 61.983 127.698 62.7685C127.467 63.5541 127.474 64.3906 127.718 65.1723C127.962 65.954 128.433 66.6457 129.07 67.16C129.492 67.5069 129.98 67.7663 130.503 67.9231C131.027 68.0798 131.576 68.1309 132.12 68.0732C132.663 68.0154 133.19 67.8502 133.669 67.587C134.148 67.3238 134.57 66.9679 134.91 66.54H134.89Z" fill="white" stroke="#0C866F" stroke-width="3" stroke-miterlimit="10"/>
<path d="M34.29 29.7999C34.29 29.7999 34.5 29.29 34.93 28.45" stroke="#D6411E" stroke-width="3" stroke-miterlimit="10"/>
<path d="M36.43 25.88C39.4879 21.0813 44.2216 17.5917 49.71 16.09C54.5392 14.9189 59.6302 15.5598 64.0184 17.8913C68.4067 20.2227 71.7874 24.0827 73.52 28.74C75.0186 32.5361 74.9719 36.7679 73.39 40.53C68.72 51.74 65.26 55.2 66.19 61.74" stroke="#D6411E" stroke-width="3" stroke-miterlimit="10" stroke-dasharray="2.95 2.95"/>
<path d="M66.41 63.1899C66.52 63.6599 66.64 64.1399 66.79 64.6499" stroke="#D6411E" stroke-width="3" stroke-miterlimit="10"/>
<path d="M93.72 84.29C97.5915 84.29 100.73 81.1515 100.73 77.28C100.73 73.4084 97.5915 70.27 93.72 70.27C89.8485 70.27 86.71 73.4084 86.71 77.28C86.71 81.1515 89.8485 84.29 93.72 84.29Z" fill="white" stroke="#D6411E" stroke-width="3" stroke-miterlimit="10"/>
<path d="M95.78 109.19C95.78 109.19 81.59 128.53 88.69 142.99" stroke="#D6411E" stroke-width="3" stroke-miterlimit="10"/>
<path d="M100.44 115.59C100.44 115.59 96.16 127.34 104.28 142.65" stroke="#D6411E" stroke-width="3" stroke-miterlimit="10"/>
</g>
<defs>
<clipPath id="clip0">
<rect width="153.65" height="132.18" fill="white" transform="translate(23 14)"/>
</clipPath>
</defs>
</svg>
