<svg width="200" height="160" viewBox="0 0 200 160" fill="none" xmlns="http://www.w3.org/2000/svg">
<rect width="200" height="160" fill="white"/>
<g clip-path="url(#clip0)">
<path d="M19.05 68.3001C19.19 69.9001 16.05 71.4401 15.05 72.4201C13.22 74.2901 12.47 76.5401 11.48 78.9401C8.48001 86.1201 10.16 94.31 14.66 100.59C17.78 104.95 20.18 109.59 25.66 111.39C28.56 112.32 31.66 111.65 34.66 111.79C39.01 111.99 43.38 113.1 47.66 113.71C54.98 114.77 61.92 116.76 67.5 121.86C73.91 127.69 81.9 131.63 90.73 131.56C101.92 131.48 113.95 129.83 124.48 126.01C135.78 121.92 138.85 110.21 147.92 103.44C153.2 99.51 159.64 97.0201 165.56 94.2401C171.12 91.6301 176.37 90.24 180.78 85.81C185.45 81.17 188.31 76.6401 189.35 70.0201C190.45 63.0201 190.77 53.7401 187.35 47.2501C185.321 43.2031 182.27 39.7561 178.5 37.2501C173.71 34.1201 169.5 33.6501 163.81 33.9901C151.51 34.7301 141.81 40.5901 131.91 47.4101C124.7 52.4101 117.03 56.4101 108.28 52.5101C104.44 50.7801 101.17 47.4201 97.97 44.7701C95.97 43.1001 94.1 41.1401 91.76 39.9101C89.7207 39.0186 87.6142 38.2897 85.4601 37.7301C78.7601 35.5101 72.15 32.8101 64.99 32.3301C61.17 32.0701 56.9901 33.1301 53.1501 33.7601C49.9698 34.1446 46.8767 35.0607 44 36.4701C41.7255 37.7363 39.7372 39.459 38.16 41.5301C36.57 43.4401 33.94 45.2501 32.78 47.3401C31.51 49.6501 30.78 52.1801 29.36 54.5101C28.19 56.5101 27.31 58.71 26.23 60.78C22.92 67.34 17.37 72.6101 19.05 68.3001Z" fill="#0C866F" fill-opacity="0.1"/>
<path d="M85.28 118.52H68.72V133.96H85.28V118.52Z" fill="white" stroke="#5770BB" stroke-width="3" stroke-miterlimit="10"/>
<path d="M91.23 118.52H85.28V133.96H91.23V118.52Z" fill="white" stroke="#D6411E" stroke-width="3" stroke-miterlimit="10"/>
<path d="M73.61 29.78C89.8 28.98 114.47 34.99 114.47 57.88C114.47 80.77 91.28 89.51 91.28 89.51V111.65H84.37L84.51 80.21L98.8 62.38L94.8 45.51L71.37 35.37L73.61 29.78Z" fill="white" stroke="#D6411E" stroke-width="3" stroke-miterlimit="10"/>
<path d="M62.58 59.92H69.47C69.47 59.92 69.01 49.07 77.33 46.12C85.65 43.17 73 40.02 73 40.02L57.37 55.64L62.58 59.92Z" fill="white" stroke="#D6411E" stroke-width="3" stroke-miterlimit="10"/>
<path d="M46.21 59.92H62.58C62.58 59.92 64.45 42.25 82.77 46.92C82.77 46.92 93.09 51.39 90.86 61.62C88.63 71.85 81.19 75.2 77.47 75.2H68.69V111.66H85.09L84.91 89.51C84.91 89.51 112.63 77.05 107.98 53.98C103.33 30.91 74.3 29.79 74.3 29.79C74.3 29.79 44.72 27.92 46.21 59.92Z" fill="white" stroke="#5770BB" stroke-width="3" stroke-miterlimit="10"/>
<path d="M112.07 44.1C117.206 44.1 121.37 39.9362 121.37 34.8C121.37 29.6638 117.206 25.5 112.07 25.5C106.934 25.5 102.77 29.6638 102.77 34.8C102.77 39.9362 106.934 44.1 112.07 44.1Z" fill="white" stroke="#0C866F" stroke-width="3" stroke-miterlimit="10"/>
<path d="M125.28 56.47C125.28 49.6382 119.742 44.1 112.91 44.1C106.078 44.1 100.54 49.6382 100.54 56.47V83.26C100.54 90.0917 106.078 95.63 112.91 95.63C119.742 95.63 125.28 90.0917 125.28 83.26V56.47Z" fill="white" stroke="#0C866F" stroke-width="3" stroke-miterlimit="10"/>
<path d="M112.91 95.64C112.91 95.64 118.58 115.74 112.07 133.23L112.91 95.64Z" fill="white"/>
<path d="M112.91 95.64C112.91 95.64 118.58 115.74 112.07 133.23" stroke="#0C866F" stroke-width="3" stroke-miterlimit="10"/>
<path d="M121.37 92.26C121.37 92.26 131.98 101.41 131.79 108.67C131.6 115.93 118.79 118.53 118.79 118.53" stroke="#0C866F" stroke-width="3" stroke-miterlimit="10"/>
<path d="M100.98 53.97C100.98 53.97 104.98 82.97 112.07 74.06C119.16 65.15 121.37 40.0601 121.37 40.0601" stroke="#0C866F" stroke-width="3" stroke-miterlimit="10"/>
<path d="M125.28 53.23C125.28 53.23 138.12 75.23 129.56 75.77C123.68 75.9807 117.798 75.4056 112.07 74.06" stroke="#0C866F" stroke-width="3" stroke-miterlimit="10"/>
</g>
<defs>
<clipPath id="clip0">
<rect width="180.19" height="111.46" fill="white" transform="translate(10 24)"/>
</clipPath>
</defs>
</svg>
