<svg width="56" height="56" viewBox="0 0 56 56" fill="none" xmlns="http://www.w3.org/2000/svg">
<g clip-path="url(#clip0)">
<path d="M27.7301 54.6C42.57 54.6 54.6001 42.5699 54.6001 27.73C54.6001 12.8901 42.57 0.859985 27.7301 0.859985C12.8902 0.859985 0.860107 12.8901 0.860107 27.73C0.860107 42.5699 12.8902 54.6 27.7301 54.6Z" fill="white" stroke="#D6411E" stroke-width="1.71001" stroke-miterlimit="10"/>
<path d="M27.7301 43.89C36.655 43.89 43.8901 36.6549 43.8901 27.73C43.8901 18.8051 36.655 11.57 27.7301 11.57C18.8051 11.57 11.5701 18.8051 11.5701 27.73C11.5701 36.6549 18.8051 43.89 27.7301 43.89Z" fill="white" stroke="#D6411E" stroke-width="1.71001" stroke-miterlimit="10"/>
<path d="M27.7301 34.6C31.5243 34.6 34.6001 31.5242 34.6001 27.73C34.6001 23.9358 31.5243 20.86 27.7301 20.86C23.9359 20.86 20.8601 23.9358 20.8601 27.73C20.8601 31.5242 23.9359 34.6 27.7301 34.6Z" fill="white" stroke="#D6411E" stroke-width="1.71001" stroke-miterlimit="10"/>
</g>
<defs>
<clipPath id="clip0">
<rect width="55.46" height="55.46" fill="white"/>
</clipPath>
</defs>
</svg>
