<svg width="44" height="47" viewBox="0 0 44 47" fill="none" xmlns="http://www.w3.org/2000/svg">
<g clip-path="url(#clip0_425:5979)">
<path d="M37.45 30.07V33.2C37.45 33.68 37.45 34.2 37.45 34.65C37.4722 34.8296 37.4329 35.0114 37.3385 35.1658C37.244 35.3202 37.1 35.438 36.93 35.4999C36.7677 35.5572 36.5915 35.5619 36.4264 35.5134C36.2613 35.465 36.1156 35.3658 36.01 35.2299L31.42 30.64L31.01 30.2499V30.78C31.01 34.2 31.01 37.6199 31.01 41.0399C31.0558 42.0685 30.7275 43.0788 30.0859 43.884C29.4443 44.6893 28.5328 45.2348 27.52 45.4199C27.1893 45.4713 26.8545 45.4914 26.52 45.4799H5.52C4.91982 45.5117 4.31968 45.4168 3.75863 45.2013C3.19759 44.9858 2.68823 44.6545 2.26371 44.229C1.8392 43.8036 1.50905 43.2935 1.29477 42.7319C1.08048 42.1704 0.986861 41.5701 1.02 40.97V5.49994C0.962244 4.44822 1.29617 3.41238 1.95732 2.59241C2.61846 1.77244 3.55994 1.22649 4.6 1.05994C4.90786 1.01477 5.21888 0.994703 5.52999 0.999944H26.53C27.1341 0.964657 27.7387 1.05815 28.3039 1.27424C28.8691 1.49032 29.3819 1.82408 29.8083 2.25336C30.2348 2.68264 30.5651 3.19768 30.7775 3.76429C30.9898 4.3309 31.0793 4.93611 31.04 5.53992V12.97H41.25C42.1 12.97 42.35 13.2099 42.35 14.0599V28.9299C42.35 29.7999 42.07 30.07 41.19 30.07H37.45ZM29.38 12.96C29.38 12.81 29.38 12.73 29.38 12.64C29.38 10.22 29.38 7.79995 29.38 5.37995C29.3861 5.11045 29.3558 4.84137 29.29 4.57996C29.1326 3.95891 28.757 3.41515 28.232 3.04798C27.7069 2.68081 27.0674 2.51472 26.43 2.57996H5.55999C5.15441 2.53172 4.74317 2.57614 4.35724 2.70984C3.9713 2.84355 3.62073 3.06306 3.33191 3.35187C3.0431 3.64068 2.82358 3.99126 2.68987 4.3772C2.55616 4.76314 2.51176 5.17438 2.56 5.57996V37.09H29.33V30.09H15.88V12.9899L29.38 12.96ZM40.72 28.47V14.57H17.44V28.47H17.97C22.24 28.47 26.51 28.47 30.78 28.47C31.0144 28.4619 31.2477 28.5052 31.4636 28.5967C31.6795 28.6883 31.8728 28.8259 32.03 28.9999C33.17 30.1699 34.34 31.3199 35.5 32.4799L35.86 32.82V29.64C35.86 28.7 36.08 28.4799 37.02 28.4799L40.72 28.47ZM29.34 38.7499H2.6V40.8799C2.55373 41.2851 2.5995 41.6955 2.7339 42.0806C2.8683 42.4656 3.08787 42.8153 3.37624 43.1037C3.66461 43.3921 4.01435 43.6116 4.39938 43.746C4.78441 43.8804 5.19482 43.9262 5.6 43.8799H26.37C26.6098 43.8948 26.8502 43.8948 27.09 43.8799C27.6266 43.8316 28.1331 43.6106 28.5333 43.2499C28.9336 42.8893 29.2061 42.4086 29.31 41.8799C29.3809 40.8381 29.3909 39.793 29.34 38.7499Z" fill="white" stroke="black" stroke-width="2" stroke-miterlimit="10"/>
<path d="M15.99 7.46991H12.61C11.86 7.46991 11.46 6.84991 11.84 6.27991C11.9253 6.17383 12.0315 6.08627 12.1518 6.02264C12.2722 5.95902 12.4043 5.92069 12.54 5.90991C14.85 5.90991 17.16 5.90991 19.46 5.90991C19.6695 5.90991 19.8705 5.99314 20.0186 6.1413C20.1668 6.28945 20.25 6.49037 20.25 6.69989C20.25 6.90941 20.1668 7.11033 20.0186 7.25848C19.8705 7.40664 19.6695 7.48987 19.46 7.48987L15.99 7.46991Z" fill="white" stroke="black" stroke-width="2" stroke-miterlimit="10"/>
<path d="M29.05 18.19H34.47C34.6397 18.1748 34.8103 18.1748 34.98 18.19C35.1564 18.2228 35.317 18.3132 35.4365 18.4472C35.5559 18.5811 35.6275 18.7509 35.64 18.93C35.6483 19.1114 35.5914 19.2899 35.4795 19.433C35.3676 19.576 35.2081 19.6743 35.03 19.71C34.8341 19.7351 34.6359 19.7351 34.44 19.71H23.71C23.5141 19.7351 23.3159 19.7351 23.12 19.71C22.9413 19.685 22.7792 19.5921 22.6674 19.4505C22.5556 19.3089 22.5028 19.1296 22.52 18.95C22.5184 18.762 22.5857 18.5799 22.7091 18.438C22.8325 18.2962 23.0036 18.2044 23.19 18.18C23.3298 18.1702 23.4702 18.1702 23.61 18.18L29.05 18.19Z" fill="white" stroke="black" stroke-width="2" stroke-miterlimit="10"/>
<path d="M29.05 23.4299H34.6C34.7768 23.3987 34.9588 23.4211 35.1227 23.4941C35.2867 23.5672 35.425 23.6876 35.52 23.8399C35.5816 23.9406 35.6188 24.0543 35.6288 24.1719C35.6388 24.2895 35.6213 24.4078 35.5776 24.5175C35.534 24.6271 35.4654 24.7251 35.3772 24.8036C35.2891 24.8821 35.1839 24.9391 35.07 24.9699C34.9173 24.9896 34.7627 24.9896 34.61 24.9699H23.54C22.89 24.9699 22.54 24.7099 22.54 24.2299C22.54 23.7499 22.84 23.3699 23.46 23.3699H29.05V23.4299Z" fill="white" stroke="black" stroke-width="2" stroke-miterlimit="10"/>
</g>
<defs>
<clipPath id="clip0_425:5979">
<rect width="43.35" height="46.49" fill="white"/>
</clipPath>
</defs>
</svg>
