<svg width="172" height="38" viewBox="0 0 172 38" fill="none" xmlns="http://www.w3.org/2000/svg">
<path d="M96.5201 9.00996V14.78C96.5231 14.8214 96.5171 14.8631 96.5025 14.902C96.488 14.941 96.4653 14.9764 96.4359 15.0058C96.4065 15.0352 96.3711 15.0579 96.3321 15.0724C96.2932 15.087 96.2516 15.0929 96.2101 15.09H94.0901C94.0486 15.0929 94.007 15.087 93.968 15.0724C93.9291 15.0579 93.8937 15.0352 93.8643 15.0058C93.8349 14.9764 93.8121 14.941 93.7976 14.902C93.7831 14.8631 93.7771 14.8214 93.7801 14.78V9.49996C93.7801 7.82996 92.8701 7.24996 91.9001 7.24996C91.3485 7.2218 90.8074 7.40797 90.39 7.76953C89.9725 8.13108 89.711 8.64004 89.6601 9.18996V14.78C89.663 14.8214 89.6571 14.8631 89.6426 14.902C89.628 14.941 89.6053 14.9764 89.5759 15.0058C89.5465 15.0352 89.5111 15.0579 89.4721 15.0724C89.4332 15.087 89.3916 15.0929 89.3501 15.09H87.2401C87.1986 15.0929 87.157 15.087 87.118 15.0724C87.0791 15.0579 87.0437 15.0352 87.0143 15.0058C86.9849 14.9764 86.9621 14.941 86.9476 14.902C86.9331 14.8631 86.9271 14.8214 86.9301 14.78V9.49996C86.9301 7.82996 86.0201 7.24996 85.0201 7.24996C84.4738 7.27185 83.9522 7.48355 83.5451 7.84861C83.1381 8.21367 82.8711 8.70923 82.7901 9.24996V14.8C82.7931 14.8414 82.7871 14.8831 82.7726 14.922C82.758 14.961 82.7353 14.9964 82.7059 15.0258C82.6765 15.0552 82.6411 15.0779 82.6022 15.0924C82.5632 15.107 82.5216 15.1129 82.4801 15.11H80.3701C80.3286 15.1129 80.287 15.107 80.248 15.0924C80.2091 15.0779 80.1737 15.0552 80.1443 15.0258C80.1149 14.9964 80.0921 14.961 80.0776 14.922C80.0631 14.8831 80.0571 14.8414 80.0601 14.8V5.25996C80.0571 5.21849 80.0631 5.17686 80.0776 5.1379C80.0921 5.09894 80.1149 5.06356 80.1443 5.03416C80.1737 5.00476 80.2091 4.98202 80.248 4.96749C80.287 4.95297 80.3286 4.94699 80.3701 4.94996H82.3701C82.4108 4.94996 82.4511 4.95798 82.4887 4.97356C82.5263 4.98914 82.5605 5.01197 82.5893 5.04076C82.6181 5.06954 82.6409 5.10372 82.6565 5.14133C82.6721 5.17894 82.6801 5.21925 82.6801 5.25996L82.7601 6.57996C83.0831 6.01028 83.5512 5.53626 84.1167 5.20606C84.6823 4.87585 85.3252 4.70124 85.9801 4.69996C86.6247 4.68632 87.2599 4.8557 87.8121 5.18845C88.3644 5.52121 88.8109 6.0037 89.1001 6.57996C89.4911 5.98428 90.0282 5.49872 90.6601 5.1696C91.2921 4.84049 91.9979 4.6788 92.7101 4.69996C94.9201 4.69996 96.5201 6.28996 96.5201 9.00996Z" fill="#5770BB"/>
<path d="M98.69 10.0199C98.694 8.98176 99.0051 7.96796 99.5842 7.10625C100.163 6.24454 100.984 5.57346 101.944 5.17754C102.904 4.78162 103.959 4.67856 104.977 4.88135C105.996 5.08414 106.931 5.58371 107.666 6.31713C108.401 7.05055 108.902 7.98502 109.107 9.00283C109.311 10.0206 109.21 11.0763 108.816 12.0368C108.422 12.9972 107.753 13.8196 106.892 14.4003C106.031 14.981 105.018 15.294 103.98 15.2999C103.285 15.3053 102.595 15.1724 101.952 14.909C101.308 14.6457 100.723 14.2571 100.231 13.7659C99.739 13.2747 99.3493 12.6906 99.0848 12.0475C98.8202 11.4045 98.686 10.7153 98.69 10.0199ZM106.58 10.0199C106.556 9.50428 106.382 9.00695 106.077 8.58994C105.773 8.17293 105.353 7.85467 104.869 7.67484C104.385 7.49501 103.859 7.46154 103.356 7.57862C102.854 7.6957 102.396 7.95814 102.042 8.33325C101.687 8.70835 101.451 9.17952 101.362 9.68805C101.273 10.1966 101.336 10.72 101.543 11.193C101.749 11.666 102.091 12.0678 102.524 12.3482C102.958 12.6286 103.464 12.7753 103.98 12.7699C104.332 12.7635 104.68 12.6869 105.002 12.5446C105.325 12.4023 105.615 12.197 105.858 11.941C106.1 11.6849 106.288 11.3831 106.412 11.0532C106.536 10.7234 106.593 10.3721 106.58 10.0199Z" fill="#5770BB"/>
<path d="M120.98 9.01002V14.78C120.983 14.8215 120.977 14.8631 120.962 14.9021C120.948 14.941 120.925 14.9764 120.896 15.0058C120.866 15.0352 120.831 15.058 120.792 15.0725C120.753 15.087 120.711 15.093 120.67 15.09H118.56C118.519 15.093 118.477 15.087 118.438 15.0725C118.399 15.058 118.364 15.0352 118.334 15.0058C118.305 14.9764 118.282 14.941 118.268 14.9021C118.253 14.8631 118.247 14.8215 118.25 14.78V9.50002C118.25 7.83002 117.34 7.25002 116.34 7.25002C115.794 7.27191 115.272 7.48361 114.865 7.84867C114.458 8.21373 114.191 8.70929 114.11 9.25002V14.8C114.113 14.8415 114.107 14.8831 114.092 14.9221C114.078 14.961 114.055 14.9964 114.026 15.0258C113.996 15.0552 113.961 15.078 113.922 15.0925C113.883 15.107 113.841 15.113 113.8 15.11H111.68C111.639 15.113 111.597 15.107 111.558 15.0925C111.519 15.078 111.484 15.0552 111.454 15.0258C111.425 14.9964 111.402 14.961 111.388 14.9221C111.373 14.8831 111.367 14.8415 111.37 14.8V5.26002C111.367 5.21855 111.373 5.17692 111.388 5.13796C111.402 5.099 111.425 5.06362 111.454 5.03422C111.484 5.00482 111.519 4.98208 111.558 4.96755C111.597 4.95303 111.639 4.94705 111.68 4.95002H113.68C113.87 4.95002 113.97 5.07002 113.99 5.26002L114.08 6.58002C114.406 6.0059 114.878 5.52902 115.45 5.19854C116.021 4.86807 116.67 4.69598 117.33 4.70002C119.4 4.70002 120.98 6.29002 120.98 9.01002Z" fill="#5770BB"/>
<path d="M136.69 12.2C136.69 14.2 134.69 15.3 132.81 15.3C132.089 15.2966 131.376 15.1438 130.717 14.8512C130.058 14.5586 129.466 14.1326 128.98 13.6C128.932 13.5425 128.906 13.47 128.906 13.395C128.906 13.3201 128.932 13.2476 128.98 13.1901L129.79 12.05C129.91 11.88 130.06 11.93 130.25 12.05C130.988 12.5878 131.86 12.9098 132.77 12.98C133.43 12.98 134.08 12.77 134.08 12.13C134.08 10.52 129.17 11.2 129.17 7.79005C129.189 7.35636 129.295 6.93088 129.481 6.53889C129.668 6.1469 129.931 5.79639 130.256 5.50816C130.58 5.21994 130.96 4.99988 131.371 4.86106C131.782 4.72223 132.217 4.66748 132.65 4.70005C133.305 4.69427 133.954 4.82767 134.554 5.09142C135.154 5.35517 135.691 5.74327 136.13 6.23005C136.184 6.29055 136.214 6.36888 136.214 6.45005C136.214 6.53122 136.184 6.60955 136.13 6.67005L135.34 7.67005C135.22 7.84005 135.07 7.80005 134.88 7.67005C134.318 7.19409 133.615 6.91645 132.88 6.88005C132.23 6.88005 131.76 7.24005 131.76 7.75005C131.76 9.44005 136.69 8.47005 136.69 12.2Z" fill="#5770BB"/>
<path d="M148.26 5.25996V14.78C148.263 14.8214 148.257 14.8631 148.242 14.902C148.228 14.941 148.205 14.9764 148.176 15.0058C148.146 15.0352 148.111 15.0579 148.072 15.0724C148.033 15.087 147.991 15.0929 147.95 15.09H145.95C145.868 15.09 145.789 15.0573 145.731 14.9992C145.673 14.941 145.64 14.8622 145.64 14.78L145.56 13.64C145.237 14.1487 144.795 14.5712 144.273 14.8709C143.75 15.1706 143.162 15.3384 142.56 15.36C140.28 15.36 138.7 13.79 138.7 11.08V5.25996C138.697 5.21849 138.703 5.17686 138.717 5.1379C138.732 5.09894 138.755 5.06356 138.784 5.03416C138.814 5.00476 138.849 4.98202 138.888 4.96749C138.927 4.95297 138.968 4.94699 139.01 4.94996H141.13C141.171 4.94699 141.213 4.95297 141.252 4.96749C141.291 4.98202 141.326 5.00476 141.356 5.03416C141.385 5.06356 141.408 5.09894 141.422 5.1379C141.437 5.17686 141.443 5.21849 141.44 5.25996V10.58C141.44 12.26 142.44 12.84 143.38 12.84C143.932 12.8493 144.467 12.6476 144.876 12.2759C145.285 11.9043 145.537 11.3907 145.58 10.84V5.25996C145.577 5.21849 145.583 5.17686 145.597 5.1379C145.612 5.09894 145.635 5.06356 145.664 5.03416C145.694 5.00476 145.729 4.98202 145.768 4.96749C145.807 4.95297 145.848 4.94699 145.89 4.94996H147.98C148.019 4.95121 148.057 4.96031 148.093 4.97671C148.128 4.99312 148.16 5.01649 148.186 5.04543C148.212 5.07437 148.232 5.10829 148.245 5.14515C148.257 5.18201 148.263 5.22106 148.26 5.25996Z" fill="#5770BB"/>
<path d="M150.75 1.50999C150.752 1.21418 150.841 0.925555 151.007 0.68042C151.173 0.435284 151.407 0.244579 151.681 0.13229C151.954 0.0199999 152.255 -0.00886288 152.545 0.0493334C152.835 0.10753 153.101 0.250185 153.311 0.45936C153.52 0.668534 153.663 0.934887 153.721 1.22492C153.779 1.51496 153.75 1.81573 153.638 2.08941C153.525 2.36308 153.335 2.59745 153.09 2.76303C152.844 2.92861 152.556 3.01801 152.26 3.01999C152.061 3.02132 151.864 2.98316 151.681 2.90775C151.497 2.83234 151.33 2.72116 151.189 2.58068C151.049 2.4402 150.938 2.27321 150.862 2.08941C150.787 1.9056 150.749 1.70866 150.75 1.50999ZM151.18 4.94999H153.29C153.332 4.94701 153.373 4.95299 153.412 4.96752C153.451 4.98205 153.486 5.00478 153.516 5.03419C153.545 5.06359 153.568 5.09897 153.583 5.13793C153.597 5.17689 153.603 5.21851 153.6 5.25999V14.78C153.603 14.8215 153.597 14.8631 153.583 14.902C153.568 14.941 153.545 14.9764 153.516 15.0058C153.486 15.0352 153.451 15.0579 153.412 15.0725C153.373 15.087 153.332 15.093 153.29 15.09H151.18C151.139 15.093 151.097 15.087 151.058 15.0725C151.019 15.0579 150.984 15.0352 150.954 15.0058C150.925 14.9764 150.902 14.941 150.888 14.902C150.873 14.8631 150.867 14.8215 150.87 14.78V5.25999C150.867 5.21851 150.873 5.17689 150.888 5.13793C150.902 5.09897 150.925 5.06359 150.954 5.03419C150.984 5.00478 151.019 4.98205 151.058 4.96752C151.097 4.95299 151.139 4.94701 151.18 4.94999Z" fill="#5770BB"/>
<path d="M163.83 4.94997H165.98C166.2 4.94997 166.31 5.06997 166.22 5.29997L162.43 14.85C162.402 14.9244 162.351 14.9879 162.285 15.0311C162.218 15.0743 162.139 15.095 162.06 15.09H159.98C159.901 15.095 159.822 15.0743 159.755 15.0311C159.689 14.9879 159.638 14.9244 159.61 14.85L155.8 5.29997C155.71 5.06997 155.8 4.94997 156.05 4.94997H158.18C158.261 4.94565 158.34 4.96773 158.407 5.01286C158.474 5.05798 158.524 5.12368 158.55 5.19997L160.98 11.91L163.44 5.19997C163.467 5.12013 163.52 5.05184 163.591 5.00638C163.662 4.96092 163.746 4.94102 163.83 4.94997Z" fill="#5770BB"/>
<path d="M168.24 1.51C168.24 1.21135 168.329 0.919408 168.494 0.671089C168.66 0.422771 168.896 0.229231 169.172 0.114943C169.448 0.000654474 169.752 -0.0292489 170.045 0.0290148C170.337 0.0872785 170.607 0.231093 170.818 0.442271C171.029 0.653448 171.173 0.922505 171.231 1.21542C171.289 1.50833 171.259 1.81194 171.145 2.08785C171.031 2.36377 170.837 2.5996 170.589 2.76552C170.341 2.93144 170.049 3.02 169.75 3.02C169.349 3.02 168.965 2.86091 168.682 2.57773C168.399 2.29455 168.24 1.91048 168.24 1.51ZM168.68 4.95H170.79C170.831 4.94703 170.873 4.95301 170.912 4.96753C170.951 4.98206 170.986 5.0048 171.016 5.0342C171.045 5.0636 171.068 5.09898 171.082 5.13794C171.097 5.1769 171.103 5.21853 171.1 5.26V14.78C171.103 14.8215 171.097 14.8631 171.082 14.9021C171.068 14.941 171.045 14.9764 171.016 15.0058C170.986 15.0352 170.951 15.0579 170.912 15.0725C170.873 15.087 170.831 15.093 170.79 15.09H168.68C168.639 15.093 168.597 15.087 168.558 15.0725C168.519 15.0579 168.484 15.0352 168.454 15.0058C168.425 14.9764 168.402 14.941 168.388 14.9021C168.373 14.8631 168.367 14.8215 168.37 14.78V5.26C168.367 5.21853 168.373 5.1769 168.388 5.13794C168.402 5.09898 168.425 5.0636 168.454 5.0342C168.484 5.0048 168.519 4.98206 168.558 4.96753C168.597 4.95301 168.639 4.94703 168.68 4.95Z" fill="#5770BB"/>
<path d="M83.98 23.09C84.0215 23.0871 84.0631 23.0931 84.1021 23.1076C84.141 23.1221 84.1764 23.1448 84.2058 23.1742C84.2352 23.2036 84.258 23.239 84.2725 23.278C84.287 23.3169 84.293 23.3586 84.29 23.4V33.0301C84.349 33.5943 84.2846 34.1645 84.1011 34.7014C83.9177 35.2382 83.6196 35.7286 83.2276 36.1387C82.8356 36.5487 82.3591 36.8686 81.8311 37.0761C81.3031 37.2835 80.7363 37.3736 80.17 37.34C80.1148 37.3467 80.0591 37.3331 80.0132 37.3019C79.9672 37.2706 79.9341 37.2238 79.92 37.17L79.26 35.02C79.26 34.89 79.26 34.79 79.4 34.79C79.6944 34.7978 79.9871 34.7438 80.2593 34.6316C80.5316 34.5194 80.7773 34.3515 80.9808 34.1386C81.1842 33.9258 81.3409 33.6727 81.4406 33.3956C81.5404 33.1186 81.581 32.8238 81.56 32.5301V23.4C81.557 23.3586 81.563 23.3169 81.5775 23.278C81.5921 23.239 81.6148 23.2036 81.6442 23.1742C81.6736 23.1448 81.709 23.1221 81.748 23.1076C81.7869 23.0931 81.8286 23.0871 81.87 23.09H83.98ZM81.38 19.7C81.382 19.4042 81.4714 19.1156 81.637 18.8705C81.8025 18.6253 82.0369 18.4346 82.3106 18.3224C82.5843 18.2101 82.885 18.1812 83.1751 18.2394C83.4651 18.2976 83.7315 18.4402 83.9406 18.6494C84.1498 18.8586 84.2925 19.125 84.3507 19.415C84.4089 19.705 84.38 20.0058 84.2677 20.2795C84.1554 20.5531 83.9647 20.7875 83.7196 20.9531C83.4744 21.1187 83.1858 21.2081 82.89 21.21C82.4895 21.21 82.1054 21.051 81.8223 20.7678C81.5391 20.4846 81.38 20.1005 81.38 19.7Z" fill="#5770BB"/>
<path d="M96.39 23.4V32.93C96.393 32.9715 96.387 33.0131 96.3725 33.052C96.3579 33.091 96.3352 33.1264 96.3058 33.1558C96.2764 33.1852 96.2411 33.2079 96.2021 33.2224C96.1631 33.237 96.1215 33.243 96.08 33.24H94.08C93.9978 33.24 93.919 33.2073 93.8608 33.1492C93.8027 33.091 93.77 33.0122 93.77 32.93L93.69 31.79C93.3666 32.2981 92.9246 32.7202 92.402 33.0198C91.8795 33.3194 91.292 33.4876 90.69 33.51C88.41 33.51 86.83 31.93 86.83 29.22V23.4C86.8285 23.358 86.8359 23.3162 86.8515 23.2772C86.8672 23.2383 86.8909 23.203 86.9211 23.1738C86.9513 23.1446 86.9872 23.122 87.0266 23.1076C87.0661 23.0932 87.1081 23.0871 87.15 23.09H89.26C89.3011 23.0886 89.342 23.0956 89.3803 23.1107C89.4185 23.1258 89.4533 23.1486 89.4823 23.1777C89.5114 23.2067 89.5342 23.2415 89.5493 23.2797C89.5643 23.318 89.5714 23.3589 89.57 23.4V28.7C89.57 30.38 90.57 30.96 91.51 30.96C92.0631 30.9717 92.5996 30.7708 93.0089 30.3987C93.4182 30.0266 93.6692 29.5116 93.71 28.96V23.4C93.7071 23.3585 93.713 23.3169 93.7275 23.2779C93.7421 23.239 93.7648 23.2036 93.7942 23.1742C93.8236 23.1448 93.859 23.122 93.898 23.1075C93.9369 23.093 93.9786 23.087 94.02 23.09H96.13C96.2052 23.0976 96.2744 23.1342 96.323 23.1921C96.3716 23.25 96.3956 23.3246 96.39 23.4Z" fill="#5770BB"/>
<path d="M106.29 30.34C106.29 32.34 104.29 33.45 102.42 33.45C101.692 33.4547 100.971 33.3056 100.304 33.0127C99.6368 32.7198 99.0393 32.2895 98.55 31.75C98.4973 31.6928 98.468 31.6178 98.468 31.54C98.468 31.4622 98.4973 31.3872 98.55 31.33L99.35 30.19C99.48 30.03 99.62 30.07 99.81 30.19C100.551 30.7293 101.426 31.0545 102.34 31.13C103 31.13 103.64 30.92 103.64 30.28C103.64 28.66 98.73 29.35 98.73 25.93C98.7486 25.4927 98.8556 25.0636 99.0446 24.6688C99.2336 24.274 99.5006 23.9215 99.8296 23.6327C100.159 23.3439 100.543 23.1248 100.959 22.9886C101.375 22.8523 101.814 22.8018 102.25 22.84C102.906 22.8329 103.557 22.9667 104.157 23.2324C104.757 23.498 105.294 23.8894 105.73 24.38C105.786 24.4378 105.817 24.5148 105.817 24.595C105.817 24.6752 105.786 24.7523 105.73 24.81L104.94 25.81C104.82 25.97 104.67 25.93 104.49 25.81C103.926 25.3372 103.225 25.06 102.49 25.02C101.85 25.02 101.37 25.37 101.37 25.89C101.36 27.59 106.29 26.61 106.29 30.34Z" fill="#5770BB"/>
<path d="M114.1 23.4V25.02C114.101 25.0611 114.094 25.102 114.079 25.1403C114.064 25.1785 114.041 25.2132 114.012 25.2423C113.983 25.2714 113.949 25.2942 113.91 25.3092C113.872 25.3243 113.831 25.3314 113.79 25.33H112.13V32.93C112.131 32.9711 112.124 33.012 112.109 33.0503C112.094 33.0885 112.071 33.1232 112.042 33.1523C112.013 33.1814 111.979 33.2042 111.94 33.2192C111.902 33.2343 111.861 33.2414 111.82 33.24H109.71C109.669 33.243 109.627 33.237 109.588 33.2225C109.549 33.2079 109.514 33.1852 109.484 33.1558C109.455 33.1264 109.432 33.091 109.418 33.0521C109.403 33.0131 109.397 32.9715 109.4 32.93V25.33H107.74C107.699 25.333 107.657 25.327 107.618 25.3125C107.579 25.2979 107.544 25.2752 107.514 25.2458C107.485 25.2164 107.462 25.181 107.448 25.1421C107.433 25.1031 107.427 25.0615 107.43 25.02V23.4C107.427 23.3585 107.433 23.3169 107.448 23.2779C107.462 23.239 107.485 23.2036 107.514 23.1742C107.544 23.1448 107.579 23.1221 107.618 23.1075C107.657 23.093 107.699 23.087 107.74 23.09H109.4V20.3C109.397 20.2585 109.403 20.2169 109.418 20.1779C109.432 20.139 109.455 20.1036 109.484 20.0742C109.514 20.0448 109.549 20.0221 109.588 20.0075C109.627 19.993 109.669 19.987 109.71 19.99H111.82C111.862 19.987 111.903 19.993 111.942 20.0075C111.981 20.0221 112.016 20.0448 112.046 20.0742C112.075 20.1036 112.098 20.139 112.113 20.1779C112.127 20.2169 112.133 20.2585 112.13 20.3V23.09H113.79C113.831 23.0886 113.872 23.0957 113.91 23.1108C113.949 23.1258 113.983 23.1486 114.012 23.1777C114.041 23.2068 114.064 23.2415 114.079 23.2797C114.094 23.318 114.101 23.3589 114.1 23.4Z" fill="#5770BB"/>
<path d="M116.08 19.7C116.08 19.4018 116.168 19.1103 116.334 18.8622C116.499 18.6141 116.735 18.4205 117.01 18.306C117.285 18.1914 117.588 18.1609 117.881 18.2184C118.174 18.2758 118.443 18.4186 118.654 18.6288C118.866 18.839 119.01 19.1071 119.07 19.3994C119.129 19.6916 119.101 19.9949 118.988 20.271C118.875 20.5471 118.683 20.7836 118.436 20.9507C118.189 21.1178 117.898 21.2081 117.6 21.21C117.199 21.21 116.814 21.0513 116.529 20.7684C116.244 20.4855 116.083 20.1014 116.08 19.7ZM116.52 23.13H118.63C118.672 23.1271 118.713 23.133 118.752 23.1476C118.791 23.1621 118.826 23.1848 118.856 23.2142C118.885 23.2436 118.908 23.279 118.923 23.318C118.937 23.3569 118.943 23.3986 118.94 23.44V32.97C118.943 33.0115 118.937 33.0531 118.923 33.0921C118.908 33.131 118.885 33.1664 118.856 33.1958C118.826 33.2252 118.791 33.248 118.752 33.2625C118.713 33.277 118.672 33.283 118.63 33.28H116.52C116.479 33.283 116.437 33.277 116.398 33.2625C116.359 33.248 116.324 33.2252 116.294 33.1958C116.265 33.1664 116.242 33.131 116.228 33.0921C116.213 33.0531 116.207 33.0115 116.21 32.97V23.4C116.207 23.3586 116.213 23.3169 116.228 23.278C116.242 23.239 116.265 23.2036 116.294 23.1742C116.324 23.1448 116.359 23.1221 116.398 23.1076C116.437 23.093 116.479 23.0871 116.52 23.09V23.13Z" fill="#5770BB"/>
<path d="M128.67 29.95C128.697 29.9147 128.732 29.8862 128.772 29.8665C128.812 29.8468 128.856 29.8366 128.9 29.8366C128.944 29.8366 128.988 29.8468 129.028 29.8665C129.068 29.8862 129.103 29.9147 129.13 29.95L130.39 31.15C130.42 31.1772 130.444 31.2103 130.46 31.2474C130.477 31.2844 130.485 31.3245 130.485 31.365C130.485 31.4055 130.477 31.4456 130.46 31.4826C130.444 31.5196 130.42 31.5528 130.39 31.58C129.813 32.2305 129.083 32.7269 128.266 33.0241C127.448 33.3214 126.57 33.4102 125.71 33.2826C124.85 33.1549 124.035 32.8148 123.339 32.2929C122.644 31.7711 122.089 31.0841 121.726 30.294C121.362 29.5039 121.202 28.6357 121.259 27.768C121.315 26.9002 121.588 26.0603 122.051 25.3243C122.514 24.5882 123.153 23.9793 123.911 23.5525C124.668 23.1257 125.52 22.8945 126.39 22.88C127.143 22.8754 127.888 23.036 128.572 23.3504C129.256 23.6649 129.863 24.1256 130.35 24.7C130.38 24.7272 130.404 24.7603 130.42 24.7974C130.437 24.8344 130.445 24.8745 130.445 24.915C130.445 24.9555 130.437 24.9956 130.42 25.0326C130.404 25.0696 130.38 25.1028 130.35 25.13L129.09 26.35C128.94 26.5 128.8 26.48 128.63 26.35C128.355 26.0671 128.028 25.8411 127.666 25.685C127.303 25.5288 126.914 25.4456 126.52 25.44C125.826 25.4821 125.174 25.7875 124.697 26.2939C124.221 26.8003 123.955 27.4695 123.955 28.165C123.955 28.8604 124.221 29.5297 124.697 30.0361C125.174 30.5425 125.826 30.8479 126.52 30.89C127.333 30.8726 128.105 30.5347 128.67 29.95Z" fill="#5770BB"/>
<path d="M141.06 29.12H134.55C134.708 29.7486 135.09 30.2981 135.623 30.6661C136.157 31.0341 136.806 31.1955 137.45 31.12C138.229 31.1303 138.989 30.8805 139.61 30.41C139.639 30.3794 139.674 30.3551 139.713 30.3385C139.751 30.3218 139.793 30.3133 139.835 30.3133C139.877 30.3133 139.919 30.3218 139.957 30.3385C139.996 30.3551 140.031 30.3794 140.06 30.41L140.97 31.3C141.12 31.45 141.12 31.59 140.97 31.76C140.475 32.2544 139.887 32.6459 139.24 32.9119C138.593 33.178 137.9 33.3133 137.2 33.31C136.499 33.3346 135.8 33.216 135.146 32.9614C134.493 32.7068 133.898 32.3216 133.398 31.8293C132.898 31.337 132.504 30.7479 132.24 30.0981C131.975 29.4483 131.846 28.7514 131.86 28.05C131.849 27.3723 131.974 26.6994 132.227 26.0706C132.48 25.4418 132.856 24.8698 133.333 24.3883C133.81 23.9067 134.378 23.5252 135.004 23.2662C135.631 23.0072 136.302 22.8759 136.98 22.88C137.63 22.8753 138.273 23.0028 138.872 23.2547C139.471 23.5067 140.012 23.8778 140.463 24.3455C140.914 24.8132 141.265 25.3677 141.495 25.9753C141.725 26.583 141.829 27.231 141.8 27.88C141.78 28.7 141.68 29.12 141.06 29.12ZM134.51 27.34H139.36C139.307 26.7504 139.031 26.2032 138.589 25.8094C138.147 25.4156 137.572 25.2049 136.98 25.22C136.377 25.1983 135.788 25.4044 135.331 25.7973C134.873 26.1901 134.58 26.7409 134.51 27.34Z" fill="#5770BB"/>
<path d="M29.44 20.4499V22.5399H33.67V20.4499C33.6751 18.4892 33.0722 16.5751 31.9442 14.9713C30.8163 13.3675 29.2188 12.1529 27.3717 11.4948C25.5247 10.8367 23.5191 10.7675 21.6311 11.2968C19.7432 11.826 18.0658 12.9277 16.83 14.4499C15.5959 12.9258 13.9192 11.8223 12.0311 11.2919C10.1431 10.7615 8.13703 10.8303 6.28981 11.4889C4.44259 12.1474 2.84537 13.3632 1.7187 14.9684C0.592031 16.5735 -0.00851842 18.4889 -3.33823e-05 20.4499V22.5399H4.22996V20.4499C4.28899 19.0985 4.86737 17.822 5.84454 16.8866C6.82171 15.9512 8.12223 15.429 9.47496 15.429C10.8277 15.429 12.1282 15.9512 13.1054 16.8866C14.0825 17.822 14.6609 19.0985 14.72 20.4499V22.5399H18.98V20.4499C19.039 19.0985 19.6174 17.822 20.5945 16.8866C21.5717 15.9512 22.8722 15.429 24.225 15.429C25.5777 15.429 26.8782 15.9512 27.8554 16.8866C28.8325 17.822 29.4109 19.0985 29.47 20.4499H29.44Z" fill="#5770BB"/>
<path d="M51.5199 20.45V22.54H55.7499V20.45C55.67 17.9903 54.6368 15.6582 52.8686 13.9465C51.1004 12.2348 48.7359 11.2778 46.2749 11.2778C43.814 11.2778 41.4495 12.2348 39.6813 13.9465C37.9131 15.6582 36.8799 17.9903 36.8 20.45V23.97C36.7409 25.3214 36.1625 26.5979 35.1854 27.5333C34.2082 28.4688 32.9077 28.9909 31.5549 28.9909C30.2022 28.9909 28.9017 28.4688 27.9245 27.5333C26.9474 26.5979 26.369 25.3214 26.31 23.97V21.88H22.08V23.97C22.08 26.4895 23.0808 28.9059 24.8624 30.6875C26.644 32.4691 29.0604 33.47 31.58 33.47C34.0995 33.47 36.5159 32.4691 38.2975 30.6875C40.0791 28.9059 41.08 26.4895 41.08 23.97V20.45C41.139 19.0985 41.7174 17.822 42.6945 16.8866C43.6717 15.9512 44.9722 15.4291 46.325 15.4291C47.6777 15.4291 48.9782 15.9512 49.9554 16.8866C50.9325 17.822 51.5109 19.0985 51.5699 20.45H51.5199Z" fill="#D6411E"/>
<path d="M59.18 13.09V23.97C59.121 25.3214 58.5426 26.5979 57.5654 27.5333C56.5882 28.4688 55.2877 28.9909 53.935 28.9909C52.5822 28.9909 51.2817 28.4688 50.3046 27.5333C49.3274 26.5979 48.749 25.3214 48.69 23.97V21.88H44.46V23.97C44.46 26.4895 45.4609 28.9059 47.2424 30.6875C49.024 32.4691 51.4404 33.47 53.96 33.47C56.4795 33.47 58.8959 32.4691 60.6775 30.6875C62.4591 28.9059 63.46 26.4895 63.46 23.97V13.09H59.18Z" fill="#0C866F"/>
<path d="M61.3 10.79C62.7194 10.79 63.87 9.6394 63.87 8.22002C63.87 6.80065 62.7194 5.65002 61.3 5.65002C59.8806 5.65002 58.73 6.80065 58.73 8.22002C58.73 9.6394 59.8806 10.79 61.3 10.79Z" fill="#0C866F"/>
</svg>
